<svg width="191" height="206" viewBox="0 0 191 206" fill="none" xmlns="http://www.w3.org/2000/svg">
<line x1="109.119" y1="32.0459" x2="134.33" y2="32.0459" stroke="black"/>
<line x1="36.452" y1="41.5385" x2="61.663" y2="41.5385" stroke="black"/>
<path d="M88.357 14.349L129.958 37.6106L166.724 50.2219" stroke="black"/>
<path d="M72.0437 13.1833L42.1925 48.4413L12.724 72.1727" stroke="black"/>
<path d="M22.759 64.2282L33.5496 108.261L66.7239 131.5" stroke="black" stroke-linecap="round"/>
<path d="M153.555 46.8875L155.037 91.9922L126.224 127" stroke="black" stroke-linecap="round"/>
<ellipse cx="134.33" cy="77.2966" rx="7.41499" ry="4.06824" fill="#FFE4DB"/>
<ellipse cx="48.316" cy="85.433" rx="7.41499" ry="4.06824" fill="#FFE4DB"/>
<path d="M66.1119 104.418L107.636 101.706L124.69 89.5013L110.602 107.13L66.1119 104.418Z" fill="#2D2323"/>
<path d="M11.2238 33.9921L1.22395 112.5L36.724 205" stroke="black"/>
<path d="M125.268 126.54L67.2644 131.456" stroke="black" stroke-linecap="round"/>
<path d="M165.223 13.9751L185.224 88L165.223 196" stroke="black"/>
</svg>
