<svg width="48" height="48" viewBox="0 0 48 48" fill="none" xmlns="http://www.w3.org/2000/svg">
  <circle cx="24" cy="24" r="24" fill="#1A1208"/>
  <path fill-rule="evenodd" clip-rule="evenodd" d="M24 11C16.82 11 11 16.82 11 24C11 29.77 14.74 34.67 20.02 36.45C20.68 36.57 20.92 36.17 20.92 35.82C20.92 35.51 20.91 34.7 20.91 33.67C17.5 34.38 16.74 32.22 16.74 32.22C16.14 30.68 15.27 30.29 15.27 30.29C14.08 29.5 15.36 29.51 15.36 29.51C16.67 29.6 17.36 30.84 17.36 30.84C18.53 32.86 20.46 32.27 21.02 31.95C21.14 31.13 21.47 30.57 21.83 30.26C19.07 29.94 16.16 28.9 16.16 24.15C16.16 22.69 16.69 21.5 17.39 20.58C17.26 20.27 16.79 18.9 17.51 17.07C17.51 17.07 18.61 16.74 20.91 18.47C21.87 18.2 22.94 18.07 24 18.06C25.06 18.07 26.13 18.2 27.09 18.47C29.39 16.74 30.49 17.07 30.49 17.07C31.21 18.9 30.74 20.27 30.61 20.58C31.32 21.5 31.84 22.69 31.84 24.15C31.84 28.91 28.92 29.93 26.15 30.23C26.6 30.61 27 31.36 27 32.5C27 34.14 26.98 35.46 26.98 35.82C26.98 36.17 27.22 36.58 27.89 36.45C33.26 34.67 37 29.77 37 24C37 16.82 31.18 11 24 11Z" fill="#FFF8EE"/>
</svg>
