<?xml version="1.0" encoding="UTF-8"?>
<svg version="1.1" xmlns="http://www.w3.org/2000/svg" width="666" height="375">
<path d="M0 0 C1.44632812 -0.00386719 1.44632812 -0.00386719 2.921875 -0.0078125 C5.25 0.125 5.25 0.125 6.25 1.125 C5.93012011 7.6292245 4.38220234 13.09225967 2.22265625 19.21484375 C1.3874926 21.71362657 0.76209385 24.10857694 0.25 26.6875 C-0.83105731 32.03381978 -2.79438244 37.04609033 -4.75 42.125 C-3.574375 41.83625 -2.39875 41.5475 -1.1875 41.25 C2.78018354 40.36353757 6.71402252 39.79351888 10.75 39.3125 C17.78106588 38.42123813 24.68170685 37.1032138 31.625 35.6875 C41.4779869 33.6786243 51.32260067 31.73042101 61.25 30.125 C62.26707031 29.94582031 63.28414063 29.76664063 64.33203125 29.58203125 C68.431201 28.97585827 70.55001197 28.8030055 74.375 30.5625 C76.48943568 33.45222877 76.77539084 35.46605099 76.71875 39.02734375 C76.09645369 41.81211972 74.79392055 43.73012789 73.25 46.125 C65.877192 58.5794438 65.877192 58.5794438 59.125 71.375 C57.63144998 74.38618955 56.15849866 77.34900194 54.25 80.125 C53.59 80.125 52.93 80.125 52.25 80.125 C52.25 81.775 52.25 83.425 52.25 85.125 C51.59 85.125 50.93 85.125 50.25 85.125 C49.99992188 85.80949219 49.74984375 86.49398437 49.4921875 87.19921875 C48.04456476 90.60887104 46.24653414 93.75006366 44.375 96.9375 C41.88930856 101.22693811 39.48315035 105.52066812 37.31640625 109.98046875 C35.8069736 113.01592122 34.22014692 116.00904856 32.625 119 C32.03460938 120.11117187 31.44421875 121.22234375 30.8359375 122.3671875 C29.25 125.125 29.25 125.125 27.25 127.125 C26.52044367 128.81624423 25.79378442 130.50887199 25.08984375 132.2109375 C23.37005235 136.13046209 21.08393885 139.74770156 18.87109375 143.40234375 C15.71615187 148.61664716 12.72092943 153.88381447 9.83203125 159.25 C7.57235678 163.35647015 5.17217496 167.37668059 2.765625 171.3984375 C1.35752577 173.93156447 0.31804171 176.43738684 -0.75 179.125 C-1.54989046 180.47866077 -2.38271573 181.81349696 -3.25 183.125 C-5.12176316 186.04031253 -6.61774268 188.83116051 -7.75 192.125 C-8.41 192.125 -9.07 192.125 -9.75 192.125 C-10.12125 193.115 -10.12125 193.115 -10.5 194.125 C-13.06213567 200.2741256 -16.2494257 206.12304557 -19.375 212 C-19.96539062 213.11117187 -20.55578125 214.22234375 -21.1640625 215.3671875 C-22.75 218.125 -22.75 218.125 -24.75 220.125 C-25.47888006 221.81467651 -26.20471874 223.50581794 -26.90625 225.20703125 C-27.98724139 227.66428482 -29.31037498 229.96384126 -30.66796875 232.27734375 C-31.78815606 234.19015457 -32.86599893 236.12201524 -33.9375 238.0625 C-36.37901105 242.46783515 -38.84358875 246.85998451 -41.3125 251.25 C-41.68850342 251.91894287 -42.06450684 252.58788574 -42.4519043 253.27709961 C-44.27396294 256.51529495 -46.10545004 259.74733382 -47.95703125 262.96875 C-48.98667927 264.78128943 -49.98261972 266.61608607 -50.875 268.5 C-51.75 270.125 -51.75 270.125 -53.75 271.125 C-56.93884968 271.85843543 -59.58776541 272.04220801 -62.75 271.125 C-65.43823536 268.13676463 -67.03023223 264.73438915 -68.75 261.125 C-69.42550196 259.93063422 -70.11144697 258.74204955 -70.8125 257.5625 C-72.22010247 255.06514077 -73.6162258 252.56304292 -75.00390625 250.0546875 C-77.83794124 244.9511436 -80.72595369 239.87933094 -83.625 234.8125 C-84.15383789 233.88751709 -84.68267578 232.96253418 -85.22753906 232.00952148 C-88.48961285 226.30989255 -91.7775886 220.62696982 -95.09765625 214.9609375 C-98.35431585 209.37149336 -101.54691377 203.74526058 -104.75 198.125 C-105.08652588 197.53952393 -105.42305176 196.95404785 -105.76977539 196.35083008 C-108.36219911 191.83704264 -110.83618297 187.26841814 -113.28515625 182.67578125 C-114.62983852 180.33424119 -116.12210828 178.27233295 -117.75 176.125 C-118.03875 175.3825 -118.3275 174.64 -118.625 173.875 C-119.59638585 171.50050125 -120.62575016 169.64453 -122 167.5 C-124.53192046 163.54019417 -126.77569217 159.46665828 -129.0078125 155.33203125 C-131.10238205 151.47633259 -133.23199041 147.64143756 -135.375 143.8125 C-135.7472168 143.14283203 -136.11943359 142.47316406 -136.50292969 141.78320312 C-138.23311824 138.69808469 -139.98266785 135.79438778 -142.0234375 132.89453125 C-143.75 130.125 -143.75 130.125 -143.75 126.125 C-144.41 126.125 -145.07 126.125 -145.75 126.125 C-146.33394531 125.01318359 -146.33394531 125.01318359 -146.9296875 123.87890625 C-151.57179688 115.14018882 -156.52670537 106.61263154 -161.57617188 98.10400391 C-165.87146841 90.86239124 -170.07362167 83.58786775 -174.08203125 76.18359375 C-181.08156473 63.34812733 -181.08156473 63.34812733 -188.69140625 50.87109375 C-190.59321187 47.73416714 -192.13354166 44.41564734 -193.75 41.125 C-194.08 40.795 -194.41 40.465 -194.75 40.125 C-195.27569372 36.26991273 -194.99918792 34.52885629 -192.9375 31.1875 C-188.0563753 28.0291252 -184.30882644 29.15022949 -178.75 30.125 C-176.99429688 30.41117188 -176.99429688 30.41117188 -175.203125 30.703125 C-171.63022002 31.30117265 -168.0684265 31.95247093 -164.50683594 32.61425781 C-161.25843641 33.21606899 -158.00812983 33.80707366 -154.7578125 34.3984375 C-152.29680189 34.84855882 -149.83586441 35.29908011 -147.375 35.75 C-146.17939453 35.96817383 -144.98378906 36.18634766 -143.75195312 36.41113281 C-142.62982422 36.61834961 -141.50769531 36.82556641 -140.3515625 37.0390625 C-139.34432129 37.2242041 -138.33708008 37.4093457 -137.29931641 37.60009766 C-134.75 38.125 -134.75 38.125 -131.75 39.125 C-130.1107264 39.28838099 -128.46800535 39.41836259 -126.82421875 39.52734375 C-120.59946962 40.05145758 -114.64355691 41.29498088 -108.5625 42.6875 C-106.99145508 43.03844727 -106.99145508 43.03844727 -105.38867188 43.39648438 C-102.8409959 43.96651233 -100.29490482 44.54274836 -97.75 45.125 C-97.73018066 44.55056152 -97.71036133 43.97612305 -97.68994141 43.38427734 C-97.59407976 40.75576167 -97.48465126 38.12797509 -97.375 35.5 C-97.3440625 34.59636719 -97.313125 33.69273438 -97.28125 32.76171875 C-97.06947087 27.92609523 -96.81900505 23.58673198 -94.75 19.125 C-91.57643021 17.00928681 -89.68096848 16.57102614 -85.97265625 15.90625 C-84.81830078 15.69613281 -83.66394531 15.48601562 -82.47460938 15.26953125 C-80.66186523 14.95048828 -80.66186523 14.95048828 -78.8125 14.625 C-77.05196289 14.30595703 -77.05196289 14.30595703 -75.25585938 13.98046875 C-69.60213923 12.9616115 -63.94320094 11.98774488 -58.2734375 11.0625 C-54.2407363 10.39634685 -50.28029633 9.61560316 -46.3125 8.625 C-42.02904969 7.60246614 -37.79859375 6.7958995 -33.4375 6.1875 C-26.92090937 5.25088892 -20.64145103 3.68976926 -14.28125 2.02734375 C-9.39088703 0.77770454 -5.05815258 -0.01367068 0 0 Z " fill="#8C73FD" transform="translate(391.75,51.875)"/>
<path d="M0 0 C1.44632813 -0.00386719 1.44632813 -0.00386719 2.921875 -0.0078125 C5.25 0.125 5.25 0.125 6.25 1.125 C5.93012011 7.6292245 4.38220234 13.09225967 2.22265625 19.21484375 C1.3874926 21.71362657 0.76209385 24.10857694 0.25 26.6875 C-0.83105731 32.03381978 -2.79438244 37.04609033 -4.75 42.125 C-3.1 42.125 -1.45 42.125 0.25 42.125 C0.25 42.455 0.25 42.785 0.25 43.125 C-1.73 43.125 -3.71 43.125 -5.75 43.125 C-6.018125 44.218125 -6.28625 45.31125 -6.5625 46.4375 C-7.17669032 48.92961035 -7.82930164 51.3957861 -8.55078125 53.859375 C-10.08881253 59.1367904 -11.1166272 63.62559204 -10.75 69.125 C-4.62564131 69.47832839 0.50465755 68.48317285 6.41796875 66.87890625 C10.52450103 65.78571904 14.30376588 64.99031807 18.5625 65.0625 C20.3878125 65.0934375 20.3878125 65.0934375 22.25 65.125 C23.36346788 67.92533839 23.28510273 69.02643703 22.25390625 71.921875 C21.54041016 73.38367188 21.54041016 73.38367188 20.8125 74.875 C20.33941406 75.85984375 19.86632812 76.8446875 19.37890625 77.859375 C19.00636719 78.60703125 18.63382812 79.3546875 18.25 80.125 C17.59 80.125 16.93 80.125 16.25 80.125 C16.12761963 80.85420654 16.00523926 81.58341309 15.87915039 82.3347168 C15.26196474 85.07193634 14.40061821 87.24977637 13.18359375 89.76953125 C12.78076172 90.61064453 12.37792969 91.45175781 11.96289062 92.31835938 C11.54201172 93.18267578 11.12113281 94.04699219 10.6875 94.9375 C10.05038086 96.26297852 10.05038086 96.26297852 9.40039062 97.61523438 C8.35528576 99.78764337 7.30503238 101.95739957 6.25 104.125 C5.59 104.125 4.93 104.125 4.25 104.125 C4.14429688 104.66511719 4.03859375 105.20523438 3.9296875 105.76171875 C3.08362778 108.70347813 1.77850741 111.21776798 0.375 113.9375 C-3.14194128 120.86226505 -6.0657163 127.8390871 -8.75 135.125 C-9.41 135.125 -10.07 135.125 -10.75 135.125 C-11.018125 136.176875 -11.28625 137.22875 -11.5625 138.3125 C-12.64556628 141.78971278 -13.85634093 144.06601227 -15.75 147.125 C-17.14392619 150.09904468 -18.45464248 153.10688272 -19.75 156.125 C-20.41 156.125 -21.07 156.125 -21.75 156.125 C-21.853125 156.640625 -21.95625 157.15625 -22.0625 157.6875 C-23.27445824 161.98444284 -25.02626571 165.95589077 -27.375 169.75 C-28.81928938 172.24468165 -29.34482386 174.28876705 -29.75 177.125 C-30.41 177.125 -31.07 177.125 -31.75 177.125 C-31.75 178.115 -31.75 179.105 -31.75 180.125 C-32.41 180.125 -33.07 180.125 -33.75 180.125 C-33.853125 180.640625 -33.95625 181.15625 -34.0625 181.6875 C-35.25129346 185.90231317 -36.95506562 189.83323164 -39.25 193.5625 C-41.23484868 196.95328317 -42.43280229 200.42430168 -43.75 204.125 C-44.41 204.125 -45.07 204.125 -45.75 204.125 C-45.87890625 204.68703125 -46.0078125 205.2490625 -46.140625 205.828125 C-47.98371191 212.77514491 -50.85883491 220.73443668 -55.75 226.125 C-58.5 226.6875 -58.5 226.6875 -60.75 226.125 C-61.08 225.795 -61.41 225.465 -61.75 225.125 C-61.71164498 223.39312329 -61.59349547 221.6627633 -61.4375 219.9375 C-61.35886719 218.99519531 -61.28023438 218.05289063 -61.19921875 217.08203125 C-60.71742025 213.91054028 -59.7675564 211.16668838 -58.75 208.125 C-57.97903856 204.89129522 -57.33139113 201.63607597 -56.6875 198.375 C-56.42743164 197.11042969 -56.42743164 197.11042969 -56.16210938 195.8203125 C-55.13577706 190.67685402 -54.47185006 185.60108813 -54.00268555 180.37939453 C-53.67693412 177.47312526 -52.98955947 174.74664549 -52.1875 171.9375 C-51.00032866 167.47120006 -50.43629675 163.72598104 -50.75 159.125 C-55.04 159.455 -59.33 159.785 -63.75 160.125 C-63.75 160.785 -63.75 161.445 -63.75 162.125 C-66.96451269 163.73225635 -70.18612536 163.18248185 -73.75 163.125 C-74.16728404 155.066202 -72.57947113 147.88719746 -70.75 140.0625 C-68.15911599 129.20752922 -68.15911599 129.20752922 -67.75 118.125 C-75.38479803 118.45479689 -82.5319811 119.87582453 -89.90991211 121.75292969 C-93.33645691 122.6142081 -96.1897003 123.125 -99.75 123.125 C-105.136551 112.35189799 -99.75865522 90.35272488 -99.03173828 78.68383789 C-97.95551846 61.80109799 -97.95551846 61.80109799 -97.71972656 44.89233398 C-97.76275756 40.95881512 -97.6028077 37.05088595 -97.375 33.125 C-97.3440625 32.42761719 -97.313125 31.73023437 -97.28125 31.01171875 C-97.0406315 26.75277138 -96.46483784 23.04462935 -94.75 19.125 C-91.57643021 17.00928681 -89.68096848 16.57102614 -85.97265625 15.90625 C-84.81830078 15.69613281 -83.66394531 15.48601562 -82.47460938 15.26953125 C-80.66186523 14.95048828 -80.66186523 14.95048828 -78.8125 14.625 C-77.05196289 14.30595703 -77.05196289 14.30595703 -75.25585938 13.98046875 C-69.60213923 12.9616115 -63.94320094 11.98774488 -58.2734375 11.0625 C-54.2407363 10.39634685 -50.28029633 9.61560316 -46.3125 8.625 C-42.02904969 7.60246614 -37.79859375 6.7958995 -33.4375 6.1875 C-26.92090937 5.25088892 -20.64145103 3.68976926 -14.28125 2.02734375 C-9.39088703 0.77770454 -5.05815258 -0.01367068 0 0 Z " fill="#FDCA24" transform="translate(391.75,51.875)"/>
<path d="M0 0 C1.2065625 0.0309375 1.2065625 0.0309375 2.4375 0.0625 C2.1075 0.7225 1.7775 1.3825 1.4375 2.0625 C1.3629644 3.2861068 1.3629644 3.2861068 2.4375 5.0625 C1.7775 5.0625 1.1175 5.0625 0.4375 5.0625 C0.1075 6.3825 -0.2225 7.7025 -0.5625 9.0625 C1.9125 10.0525 1.9125 10.0525 4.4375 11.0625 C4.1075 12.0525 3.7775 13.0425 3.4375 14.0625 C7.23053725 13.06056563 10.15286341 12.25225773 13.4375 10.0625 C13.7675 10.7225 14.0975 11.3825 14.4375 12.0625 C14.7675 10.7425 15.0975 9.4225 15.4375 8.0625 C16.489375 8.26875 17.54125 8.475 18.625 8.6875 C22.43374887 9.06213104 24.10585752 8.77880067 27.4375 7.0625 C28.37173645 10.07281744 28.48199911 10.92900268 27.4375 14.0625 C29.0875 14.0625 30.7375 14.0625 32.4375 14.0625 C32.7675 13.4025 33.0975 12.7425 33.4375 12.0625 C34.4275 12.0625 35.4175 12.0625 36.4375 12.0625 C36.28010929 18.24366256 35.10598795 22.18787759 31.58203125 27.265625 C30.17930838 29.46785202 29.68021137 31.4735787 29.4375 34.0625 C28.7775 34.0625 28.1175 34.0625 27.4375 34.0625 C27.4375 35.0525 27.4375 36.0425 27.4375 37.0625 C26.7775 37.0625 26.1175 37.0625 25.4375 37.0625 C25.334375 37.578125 25.23125 38.09375 25.125 38.625 C23.93620654 42.83981317 22.23243438 46.77073164 19.9375 50.5 C17.95265132 53.89078317 16.75469771 57.36180168 15.4375 61.0625 C14.7775 61.0625 14.1175 61.0625 13.4375 61.0625 C13.30859375 61.62453125 13.1796875 62.1865625 13.046875 62.765625 C11.20378809 69.71264491 8.32866509 77.67193668 3.4375 83.0625 C0.6875 83.625 0.6875 83.625 -1.5625 83.0625 C-1.8925 82.7325 -2.2225 82.4025 -2.5625 82.0625 C-2.52414498 80.33062329 -2.40599547 78.6002633 -2.25 76.875 C-2.13205078 75.46154297 -2.13205078 75.46154297 -2.01171875 74.01953125 C-1.52992025 70.84804028 -0.5800564 68.10418838 0.4375 65.0625 C1.20846144 61.82879522 1.85610887 58.57357597 2.5 55.3125 C2.76006836 54.04792969 2.76006836 54.04792969 3.02539062 52.7578125 C4.05172294 47.61435402 4.71564994 42.53858813 5.18481445 37.31689453 C5.62062115 33.42874083 6.74433491 29.76921617 7.81640625 26.01953125 C8.67731344 22.4243391 8.67731344 22.4243391 8.4375 16.0625 C3.4875 16.0625 -1.4625 16.0625 -6.5625 16.0625 C-6.2325 16.7225 -5.9025 17.3825 -5.5625 18.0625 C-9.5225 18.5575 -9.5225 18.5575 -13.5625 19.0625 C-13.5625 17.0825 -13.5625 15.1025 -13.5625 13.0625 C-12.9025 13.0625 -12.2425 13.0625 -11.5625 13.0625 C-11.5625 10.4225 -11.5625 7.7825 -11.5625 5.0625 C-7.8125 3.9375 -7.8125 3.9375 -5.5625 5.0625 C-5.253125 4.423125 -4.94375 3.78375 -4.625 3.125 C-3.05351796 0.07447605 -3.05351796 0.07447605 0 0 Z " fill="#FCAF0D" transform="translate(332.5625,194.9375)"/>
<path d="M0 0 C1.44632813 -0.00386719 1.44632813 -0.00386719 2.921875 -0.0078125 C5.25 0.125 5.25 0.125 6.25 1.125 C5.93012011 7.6292245 4.38220234 13.09225967 2.22265625 19.21484375 C1.3874926 21.71362657 0.76209385 24.10857694 0.25 26.6875 C-0.83105731 32.03381978 -2.79438244 37.04609033 -4.75 42.125 C-3.1 42.125 -1.45 42.125 0.25 42.125 C0.25 42.455 0.25 42.785 0.25 43.125 C-1.73 43.125 -3.71 43.125 -5.75 43.125 C-6.018125 44.218125 -6.28625 45.31125 -6.5625 46.4375 C-7.17669032 48.92961035 -7.82930164 51.3957861 -8.55078125 53.859375 C-10.08881253 59.1367904 -11.1166272 63.62559204 -10.75 69.125 C-8.11 69.455 -5.47 69.785 -2.75 70.125 C-2.75 70.455 -2.75 70.785 -2.75 71.125 C-4.22906892 71.15189216 -5.70827483 71.17134621 -7.1875 71.1875 C-8.01121094 71.19910156 -8.83492188 71.21070312 -9.68359375 71.22265625 C-11.75 71.125 -11.75 71.125 -12.75 70.125 C-12.82258946 67.93860547 -12.83373783 65.74999611 -12.8125 63.5625 C-12.80347656 62.36496094 -12.79445313 61.16742188 -12.78515625 59.93359375 C-12.77355469 59.00675781 -12.76195312 58.07992187 -12.75 57.125 C-12.09 57.125 -11.43 57.125 -10.75 57.125 C-10.75 54.485 -10.75 51.845 -10.75 49.125 C-12.73 48.63 -12.73 48.63 -14.75 48.125 C-13 45.625 -13 45.625 -10.75 43.125 C-9.43 43.125 -8.11 43.125 -6.75 43.125 C-6.54890625 42.09632812 -6.54890625 42.09632812 -6.34375 41.046875 C-5.68656066 37.81281165 -4.97823873 34.59381518 -4.25 31.375 C-3.9921875 30.22515625 -3.734375 29.0753125 -3.46875 27.890625 C-2.75 25.125 -2.75 25.125 -1.75 24.125 C-1.39159778 21.79538557 -1.06151288 19.46134657 -0.75 17.125 C-0.43033861 15.45565717 -0.10268934 13.7876783 0.25 12.125 C-3.93733828 12.04289533 -7.66330871 12.26464394 -11.75 13.125 C-13.4162553 13.1620279 -15.08401319 13.17259962 -16.75 13.125 C-16.976875 13.74375 -17.20375 14.3625 -17.4375 15 C-19.12929835 17.73910209 -20.74244161 18.17524472 -23.75 19.125 C-23.75 17.145 -23.75 15.165 -23.75 13.125 C-25.16805831 13.40982368 -26.58440379 13.70318144 -28 14 C-28.78890625 14.16242188 -29.5778125 14.32484375 -30.390625 14.4921875 C-32.72526452 15.11836565 -34.60361537 16.03421437 -36.75 17.125 C-38.74110401 17.50790462 -40.74100513 17.85104615 -42.75 18.125 C-42.75 17.465 -42.75 16.805 -42.75 16.125 C-43.41 16.125 -44.07 16.125 -44.75 16.125 C-45.41 16.785 -46.07 17.445 -46.75 18.125 C-47.245 17.135 -47.245 17.135 -47.75 16.125 C-50.70800528 16.83268358 -50.70800528 16.83268358 -53.75 18.125 C-54.41 19.445 -55.07 20.765 -55.75 22.125 C-58.72 21.795 -61.69 21.465 -64.75 21.125 C-65.08 21.785 -65.41 22.445 -65.75 23.125 C-66.41 22.795 -67.07 22.465 -67.75 22.125 C-67.42 21.135 -67.09 20.145 -66.75 19.125 C-66.09 18.795 -65.43 18.465 -64.75 18.125 C-64.75 17.465 -64.75 16.805 -64.75 16.125 C-65.74 16.125 -66.73 16.125 -67.75 16.125 C-69.96168225 19.06736782 -69.96168225 19.06736782 -71.75 22.125 C-73.73 21.795 -75.71 21.465 -77.75 21.125 C-78.74 23.6 -78.74 23.6 -79.75 26.125 C-80.74 26.125 -81.73 26.125 -82.75 26.125 C-83.20375 25.609375 -83.6575 25.09375 -84.125 24.5625 C-84.66125 24.088125 -85.1975 23.61375 -85.75 23.125 C-88.40466049 23.35543864 -88.40466049 23.35543864 -90.75 24.125 C-90.75 25.115 -90.75 26.105 -90.75 27.125 C-91.23339844 27.6509375 -91.71679688 28.176875 -92.21484375 28.71875 C-94.60097214 32.45883928 -94.2436059 36.2748296 -94.3125 40.625 C-94.34707687 42.32310829 -94.38976091 44.0210751 -94.44140625 45.71875 C-94.45373291 46.46833984 -94.46605957 47.21792969 -94.47875977 47.99023438 C-94.78335011 50.38747827 -95.56230847 52.03641325 -96.75 54.125 C-97.62707312 47.12190845 -97.8225195 40.28521709 -97.4375 33.25 C-97.40277588 32.537229 -97.36805176 31.82445801 -97.33227539 31.09008789 C-97.0592205 26.81690417 -96.47040092 23.05902258 -94.75 19.125 C-91.57643021 17.00928681 -89.68096848 16.57102614 -85.97265625 15.90625 C-84.81830078 15.69613281 -83.66394531 15.48601562 -82.47460938 15.26953125 C-80.66186523 14.95048828 -80.66186523 14.95048828 -78.8125 14.625 C-77.05196289 14.30595703 -77.05196289 14.30595703 -75.25585938 13.98046875 C-69.60213923 12.9616115 -63.94320094 11.98774488 -58.2734375 11.0625 C-54.2407363 10.39634685 -50.28029633 9.61560316 -46.3125 8.625 C-42.02904969 7.60246614 -37.79859375 6.7958995 -33.4375 6.1875 C-26.92090937 5.25088892 -20.64145103 3.68976926 -14.28125 2.02734375 C-9.39088703 0.77770454 -5.05815258 -0.01367068 0 0 Z " fill="#FCDF4B" transform="translate(391.75,51.875)"/>
<path d="M0 0 C1.17046875 0.19078125 2.3409375 0.3815625 3.546875 0.578125 C7.11977998 1.17617265 10.6815735 1.82747093 14.24316406 2.48925781 C17.49156359 3.09106899 20.74187017 3.68207366 23.9921875 4.2734375 C26.45319811 4.72355882 28.91413559 5.17408011 31.375 5.625 C32.57060547 5.84317383 33.76621094 6.06134766 34.99804688 6.28613281 C36.12017578 6.49334961 37.24230469 6.70056641 38.3984375 6.9140625 C39.40567871 7.0992041 40.41291992 7.2843457 41.45068359 7.47509766 C44 8 44 8 47 9 C48.62881744 9.16360535 50.26114088 9.29349132 51.89453125 9.40234375 C58.28315909 9.9402559 64.43162395 11.19486513 70.6875 12.5625 C72.33008789 12.91344727 72.33008789 12.91344727 74.00585938 13.27148438 C76.67185989 13.84193863 79.33646071 14.41818224 82 15 C82.0515076 21.25888854 81.99428193 27.44719062 81.5 33.6875 C81.4071875 34.88761719 81.314375 36.08773437 81.21875 37.32421875 C81.1465625 38.20722656 81.074375 39.09023437 81 40 C80.67 40 80.34 40 80 40 C79.505 31.09 79.505 31.09 79 22 C77.35 21.67 75.7 21.34 74 21 C72.6875 18.4375 72.6875 18.4375 72 16 C71.07058594 15.86722656 70.14117187 15.73445313 69.18359375 15.59765625 C65.45572917 15.06510417 61.72786458 14.53255208 58 14 C56.75347656 13.85433594 55.50695312 13.70867187 54.22265625 13.55859375 C51 13 51 13 48 11 C48.495 12.485 48.495 12.485 49 14 C48.34 14 47.68 14 47 14 C47 13.34 47 12.68 47 12 C46.484375 12.33 45.96875 12.66 45.4375 13 C42.21737664 14.32107625 39.45736553 14.06173867 36 14 C34.88625 14.2784375 34.88625 14.2784375 33.75 14.5625 C32 15 32 15 29 14 C29 13 29 12 29 11 C24.38442348 5.4728833 15.88277797 5.76698591 9.1640625 5.1484375 C7.44603417 5.0305944 5.72206514 5 4 5 C2.43593472 4.84872598 0.87340748 4.68097478 -0.6875 4.5 C-1.49574219 4.4071875 -2.30398437 4.314375 -3.13671875 4.21875 C-3.75160156 4.1465625 -4.36648437 4.074375 -5 4 C-5 4.99 -5 5.98 -5 7 C-5.66 7.66 -6.32 8.32 -7 9 C-7.66 8.67 -8.32 8.34 -9 8 C-9 8.66 -9 9.32 -9 10 C-9.99 10.495 -9.99 10.495 -11 11 C-10.67 11.99 -10.34 12.98 -10 14 C-8.35 14 -6.7 14 -5 14 C-5 17 -5 20 -5 23 C-4.34 23 -3.68 23 -3 23 C-2.67 23.66 -2.34 24.32 -2 25 C-1.01 25.33 -0.02 25.66 1 26 C1 25.34 1 24.68 1 24 C1.66 24 2.32 24 3 24 C2.67 25.65 2.34 27.3 2 29 C2.61875 29.28875 3.2375 29.5775 3.875 29.875 C6 31 6 31 8 33 C9.31747324 33.69748583 10.64914193 34.36959957 12 35 C11.52878636 37.74874625 10.99062807 40.02022365 9.8125 42.5625 C8.72366324 44.93728528 8.72366324 44.93728528 9.8125 46.9375 C10.204375 47.618125 10.59625 48.29875 11 49 C11.38290462 50.99110401 11.72604615 52.99100513 12 55 C13.98 54.505 13.98 54.505 16 54 C16.99 56.64 17.98 59.28 19 62 C20.32 62 21.64 62 23 62 C23.66 62 24.32 62 25 62 C25 65.79557881 24.49821059 67.62902617 23 71 C23.99 71.33 24.98 71.66 26 72 C26.33 73.65 26.66 75.3 27 77 C29.94729537 78.15811388 29.94729537 78.15811388 33 78 C35.53128689 86.06847698 35.53128689 86.06847698 35 90 C34.0364316 91.35989474 33.03948517 92.69721515 32 94 C31.52433594 93.10474609 31.52433594 93.10474609 31.0390625 92.19140625 C26.63500923 84.00376025 21.92409787 76.01095151 17.18994141 68.01123047 C12.89650882 60.75450136 8.68218322 53.47359045 4.66796875 46.05859375 C-2.33156473 33.22312733 -2.33156473 33.22312733 -9.94140625 20.74609375 C-11.84321187 17.60916714 -13.38354166 14.29064734 -15 11 C-15.33 10.67 -15.66 10.34 -16 10 C-16.52569372 6.14491273 -16.24918792 4.40385629 -14.1875 1.0625 C-9.3063753 -2.0958748 -5.55882644 -0.97477051 0 0 Z " fill="#9CD4F2" transform="translate(213,82)"/>
<path d="M0 0 C1.046875 1.875 1.046875 1.875 2 4 C1.25 6 1.25 6 0 8 C-0.556875 9.11375 -0.556875 9.11375 -1.125 10.25 C-1.41375 10.8275 -1.7025 11.405 -2 12 C-1.01 12.99 -1.01 12.99 0 14 C-0.495 14.45375 -0.99 14.9075 -1.5 15.375 C-3.22609337 16.87635519 -3.22609337 16.87635519 -3 19 C-4.32 19 -5.64 19 -7 19 C-7.03867187 20.04800781 -7.03867187 20.04800781 -7.078125 21.1171875 C-7.16320312 22.48230469 -7.16320312 22.48230469 -7.25 23.875 C-7.29640625 24.77992188 -7.3428125 25.68484375 -7.390625 26.6171875 C-8 29 -8 29 -9.98046875 30.18359375 C-10.64691406 30.45300781 -11.31335938 30.72242188 -12 31 C-13.15020525 33.24743756 -13.15020525 33.24743756 -14 36 C-14.495 37.134375 -14.99 38.26875 -15.5 39.4375 C-17.02901166 42.86979454 -17.02901166 42.86979454 -17.875 46.0625 C-18.9234125 48.80002152 -19.71770329 49.96233059 -21.625 52.0625 C-24.2105446 55.26041043 -24.32603172 56.08761938 -24 60 C-24.66 60.66 -25.32 61.32 -26 62 C-26.2475 62.5775 -26.495 63.155 -26.75 63.75 C-28.0022454 66.00404173 -29.08939524 67.01340214 -31 68.6875 C-34.71573104 72.21291311 -35.36266896 76.05519022 -36 81 C-35.34 81.33 -34.68 81.66 -34 82 C-34.598125 82.04125 -35.19625 82.0825 -35.8125 82.125 C-38.30506225 82.8770429 -38.30506225 82.8770429 -39.8125 85.8125 C-41.01204308 89.03232615 -41.26708525 89.93787732 -40 93 C-39.67 93.99 -39.34 94.98 -39 96 C-40.485 96.99 -40.485 96.99 -42 98 C-42 97.01 -42 96.02 -42 95 C-45.52079193 98.05135301 -46.70643245 100.56491125 -48 105 C-48.556875 106.0828125 -48.556875 106.0828125 -49.125 107.1875 C-50.21737453 109.11483327 -50.21737453 109.11483327 -50 112 C-55.46998848 114.94537841 -60.84918578 116.26190229 -67 117 C-66.505 116.01 -66.505 116.01 -66 115 C-65.01 115 -64.02 115 -63 115 C-63.33 114.01 -63.66 113.02 -64 112 C-64.44948944 106.51204759 -63.8578285 102.20191981 -62 97 C-62.33 96.01 -62.66 95.02 -63 94 C-62.01 93.01 -62.01 93.01 -61 92 C-60.40165446 90.47943382 -59.86493344 88.93387912 -59.375 87.375 C-59.11460937 86.55773437 -58.85421875 85.74046875 -58.5859375 84.8984375 C-58.39257812 84.27195312 -58.19921875 83.64546875 -58 83 C-57.67 83 -57.34 83 -57 83 C-57.39084078 89.35630529 -57.94278469 94.95693002 -60 101 C-60.45923083 104.65853896 -60.75128692 108.32166445 -61 112 C-59.35 112 -57.7 112 -56 112 C-52.18482215 105.14313241 -48.48893015 98.46679044 -46 91 C-45.34 91 -44.68 91 -44 91 C-43.82984375 90.43152344 -43.6596875 89.86304688 -43.484375 89.27734375 C-42.28328503 85.45046668 -41.07436573 81.88413844 -39 78.4375 C-36.816311 74.68428454 -35.4345019 71.08833041 -34 67 C-33.34 67 -32.68 67 -32 67 C-32 66.01 -32 65.02 -32 64 C-31.34 64 -30.68 64 -30 64 C-30.1546875 63.01 -30.1546875 63.01 -30.3125 62 C-29.91912303 58.22358106 -28.39429515 56.2416689 -26.3125 53.13671875 C-24.33269586 49.91364475 -23.21286274 46.57475335 -22 43 C-21.34 43 -20.68 43 -20 43 C-19.81824219 42.40832031 -19.63648438 41.81664062 -19.44921875 41.20703125 C-18.03163961 36.75074401 -16.50736598 32.96999613 -14 29 C-13.46367073 27.75656995 -12.94349212 26.50608094 -12.4375 25.25 C-11 22 -11 22 -9 21 C-8.51720214 19.33539695 -8.04052624 17.66865012 -7.60253906 15.99169922 C-6.59305147 12.65482733 -4.98041319 9.64606801 -3.375 6.5625 C-3.05015625 5.92634766 -2.7253125 5.29019531 -2.390625 4.63476562 C-1.59928647 3.08700056 -0.8004333 1.5430813 0 0 Z " fill="#B549D6" transform="translate(392,165)"/>
<path d="M0 0 C0.66 0 1.32 0 2 0 C1.67 1.65 1.34 3.3 1 5 C1.61875 5.28875 2.2375 5.5775 2.875 5.875 C5 7 5 7 7 9 C8.31747324 9.69748583 9.64914193 10.36959957 11 11 C10.52878636 13.74874625 9.99062807 16.02022365 8.8125 18.5625 C7.72366324 20.93728528 7.72366324 20.93728528 8.8125 22.9375 C9.204375 23.618125 9.59625 24.29875 10 25 C10.38290462 26.99110401 10.72604615 28.99100513 11 31 C12.32 30.67 13.64 30.34 15 30 C15.99 32.64 16.98 35.28 18 38 C19.32 38 20.64 38 22 38 C22.66 38 23.32 38 24 38 C24 41.79557881 23.49821059 43.62902617 22 47 C23.485 47.495 23.485 47.495 25 48 C25.33 49.65 25.66 51.3 26 53 C28.94729537 54.15811388 28.94729537 54.15811388 32 54 C34.53128689 62.06847698 34.53128689 62.06847698 34 66 C33.0364316 67.35989474 32.03948517 68.69721515 31 70 C30.52433594 69.10474609 30.52433594 69.10474609 30.0390625 68.19140625 C25.63500923 60.00376025 20.92409787 52.01095151 16.18994141 44.01123047 C11.79591245 36.5844741 7.48080925 29.13939478 3.421875 21.5234375 C2.10831021 19.19222086 0.66296206 17.06097978 -0.875 14.875 C-3.59419196 10.68761813 -3.50576745 6.85536754 -3 2 C-2.01 2 -1.02 2 0 2 C0 1.34 0 0.68 0 0 Z " fill="#73A7F9" transform="translate(214,106)"/>
<path d="M0 0 C1.32 0.33 2.64 0.66 4 1 C3.01 3.31 2.02 5.62 1 8 C0.34 8 -0.32 8 -1 8 C-1.2475 8.66 -1.495 9.32 -1.75 10 C-4.31213567 16.1491256 -7.4994257 21.99804557 -10.625 27.875 C-11.21539062 28.98617188 -11.80578125 30.09734375 -12.4140625 31.2421875 C-14 34 -14 34 -16 36 C-16.72888006 37.68967651 -17.45471874 39.38081794 -18.15625 41.08203125 C-19.23724139 43.53928482 -20.56037498 45.83884126 -21.91796875 48.15234375 C-23.03815606 50.06515457 -24.11599893 51.99701524 -25.1875 53.9375 C-26.86246266 56.96290131 -28.55069089 59.98041531 -30.25 62.9921875 C-30.85098511 64.05771851 -30.85098511 64.05771851 -31.46411133 65.14477539 C-32.26783428 66.56889355 -33.07233525 67.99257296 -33.87768555 69.41577148 C-35.6610166 72.576625 -37.4267759 75.72735736 -39 79 C-40.59905707 75.80188585 -39.0253335 73.30385238 -38 70 C-37.65864073 68.66869885 -37.32074044 67.33641852 -37 66 C-37.66 66 -38.32 66 -39 66 C-38.505 65.01 -38.505 65.01 -38 64 C-38 63.01 -38 62.02 -38 61 C-35.03 60.505 -35.03 60.505 -32 60 C-31.2717552 55.00632136 -30.61512818 50.00890086 -30 45 C-29.34 45 -28.68 45 -28 45 C-28 45.66 -28 46.32 -28 47 C-26.68 47 -25.36 47 -24 47 C-23.690625 46.071875 -23.38125 45.14375 -23.0625 44.1875 C-22.375 42.125 -21.6875 40.0625 -21 38 C-21.185625 37.21625 -21.37125 36.4325 -21.5625 35.625 C-22.10787549 32.35274707 -21.725099 30.82288927 -20 28 C-17.375 27.1875 -17.375 27.1875 -15 27 C-15 24.69 -15 22.38 -15 20 C-13.68 19.34 -12.36 18.68 -11 18 C-11 18.66 -11 19.32 -11 20 C-10.34 19.67 -9.68 19.34 -9 19 C-8.34786708 16.97536745 -8.34786708 16.97536745 -8 15 C-7.34 15 -6.68 15 -6 15 C-6.495 10.545 -6.495 10.545 -7 6 C-3 4 -3 4 0 3 C0 2.01 0 1.02 0 0 Z " fill="#BF6DEB" transform="translate(383,236)"/>
<path d="M0 0 C0.99 0.33 1.98 0.66 3 1 C2.67 2.98 2.34 4.96 2 7 C3.65 7 5.3 7 7 7 C7.33 6.34 7.66 5.68 8 5 C8.99 5 9.98 5 11 5 C10.67 7.31 10.34 9.62 10 12 C9.01 12.33 8.02 12.66 7 13 C7 13.99 7 14.98 7 16 C6.34 16 5.68 16 5 16 C4.67 16.99 4.34 17.98 4 19 C3.67 19.66 3.34 20.32 3 21 C2.9603287 22.66619446 2.95615553 24.33391013 3 26 C2.34 26 1.68 26 1 26 C0.67 24.68 0.34 23.36 0 22 C-2.97 22 -5.94 22 -9 22 C-9.33 20.35 -9.66 18.7 -10 17 C-10.66 17 -11.32 17 -12 17 C-12.12375 15.081875 -12.12375 15.081875 -12.25 13.125 C-12.45869931 10.94666582 -12.45869931 10.94666582 -13 9 C-14.92064793 7.4100567 -14.92064793 7.4100567 -17 7 C-15.35 5.68 -13.7 4.36 -12 3 C-11.67 3.66 -11.34 4.32 -11 5 C-10.67 3.68 -10.34 2.36 -10 1 C-8.906875 1.20625 -7.81375 1.4125 -6.6875 1.625 C-2.9161599 2.40346525 -2.9161599 2.40346525 0 0 Z " fill="#FDB30C" transform="translate(358,202)"/>
<path d="M0 0 C0 0.66 0 1.32 0 2 C-2.90600261 3.25664978 -4.79604584 4 -8 4 C-10.21168225 6.94236782 -10.21168225 6.94236782 -12 10 C-14.97 9.505 -14.97 9.505 -18 9 C-18.66 10.65 -19.32 12.3 -20 14 C-20.99 14 -21.98 14 -23 14 C-23.45375 13.484375 -23.9075 12.96875 -24.375 12.4375 C-24.91125 11.963125 -25.4475 11.48875 -26 11 C-28.65466049 11.23043864 -28.65466049 11.23043864 -31 12 C-31 12.99 -31 13.98 -31 15 C-31.72509766 15.78890625 -31.72509766 15.78890625 -32.46484375 16.59375 C-34.85097214 20.33383928 -34.4936059 24.1498296 -34.5625 28.5 C-34.59707687 30.19810829 -34.63976091 31.8960751 -34.69140625 33.59375 C-34.70373291 34.34333984 -34.71605957 35.09292969 -34.72875977 35.86523438 C-35.03335011 38.26247827 -35.81230847 39.91141325 -37 42 C-37.87707312 34.99690845 -38.0725195 28.16021709 -37.6875 21.125 C-37.63541382 20.05584351 -37.63541382 20.05584351 -37.58227539 18.96508789 C-37.3092205 14.69190417 -36.72040092 10.93402258 -35 7 C-31.7780272 4.85201813 -29.74925851 4.40376718 -25.9765625 3.7109375 C-24.790625 3.49179688 -23.6046875 3.27265625 -22.3828125 3.046875 C-21.14273437 2.82515625 -19.90265625 2.6034375 -18.625 2.375 C-17.39265625 2.14554687 -16.1603125 1.91609375 -14.890625 1.6796875 C-4.8622242 -0.1476133 -4.8622242 -0.1476133 0 0 Z " fill="#F7D950" transform="translate(332,64)"/>
<path d="M0 0 C6.43644478 -0.19603385 12.36078413 -0.17146758 18.60400391 1.47631836 C21.08773991 2.0191769 23.44890451 2.23613551 25.984375 2.40625 C32.34059043 2.94491232 38.46304021 4.20173322 44.6875 5.5625 C45.78255859 5.79646484 46.87761719 6.03042969 48.00585938 6.27148438 C50.67185989 6.84193863 53.33646071 7.41818224 56 8 C56.0515076 14.25888854 55.99428193 20.44719062 55.5 26.6875 C55.4071875 27.88761719 55.314375 29.08773437 55.21875 30.32421875 C55.1465625 31.20722656 55.074375 32.09023437 55 33 C54.67 33 54.34 33 54 33 C53.505 24.09 53.505 24.09 53 15 C50.525 14.505 50.525 14.505 48 14 C46.6875 11.4375 46.6875 11.4375 46 9 C45.07058594 8.86722656 44.14117187 8.73445313 43.18359375 8.59765625 C39.45572917 8.06510417 35.72786458 7.53255208 32 7 C30.75347656 6.85433594 29.50695312 6.70867187 28.22265625 6.55859375 C25 6 25 6 22 4 C22.33 4.99 22.66 5.98 23 7 C22.34 7 21.68 7 21 7 C21 6.34 21 5.68 21 5 C20.484375 5.33 19.96875 5.66 19.4375 6 C16.21737664 7.32107625 13.45736553 7.06173867 10 7 C8.88625 7.2784375 8.88625 7.2784375 7.75 7.5625 C6 8 6 8 3 7 C3 6 3 5 3 4 C2.01971384 2.65210653 1.02028865 1.31787285 0 0 Z " fill="#6FBAF3" transform="translate(239,89)"/>
<path d="M0 0 C1.485 0.495 1.485 0.495 3 1 C2.21331482 2.62741744 1.4204759 4.25186131 0.625 5.875 C0.18414062 6.77992188 -0.25671875 7.68484375 -0.7109375 8.6171875 C-2 11 -2 11 -4 13 C-4.72955633 14.69124423 -5.45621558 16.38387199 -6.16015625 18.0859375 C-7.87994765 22.00546209 -10.16606115 25.62270156 -12.37890625 29.27734375 C-16.10033619 35.4279055 -19.59104364 41.67157846 -23 48 C-24.12392113 50.06308811 -25.2488889 52.12560644 -26.375 54.1875 C-26.87773437 55.10917969 -27.38046875 56.03085938 -27.8984375 56.98046875 C-28.26195312 57.64691406 -28.62546875 58.31335938 -29 59 C-29.33 59 -29.66 59 -30 59 C-29.67 55.7 -29.34 52.4 -29 49 C-29.66 48.67 -30.32 48.34 -31 48 C-30.375 45.5625 -30.375 45.5625 -29 43 C-25.875 42.1875 -25.875 42.1875 -23 42 C-22.87625 41.401875 -22.7525 40.80375 -22.625 40.1875 C-22 38 -22 38 -20 35 C-19.34 35 -18.68 35 -18 35 C-18.0825 34.113125 -18.165 33.22625 -18.25 32.3125 C-17.9462411 28.28769461 -16.62767506 26.95613444 -14 24 C-13.89459074 21.78918149 -13.89459074 21.78918149 -15 19 C-13.35 19.33 -11.7 19.66 -10 20 C-9.67 18.35 -9.34 16.7 -9 15 C-8.34 15 -7.68 15 -7 15 C-7 12.69 -7 10.38 -7 8 C-6.34 8 -5.68 8 -5 8 C-5.66 6.68 -6.32 5.36 -7 4 C-6.030625 3.71125 -5.06125 3.4225 -4.0625 3.125 C-0.89335797 2.35785318 -0.89335797 2.35785318 0 0 Z " fill="#A268EA" transform="translate(423,166)"/>
<path d="M0 0 C0.66 0.99 1.32 1.98 2 3 C1.34 4.32 0.68 5.64 0 7 C1.9254644 9.2236068 1.9254644 9.2236068 5 10 C5.6875 12.0625 5.6875 12.0625 6 14 C6.66 14 7.32 14 8 14 C8 14.66 8 15.32 8 16 C8.66 16.33 9.32 16.66 10 17 C9.70029297 17.84884766 9.70029297 17.84884766 9.39453125 18.71484375 C8.67526831 22.88087168 10.93984077 26.45571291 13 30 C14.30144802 31.04115841 15.62797869 32.05377841 17 33 C17.6875 35.375 17.6875 35.375 18 38 C18.185625 38.928125 18.37125 39.85625 18.5625 40.8125 C18.706875 41.534375 18.85125 42.25625 19 43 C20.98 43.33 22.96 43.66 25 44 C25.66 41.69 26.32 39.38 27 37 C28.32 37.66 29.64 38.32 31 39 C30.74438677 41.3431213 30.40729228 43.67843403 30 46 C26.3986912 47.8006544 22.87484117 48.12389997 19 47 C16.31176464 44.01176463 14.71976777 40.60938915 13 37 C12.32449804 35.80563422 11.63855303 34.61704955 10.9375 33.4375 C9.13334126 30.2365732 7.34345073 27.02893082 5.57421875 23.80859375 C4.28808197 21.51397255 2.97468799 19.24174716 1.64453125 16.97265625 C1.23033936 16.25779053 0.81614746 15.5429248 0.3894043 14.80639648 C-0.44608234 13.36498442 -1.28955155 11.92816659 -2.14135742 10.49633789 C-3.17205206 8.70684434 -4.09485996 6.85616275 -5 5 C-4.67 4.01 -4.34 3.02 -4 2 C-2.68 2 -1.36 2 0 2 C0 1.34 0 0.68 0 0 Z " fill="#C06FEA" transform="translate(310,276)"/>
<path d="M0 0 C1.046875 1.875 1.046875 1.875 2 4 C1.25 6 1.25 6 0 8 C-0.37125 8.7425 -0.7425 9.485 -1.125 10.25 C-1.41375 10.8275 -1.7025 11.405 -2 12 C-1.34 12.66 -0.68 13.32 0 14 C-0.495 14.45375 -0.99 14.9075 -1.5 15.375 C-3.22609337 16.87635519 -3.22609337 16.87635519 -3 19 C-4.32 19 -5.64 19 -7 19 C-7.02578125 19.69867188 -7.0515625 20.39734375 -7.078125 21.1171875 C-7.13484375 22.02726562 -7.1915625 22.93734375 -7.25 23.875 C-7.31960938 25.23238281 -7.31960938 25.23238281 -7.390625 26.6171875 C-8 29 -8 29 -9.98046875 30.18359375 C-10.64691406 30.45300781 -11.31335938 30.72242188 -12 31 C-13.15020525 33.24743756 -13.15020525 33.24743756 -14 36 C-14.495 37.134375 -14.99 38.26875 -15.5 39.4375 C-17.02901166 42.86979454 -17.02901166 42.86979454 -17.875 46.0625 C-18.9234125 48.80002152 -19.71770329 49.96233059 -21.625 52.0625 C-24.2105446 55.26041043 -24.32603172 56.08761938 -24 60 C-24.66 60.66 -25.32 61.32 -26 62 C-26.268125 62.61875 -26.53625 63.2375 -26.8125 63.875 C-28.36870466 66.65978728 -30.45565184 68.12521715 -33 70 C-32.67 68.02 -32.34 66.04 -32 64 C-31.34 64 -30.68 64 -30 64 C-30.103125 63.34 -30.20625 62.68 -30.3125 62 C-29.91912303 58.22358106 -28.39429515 56.2416689 -26.3125 53.13671875 C-24.33269586 49.91364475 -23.21286274 46.57475335 -22 43 C-21.34 43 -20.68 43 -20 43 C-19.81824219 42.40832031 -19.63648438 41.81664062 -19.44921875 41.20703125 C-18.03163961 36.75074401 -16.50736598 32.96999613 -14 29 C-13.46367073 27.75656995 -12.94349212 26.50608094 -12.4375 25.25 C-11 22 -11 22 -9 21 C-8.51720214 19.33539695 -8.04052624 17.66865012 -7.60253906 15.99169922 C-6.59305147 12.65482733 -4.98041319 9.64606801 -3.375 6.5625 C-3.05015625 5.92634766 -2.7253125 5.29019531 -2.390625 4.63476562 C-1.59928647 3.08700056 -0.8004333 1.5430813 0 0 Z " fill="#AA57E1" transform="translate(392,165)"/>
<path d="M0 0 C0.33 0 0.66 0 1 0 C1.125 7.75 1.125 7.75 0 10 C-0.31432523 13.11269291 -0.51089874 16.22617578 -0.71875 19.34765625 C-1 22 -1 22 -2 23 C-2.23287008 24.68183948 -2.41264166 26.3712416 -2.5625 28.0625 C-2.68818359 29.44115234 -2.68818359 29.44115234 -2.81640625 30.84765625 C-2.87699219 31.55792969 -2.93757813 32.26820313 -3 33 C-3.66 33 -4.32 33 -5 33 C-5 33.928125 -5 34.85625 -5 35.8125 C-5 37.875 -5 39.9375 -5 42 C-4.34 42.33 -3.68 42.66 -3 43 C-2.34 42.01 -1.68 41.02 -1 40 C0.32 40 1.64 40 3 40 C3.33 38.68 3.66 37.36 4 36 C4.66 36.33 5.32 36.66 6 37 C4.71078784 39.60540782 3.41874404 42.20934373 2.125 44.8125 C1.76019531 45.55048828 1.39539063 46.28847656 1.01953125 47.04882812 C0.66503906 47.76103516 0.31054688 48.47324219 -0.0546875 49.20703125 C-0.54171143 50.18893433 -0.54171143 50.18893433 -1.03857422 51.19067383 C-2 53 -2 53 -4 56 C-6.5625 56.25 -6.5625 56.25 -9 56 C-9.33 55.67 -9.66 55.34 -10 55 C-9.96164498 53.26812329 -9.84349547 51.5377633 -9.6875 49.8125 C-9.56955078 48.39904297 -9.56955078 48.39904297 -9.44921875 46.95703125 C-8.96742025 43.78554028 -8.0175564 41.04168838 -7 38 C-6.22903856 34.76629522 -5.58139113 31.51107597 -4.9375 28.25 C-4.67743164 26.98542969 -4.67743164 26.98542969 -4.41210938 25.6953125 C-3.3882599 20.56429672 -2.67463485 15.49473259 -2.25439453 10.27880859 C-1.85959259 6.74226223 -0.95138029 3.42496903 0 0 Z " fill="#FCAD07" transform="translate(340,222)"/>
<path d="M0 0 C1.32 0.33 2.64 0.66 4 1 C3.01 3.31 2.02 5.62 1 8 C0.34 8 -0.32 8 -1 8 C-1.2475 8.66 -1.495 9.32 -1.75 10 C-3.01609329 13.03862391 -4.42901878 15.94522286 -5.93359375 18.87109375 C-6.65102254 20.30332338 -7.3304615 21.75515099 -7.97265625 23.22265625 C-10.43229709 28.70954735 -10.43229709 28.70954735 -13.6875 30.375 C-14.450625 30.58125 -15.21375 30.7875 -16 31 C-16.33 31.66 -16.66 32.32 -17 33 C-17.66 32.67 -18.32 32.34 -19 32 C-19 33.65 -19 35.3 -19 37 C-19.99 37.495 -19.99 37.495 -21 38 C-21.83507667 35.07723164 -22.05450569 33.23982504 -21.375 30.25 C-20 28 -20 28 -17.375 27.1875 C-16.59125 27.125625 -15.8075 27.06375 -15 27 C-15 24.69 -15 22.38 -15 20 C-13.68 19.34 -12.36 18.68 -11 18 C-11 18.66 -11 19.32 -11 20 C-10.34 19.67 -9.68 19.34 -9 19 C-8.34786708 16.97536745 -8.34786708 16.97536745 -8 15 C-7.34 15 -6.68 15 -6 15 C-6.33 12.03 -6.66 9.06 -7 6 C-3 4 -3 4 0 3 C0 2.01 0 1.02 0 0 Z " fill="#B562EC" transform="translate(383,236)"/>
<path d="M0 0 C1.44632812 -0.00386719 1.44632812 -0.00386719 2.921875 -0.0078125 C5.25 0.125 5.25 0.125 6.25 1.125 C6.09550243 6.66314367 4.92670682 11.87131862 3.25 17.125 C2.92 17.125 2.59 17.125 2.25 17.125 C1.88736141 11.3227825 2.99315457 7.48500789 5.25 2.125 C0.96 2.125 -3.33 2.125 -7.75 2.125 C-7.75 2.785 -7.75 3.445 -7.75 4.125 C-11.42410785 5.30071451 -14.91929183 5.19866746 -18.75 5.125 C-18.75 5.785 -18.75 6.445 -18.75 7.125 C-25.63517459 8.52100981 -32.40054501 9.43718086 -39.4140625 9.87890625 C-41.70758866 9.87287847 -41.70758866 9.87287847 -42.75 11.125 C-45.44235776 11.36178716 -48.11498156 11.54698025 -50.8125 11.6875 C-51.95041992 11.75227539 -51.95041992 11.75227539 -53.11132812 11.81835938 C-54.99065438 11.92473633 -56.87030244 12.02539934 -58.75 12.125 C-58.75 11.795 -58.75 11.465 -58.75 11.125 C-40.53676333 7.16309213 -40.53676333 7.16309213 -33.0625 6.125 C-26.67539832 5.2148995 -20.51435953 3.65699712 -14.28125 2.02734375 C-9.39088703 0.77770454 -5.05815258 -0.01367068 0 0 Z " fill="#F9EB97" transform="translate(391.75,51.875)"/>
<path d="M0 0 C0.99 0.33 1.98 0.66 3 1 C3 1.99 3 2.98 3 4 C4.65 4 6.3 4 8 4 C7.2884375 4.86625 7.2884375 4.86625 6.5625 5.75 C5.0515133 7.92582084 4.45963849 9.42602448 4 12 C3.34 12 2.68 12 2 12 C2 14.97 2 17.94 2 21 C1.34 21 0.68 21 0 21 C-0.81964132 24.92098688 -1.46246235 28.85225152 -2.0625 32.8125 C-2.32740234 34.55466797 -2.32740234 34.55466797 -2.59765625 36.33203125 C-2.73042969 37.21246094 -2.86320312 38.09289062 -3 39 C-3.66 39 -4.32 39 -5 39 C-5 40.98 -5 42.96 -5 45 C-2.69 44.34 -0.38 43.68 2 43 C1.67 42.34 1.34 41.68 1 41 C4.63 41 8.26 41 12 41 C10 43 10 43 6.875 43.125 C5.92625 43.08375 4.9775 43.0425 4 43 C4 43.66 4 44.32 4 45 C0.78548731 46.60725635 -2.43612536 46.05748185 -6 46 C-6.47996398 36.72069637 -4.24172341 28.29130786 -2.1328125 19.3046875 C-0.63414011 12.69625591 0.35059495 6.77816901 0 0 Z " fill="#F3B836" transform="translate(324,169)"/>
<path d="M0 0 C1.32 0 2.64 0 4 0 C4 0.66 4 1.32 4 2 C4.99 2.33 5.98 2.66 7 3 C7.33 4.65 7.66 6.3 8 8 C10.94729537 9.15811388 10.94729537 9.15811388 14 9 C16.53128689 17.06847698 16.53128689 17.06847698 16 21 C15.0364316 22.35989474 14.03948517 23.69721515 13 25 C12.47212891 24.01773438 12.47212891 24.01773438 11.93359375 23.015625 C8.53491542 16.73295069 4.99900569 10.55678652 1.3203125 4.43359375 C0 2 0 2 0 0 Z " fill="#7096F8" transform="translate(232,151)"/>
<path d="M0 0 C0.66 0 1.32 0 2 0 C1.67 1.65 1.34 3.3 1 5 C1.61875 5.28875 2.2375 5.5775 2.875 5.875 C5 7 5 7 7 9 C8.31747324 9.69748583 9.64914193 10.36959957 11 11 C10.67 12.65 10.34 14.3 10 16 C9.34 16 8.68 16 8 16 C8 16.66 8 17.32 8 18 C3.92296284 17.81037036 2.24782644 17.21550125 -0.875 14.5 C-3.82636291 10.63399746 -3.46555329 6.65553289 -3 2 C-2.01 2 -1.02 2 0 2 C0 1.34 0 0.68 0 0 Z " fill="#5BB2FB" transform="translate(214,106)"/>
<path d="M0 0 C-0.33 2.31 -0.66 4.62 -1 7 C-1.33 6.01 -1.66 5.02 -2 4 C-2.66 4 -3.32 4 -4 4 C-4.33 4.66 -4.66 5.32 -5 6 C-7.50390625 6.4140625 -7.50390625 6.4140625 -10.5625 6.625 C-11.57441406 6.69976562 -12.58632813 6.77453125 -13.62890625 6.8515625 C-14.41136719 6.90054688 -15.19382812 6.94953125 -16 7 C-16 6.34 -16 5.68 -16 5 C-17.65 5.33 -19.3 5.66 -21 6 C-21 6.66 -21 7.32 -21 8 C-22.98 8.99 -22.98 8.99 -25 10 C-25.33 9.34 -25.66 8.68 -26 8 C-25.34 6.35 -24.68 4.7 -24 3 C-18.555 2.505 -18.555 2.505 -13 2 C-13 1.34 -13 0.68 -13 0 C-8.85529486 -1.32630565 -3.96769422 -1.98384711 0 0 Z " fill="#FDE154" transform="translate(397,54)"/>
<path d="M0 0 C0.99 0.66 1.98 1.32 3 2 C2.79375 2.9075 2.5875 3.815 2.375 4.75 C1.7134342 7.88252582 1.7134342 7.88252582 3 10 C4.43668403 12.87336805 3.69321888 14.94983694 3 18 C2.34 17.67 1.68 17.34 1 17 C1 16.34 1 15.68 1 15 C0.34 15 -0.32 15 -1 15 C-1 14.01 -1 13.02 -1 12 C-2.65 12 -4.3 12 -6 12 C-6.33 11.01 -6.66 10.02 -7 9 C-7.66 8.67 -8.32 8.34 -9 8 C-9 7.01 -9 6.02 -9 5 C-8.34 5 -7.68 5 -7 5 C-7.33 3.68 -7.66 2.36 -8 1 C-5.125 0.875 -5.125 0.875 -2 1 C-1.34 1.66 -0.68 2.32 0 3 C0 2.01 0 1.02 0 0 Z " fill="#FDC018" transform="translate(333,161)"/>
<path d="M0 0 C0.66 0.99 1.32 1.98 2 3 C1.34 4.32 0.68 5.64 0 7 C1.9254644 9.2236068 1.9254644 9.2236068 5 10 C5.6875 12.0625 5.6875 12.0625 6 14 C6.66 14 7.32 14 8 14 C8 14.66 8 15.32 8 16 C8.66 16.33 9.32 16.66 10 17 C9.67 19.97 9.34 22.94 9 26 C4.87285674 24.62428558 4.51621487 22.69540457 2.5625 18.875 C0.63846976 15.14209598 -1.28946997 11.44881858 -3.5 7.875 C-3.995 6.92625 -4.49 5.9775 -5 5 C-4.67 4.01 -4.34 3.02 -4 2 C-2.68 2 -1.36 2 0 2 C0 1.34 0 0.68 0 0 Z " fill="#BE6FEE" transform="translate(310,276)"/>
<path d="M0 0 C0 0.66 0 1.32 0 2 C-4.93961603 4.28549398 -9.47327703 4.40529332 -14.84375 4.65625 C-17.96513576 4.9962029 -20.13082832 5.786646 -23 7 C-24.92792077 7.42148875 -26.8665317 7.79676438 -28.8125 8.125 C-29.78832031 8.29257813 -30.76414062 8.46015625 -31.76953125 8.6328125 C-32.87361328 8.81457031 -32.87361328 8.81457031 -34 9 C-34.72413373 12.31143006 -35.16354255 15.47844221 -35.31640625 18.86328125 C-35.35830078 19.74951172 -35.40019531 20.63574219 -35.44335938 21.54882812 C-35.50233398 22.9168457 -35.50233398 22.9168457 -35.5625 24.3125 C-35.60568359 25.24384766 -35.64886719 26.17519531 -35.69335938 27.13476562 C-35.79897225 29.42304454 -35.90107752 31.71142372 -36 34 C-36.66 33.67 -37.32 33.34 -38 33 C-37.88928305 29.79100859 -37.75885687 26.58310291 -37.625 23.375 C-37.5940625 22.47136719 -37.563125 21.56773438 -37.53125 20.63671875 C-37.31947087 15.80109523 -37.06900505 11.46173198 -35 7 C-31.7780272 4.85201813 -29.74925851 4.40376718 -25.9765625 3.7109375 C-24.790625 3.49179688 -23.6046875 3.27265625 -22.3828125 3.046875 C-21.14273437 2.82515625 -19.90265625 2.6034375 -18.625 2.375 C-17.39265625 2.14554687 -16.1603125 1.91609375 -14.890625 1.6796875 C-4.8622242 -0.1476133 -4.8622242 -0.1476133 0 0 Z " fill="#F8ECA2" transform="translate(332,64)"/>
<path d="M0 0 C1 1 1 1 1.25 3.8125 C1.19515967 8.30026703 -0.0530919 12.41784462 -1.203125 16.73046875 C-2.27986421 21.14826639 -2.93471408 25.59047598 -3.5703125 30.08984375 C-3.96311863 32.75021251 -4.44758022 35.36873738 -5 38 C-5.33 38 -5.66 38 -6 38 C-6.35967961 30.48669256 -5.80541415 24.01264199 -3.65625 16.7890625 C-2.77554329 13.04605898 -2.24240356 9.51519287 -4 6 C-3.34 6 -2.68 6 -2 6 C-2.66 5.34 -3.32 4.68 -4 4 C-4.99 4 -5.98 4 -7 4 C-9 4 -11 4 -13 4 C-13 3.34 -13 2.68 -13 2 C-4.21276596 -0.38297872 -4.21276596 -0.38297872 0 0 Z " fill="#A960CC" transform="translate(341,210)"/>
<path d="M0 0 C0 0.33 0 0.66 0 1 C-1.93742341 1.02703381 -3.87495479 1.04641125 -5.8125 1.0625 C-6.89144531 1.07410156 -7.97039062 1.08570312 -9.08203125 1.09765625 C-12 1 -12 1 -15 0 C-16.66249186 -0.22148329 -18.33014181 -0.40595079 -20 -0.5625 C-20.86625 -0.64628906 -21.7325 -0.73007813 -22.625 -0.81640625 C-25.10149848 -1.03853635 -25.10149848 -1.03853635 -28 -1 C-29.44956522 -1.46386087 -30.88652207 -1.96802896 -32.3125 -2.5 C-36.93611909 -4.08373966 -40.71776003 -4.96094315 -45.375 -3 C-45.91125 -2.67 -46.4475 -2.34 -47 -2 C-42.00573695 -13.05872532 -10.19277489 -2.0919669 0 0 Z " fill="#81C7F0" transform="translate(245,88)"/>
<path d="M0 0 C0.33 0 0.66 0 1 0 C1.09408318 10.69412161 1.09401242 21.32534057 0.35791016 31.99755859 C-0.08781171 38.67373194 -0.09540915 45.31075858 0 52 C-0.99 52 -1.98 52 -3 52 C-3.22346404 49.14630381 -3.42913552 46.29311502 -3.625 43.4375 C-3.68945312 42.63763672 -3.75390625 41.83777344 -3.8203125 41.01367188 C-4.16076989 35.80041809 -3.46178114 32.05358624 -2 27 C-1.46588507 22.36498743 -1.17283036 17.7179303 -0.875 13.0625 C-0.74544922 11.17821289 -0.74544922 11.17821289 -0.61328125 9.25585938 C-0.40214755 6.1709614 -0.19793214 3.08576842 0 0 Z " fill="#908CC1" transform="translate(292,122)"/>
<path d="M0 0 C0.33 0 0.66 0 1 0 C1.37529138 6.37995338 1.37529138 6.37995338 -0.4375 9.375 C-2.65003175 13.09205334 -2.73109016 16.7438063 -3 21 C-3.66 21 -4.32 21 -5 21 C-5 21.99 -5 22.98 -5 24 C-0.38 24 4.24 24 9 24 C9 23.34 9 22.68 9 22 C12.63 22 16.26 22 20 22 C20 22.33 20 22.66 20 23 C18.94039063 23.20496094 17.88078125 23.40992187 16.7890625 23.62109375 C15.40101178 23.89307666 14.01299256 24.16522044 12.625 24.4375 C11.92632812 24.57220703 11.22765625 24.70691406 10.5078125 24.84570312 C6.64371266 25.5772422 6.64371266 25.5772422 3 27 C0.30986661 27.18704404 -2.29686177 27.08581391 -5 27 C-6 26 -6 26 -6.21484375 22.98828125 C-5.96794531 18.40494837 -4.9329726 14.54054383 -3.5625 10.1875 C-3.33240234 9.42501953 -3.10230469 8.66253906 -2.86523438 7.87695312 C-1.1860119 2.37202381 -1.1860119 2.37202381 0 0 Z " fill="#A58DAB" transform="translate(386,95)"/>
<path d="M0 0 C11.52164009 -0.18451025 11.52164009 -0.18451025 17 1 C17.15392039 9.38011029 16.68271293 17.64895793 16 26 C15.67 26 15.34 26 15 26 C14.67 20.06 14.34 14.12 14 8 C12.35 7.67 10.7 7.34 9 7 C7.6875 4.4375 7.6875 4.4375 7 2 C4.69 1.67 2.38 1.34 0 1 C0 0.67 0 0.34 0 0 Z " fill="#7EA6D3" transform="translate(278,96)"/>
<path d="M0 0 C1.11346788 2.80033839 1.03510273 3.90143703 0.00390625 6.796875 C-0.47175781 7.77140625 -0.94742187 8.7459375 -1.4375 9.75 C-1.91058594 10.73484375 -2.38367188 11.7196875 -2.87109375 12.734375 C-3.24363281 13.48203125 -3.61617188 14.2296875 -4 15 C-4.66 15 -5.32 15 -6 15 C-6.33 13.68 -6.66 12.36 -7 11 C-6.01 11 -5.02 11 -4 11 C-4.37125 10.443125 -4.7425 9.88625 -5.125 9.3125 C-6 7 -6 7 -5.125 4.25 C-4.75375 3.5075 -4.3825 2.765 -4 2 C-6.64 2 -9.28 2 -12 2 C-12 2.66 -12 3.32 -12 4 C-18.435 4.495 -18.435 4.495 -25 5 C-22.31226571 2.31226571 -19.48098789 2.05714324 -15.875 1.375 C-15.20009521 1.24311279 -14.52519043 1.11122559 -13.82983398 0.9753418 C-9.11697748 0.0980961 -4.77257336 -0.29219837 0 0 Z " fill="#F1C357" transform="translate(414,117)"/>
<path d="M0 0 C0.66 0 1.32 0 2 0 C1.67 1.98 1.34 3.96 1 6 C0.34 6 -0.32 6 -1 6 C-0.649375 6.7425 -0.29875 7.485 0.0625 8.25 C1.04509293 11.1322726 1.0326802 12.21176345 0 15 C-0.928125 15.12375 -0.928125 15.12375 -1.875 15.25 C-4.16088794 15.80583476 -4.16088794 15.80583476 -5.1875 17.9375 C-5.455625 18.618125 -5.72375 19.29875 -6 20 C-6.33 20.66 -6.66 21.32 -7 22 C-7.66 22 -8.32 22 -9 22 C-9 22.99 -9 23.98 -9 25 C-9.66 25 -10.32 25 -11 25 C-11.12375 25.5775 -11.2475 26.155 -11.375 26.75 C-12.00648824 29.02335767 -12.88858191 30.9253529 -14 33 C-14.33 32.34 -14.66 31.68 -15 31 C-14.06421005 28.64018187 -13.06652192 26.30368736 -12 24 C-11.34 24 -10.68 24 -10 24 C-9.81642944 23.15743652 -9.81642944 23.15743652 -9.62915039 22.29785156 C-8.94581 19.80208137 -8.00537179 17.5892676 -6.93359375 15.234375 C-6.3293457 13.90019531 -6.3293457 13.90019531 -5.71289062 12.5390625 C-5.29201172 11.61867187 -4.87113281 10.69828125 -4.4375 9.75 C-4.01275391 8.81414062 -3.58800781 7.87828125 -3.15039062 6.9140625 C-2.10324814 4.6079959 -1.05302193 2.30338632 0 0 Z " fill="#A26ECE" transform="translate(408,132)"/>
<path d="M0 0 C0.33 0 0.66 0 1 0 C1.50449118 6.12483824 0.13989403 9.42533807 -3 14.4375 C-3.3815625 15.07365234 -3.763125 15.70980469 -4.15625 16.36523438 C-5.09051499 17.91844992 -6.04338556 19.46044863 -7 21 C-7.33 21 -7.66 21 -8 21 C-7.67 17.7 -7.34 14.4 -7 11 C-7.66 10.67 -8.32 10.34 -9 10 C-8.375 7.5625 -8.375 7.5625 -7 5 C-3.875 4.1875 -3.875 4.1875 -1 4 C-0.67 2.68 -0.34 1.36 0 0 Z " fill="#BA77EF" transform="translate(401,204)"/>
<path d="M0 0 C0.33 0 0.66 0 1 0 C1.125 7.75 1.125 7.75 0 10 C-0.31432523 13.11269291 -0.51089874 16.22617578 -0.71875 19.34765625 C-1 22 -1 22 -2 23 C-2.23287008 24.68183948 -2.41264166 26.3712416 -2.5625 28.0625 C-2.68818359 29.44115234 -2.68818359 29.44115234 -2.81640625 30.84765625 C-2.87699219 31.55792969 -2.93757813 32.26820313 -3 33 C-3.66 33 -4.32 33 -5 33 C-4.979375 33.969375 -4.95875 34.93875 -4.9375 35.9375 C-5 39 -5 39 -6 40 C-6.23287008 41.68183948 -6.41264166 43.3712416 -6.5625 45.0625 C-6.64628906 45.98160156 -6.73007812 46.90070313 -6.81640625 47.84765625 C-6.87699219 48.55792969 -6.93757813 49.26820313 -7 50 C-7.66 50 -8.32 50 -9 50 C-9 51.65 -9 53.3 -9 55 C-9.33 55 -9.66 55 -10 55 C-9.88444496 53.29100181 -9.75706997 51.58280131 -9.625 49.875 C-9.55539062 48.92367187 -9.48578125 47.97234375 -9.4140625 46.9921875 C-8.97039174 43.78603839 -8.03101589 41.06717988 -7 38 C-6.2286161 34.76639915 -5.58139007 31.51107061 -4.9375 28.25 C-4.67743164 26.98542969 -4.67743164 26.98542969 -4.41210938 25.6953125 C-3.3882599 20.56429672 -2.67463485 15.49473259 -2.25439453 10.27880859 C-1.85959259 6.74226223 -0.95138029 3.42496903 0 0 Z " fill="#F3A052" transform="translate(340,222)"/>
<path d="M0 0 C5.625 -0.25 5.625 -0.25 9 2 C9.70052461 4.663063 9.77744818 7.24035737 10 10 C10.66 10 11.32 10 12 10 C12 11.98 12 13.96 12 16 C11.401875 15.773125 10.80375 15.54625 10.1875 15.3125 C9.465625 15.209375 8.74375 15.10625 8 15 C7.01 15.99 6.02 16.98 5 18 C5 12.72 5 7.44 5 2 C3.35 1.67 1.7 1.34 0 1 C0 0.67 0 0.34 0 0 Z " fill="#F6AE27" transform="translate(336,209)"/>
<path d="M0 0 C1.32 0 2.64 0 4 0 C4.22200146 4.61346788 3.50459263 8.0856748 2 12.4375 C0.44374295 17.22682627 -0.46540737 20.99687074 0 26 C2.64 26.33 5.28 26.66 8 27 C8 27.33 8 27.66 8 28 C6.52093108 28.02689216 5.04172517 28.04634621 3.5625 28.0625 C2.32693359 28.07990234 2.32693359 28.07990234 1.06640625 28.09765625 C-1 28 -1 28 -2 27 C-2.07258946 24.81360547 -2.08373783 22.62499611 -2.0625 20.4375 C-2.05347656 19.23996094 -2.04445313 18.04242188 -2.03515625 16.80859375 C-2.02355469 15.88175781 -2.01195312 14.95492187 -2 14 C-1.34 14 -0.68 14 0 14 C0 11.36 0 8.72 0 6 C-1.32 5.67 -2.64 5.34 -4 5 C-2.25 2.5 -2.25 2.5 0 0 Z " fill="#F4CD4C" transform="translate(381,95)"/>
<path d="M0 0 C0.98484375 0.11988281 1.9696875 0.23976563 2.984375 0.36328125 C3.73203125 0.47027344 4.4796875 0.57726562 5.25 0.6875 C2.25 2.6875 2.25 2.6875 -0.75 2.6875 C-0.42 4.0075 -0.09 5.3275 0.25 6.6875 C-0.74 7.1825 -0.74 7.1825 -1.75 7.6875 C-2.41 7.3575 -3.07 7.0275 -3.75 6.6875 C-3.75 7.3475 -3.75 8.0075 -3.75 8.6875 C-4.74 9.0175 -5.73 9.3475 -6.75 9.6875 C-7.41 9.3575 -8.07 9.0275 -8.75 8.6875 C-9.375 5.625 -9.375 5.625 -9.75 2.6875 C-6.40914528 -0.40676782 -4.45291069 -0.58311926 0 0 Z " fill="#55BCFB" transform="translate(207.75,83.3125)"/>
<path d="M0 0 C-1.98 2.97 -1.98 2.97 -4 6 C-5.85625 5.7215625 -5.85625 5.7215625 -7.75 5.4375 C-10.85245637 5.03946957 -12.98296584 5.16771471 -16 6 C-18.75 5.5625 -18.75 5.5625 -21 5 C-21 4.34 -21 3.68 -21 3 C-20.1646875 2.81824219 -20.1646875 2.81824219 -19.3125 2.6328125 C-18.549375 2.46523437 -17.78625 2.29765625 -17 2.125 C-15.77216797 1.85623047 -15.77216797 1.85623047 -14.51953125 1.58203125 C-12.22118208 1.05109478 -9.96035346 0.44170802 -7.6875 -0.1875 C-4.24333737 -0.94638329 -3.16991554 -0.98666245 0 0 Z " fill="#FDDF47" transform="translate(324,68)"/>
<path d="M0 0 C0.33 0.66 0.66 1.32 1 2 C1.66 2.33 2.32 2.66 3 3 C2.34 3.66 1.68 4.32 1 5 C0.83318891 8.08347826 0.83318891 8.08347826 1 11 C0.195625 11.28875 -0.60875 11.5775 -1.4375 11.875 C-4.1326468 12.73262568 -4.1326468 12.73262568 -5 15 C-5.66 14.67 -6.32 14.34 -7 14 C-7 15.65 -7 17.3 -7 19 C-7.66 19.33 -8.32 19.66 -9 20 C-9.83507667 17.07723164 -10.05450569 15.23982504 -9.375 12.25 C-8 10 -8 10 -5.375 9.1875 C-4.59125 9.125625 -3.8075 9.06375 -3 9 C-3.061875 7.88625 -3.12375 6.7725 -3.1875 5.625 C-3.125625 4.42875 -3.06375 3.2325 -3 2 C-2.01 1.34 -1.02 0.68 0 0 Z " fill="#B641F7" transform="translate(371,254)"/>
<path d="M0 0 C0.33 1.32 0.66 2.64 1 4 C0.01 4.33 -0.98 4.66 -2 5 C-2.7136591 7.31939207 -3.3747292 9.65523449 -4 12 C-4.97383946 13.68208635 -5.97695052 15.34738161 -7 17 C-8.39392619 19.97404468 -9.70464248 22.98188272 -11 26 C-11.66 26 -12.32 26 -13 26 C-13.33 27.32 -13.66 28.64 -14 30 C-15.231394 27.53721199 -15.07159196 25.7204945 -15 23 C-14.01 23.33 -13.02 23.66 -12 24 C-12 23.21625 -12 22.4325 -12 21.625 C-12 18.57047733 -11.98387643 16.95162929 -11 14 C-10.01 14.33 -9.02 14.66 -8 15 C-8 14.01 -8 13.02 -8 12 C-7.01 11.34 -6.02 10.68 -5 10 C-3.94952356 7.68895182 -2.94992562 5.35416349 -2 3 C-1.34 2.01 -0.68 1.02 0 0 Z " fill="#F3AB3F" transform="translate(383,182)"/>
<path d="M0 0 C0.33 0 0.66 0 1 0 C1.28100502 7.16562789 0.20443195 13.94546999 -1 21 C-1.66 21 -2.32 21 -3 21 C-3 22.98 -3 24.96 -3 27 C-0.69 26.34 1.62 25.68 4 25 C3.67 24.34 3.34 23.68 3 23 C6.63 23 10.26 23 14 23 C12 25 12 25 8.875 25.125 C7.451875 25.063125 7.451875 25.063125 6 25 C6 25.66 6 26.32 6 27 C2.78548731 28.60725635 -0.43612536 28.05748185 -4 28 C-4.21581253 21.3165556 -3.49340613 15.44088006 -2 8.9375 C-1.80921875 8.07189453 -1.6184375 7.20628906 -1.421875 6.31445312 C-0.95630821 4.20776339 -0.47935439 2.10359536 0 0 Z " fill="#ECA958" transform="translate(322,187)"/>
<path d="M0 0 C2.31 0.66 4.62 1.32 7 2 C7.12375 2.556875 7.2475 3.11375 7.375 3.6875 C7.96196182 6.06961681 7.96196182 6.06961681 9.0625 8.5 C10 11 10 11 10 15 C10.66 15 11.32 15 12 15 C12.33 16.32 12.66 17.64 13 19 C12.01 19 11.02 19 10 19 C8.51762714 16.39761208 7.03899869 13.79321772 5.5625 11.1875 C4.93118164 10.08051758 4.93118164 10.08051758 4.28710938 8.95117188 C3.88427734 8.23896484 3.48144531 7.52675781 3.06640625 6.79296875 C2.69459229 6.1383667 2.32277832 5.48376465 1.93969727 4.80932617 C1 3 1 3 0 0 Z " fill="#87BBF0" transform="translate(215,122)"/>
<path d="M0 0 C0 0.66 0 1.32 0 2 C-4.53701494 3.45184478 -8.18061476 4.23509196 -13 4 C-13.33 4.66 -13.66 5.32 -14 6 C-14.99 5.67 -15.98 5.34 -17 5 C-17.33 5.99 -17.66 6.98 -18 8 C-18.99 8.33 -19.98 8.66 -21 9 C-21.66 8.67 -22.32 8.34 -23 8 C-23 6.68 -23 5.36 -23 4 C-15.34272564 1.05916274 -8.18432667 0 0 0 Z " fill="#9999EF" transform="translate(410,91)"/>
<path d="M0 0 C1.6396875 0.2165625 1.6396875 0.2165625 3.3125 0.4375 C6.58134006 0.85540775 9.83866716 1.13643658 13.125 1.375 C19.87751 1.95432927 26.40862834 3.47003198 33 5 C33 5.33 33 5.66 33 6 C30.4580411 6.05434116 27.91726318 6.0938339 25.375 6.125 C24.66214844 6.14175781 23.94929688 6.15851563 23.21484375 6.17578125 C18.71087799 6.21710204 15.26529626 5.60873168 11 4 C9.80375 3.855625 8.6075 3.71125 7.375 3.5625 C3.96619282 2.99436547 2.50124059 2.30114134 0 0 Z " fill="#93C3F1" transform="translate(252,90)"/>
<path d="M0 0 C2.50100643 7.50301929 -3.2921854 17.89370484 -6 25 C-4.35 25 -2.7 25 -1 25 C-1 25.33 -1 25.66 -1 26 C-2.98 26 -4.96 26 -7 26 C-7.33 26.66 -7.66 27.32 -8 28 C-8.33191856 23.57441919 -7.53646209 20.4413417 -5.859375 16.359375 C-4.45846498 12.51324021 -3.63995016 8.52859111 -2.74609375 4.5390625 C-2 2 -2 2 0 0 Z " fill="#F2DB78" transform="translate(393,69)"/>
<path d="M0 0 C3.3 0.33 6.6 0.66 10 1 C9.01 2.98 8.02 4.96 7 7 C4.03 6.67 1.06 6.34 -2 6 C-2.33 6.66 -2.66 7.32 -3 8 C-3.66 7.67 -4.32 7.34 -5 7 C-4.67 6.01 -4.34 5.02 -4 4 C-3.34 3.67 -2.68 3.34 -2 3 C-1.34 2.01 -0.68 1.02 0 0 Z " fill="#FCDE47" transform="translate(329,67)"/>
<path d="M0 0 C0.66 0 1.32 0 2 0 C1.67 1.65 1.34 3.3 1 5 C2.32 5.66 3.64 6.32 5 7 C4.505 7.763125 4.01 8.52625 3.5 9.3125 C1.75631692 11.92363751 1.75631692 11.92363751 2 15 C0 15 0 15 -1.625 13.5625 C-3.65451195 9.78022773 -3.24272259 6.20719164 -3 2 C-2.01 2 -1.02 2 0 2 C0 1.34 0 0.68 0 0 Z " fill="#5BB4F7" transform="translate(214,106)"/>
<path d="M0 0 C0 0.33 0 0.66 0 1 C-1.12019531 1.20496094 -2.24039062 1.40992187 -3.39453125 1.62109375 C-4.86720824 1.89311689 -6.33986336 2.16525849 -7.8125 2.4375 C-8.55048828 2.57220703 -9.28847656 2.70691406 -10.04882812 2.84570312 C-13.11315076 3.41419737 -16.03928953 4.01309651 -19 5 C-21.06145107 5.068991 -23.12501401 5.08467727 -25.1875 5.0625 C-26.81751953 5.04896484 -26.81751953 5.04896484 -28.48046875 5.03515625 C-29.31191406 5.02355469 -30.14335937 5.01195313 -31 5 C-26.42658706 2.4980741 -21.70315917 1.77595897 -16.625 0.8125 C-15.69171875 0.62236328 -14.7584375 0.43222656 -13.796875 0.23632812 C-8.90491317 -0.70256823 -4.91903451 -1.2914522 0 0 Z " fill="#B4ABEF" transform="translate(442,86)"/>
<path d="M0 0 C0.66 0 1.32 0 2 0 C1.33742578 7.72422049 0.23535374 15.34800303 -1 23 C1.64 23 4.28 23 7 23 C6.67 23.66 6.34 24.32 6 25 C3.36 25 0.72 25 -2 25 C-3.69943922 16.50280392 -2.72814189 8.18442568 0 0 Z " fill="#A36FC3" transform="translate(319,192)"/>
<path d="M0 0 C0.66 0 1.32 0 2 0 C2.98031228 2.56113 3.20375036 4.38755652 2.33251953 7.00634766 C1.30185954 9.30936429 0.20367259 11.56222083 -0.9375 13.8125 C-1.32357422 14.60076172 -1.70964844 15.38902344 -2.10742188 16.20117188 C-3.05931015 18.14020354 -4.02803338 20.07095465 -5 22 C-5.33 22 -5.66 22 -6 22 C-6 20.35 -6 18.7 -6 17 C-5.34 17 -4.68 17 -4 17 C-3.96261719 16.35933594 -3.92523438 15.71867188 -3.88671875 15.05859375 C-3.45662723 9.39993859 -2.53913094 5.07826187 0 0 Z " fill="#F8C334" transform="translate(405,130)"/>
<path d="M0 0 C1.16796875 1.6953125 1.16796875 1.6953125 2 4 C0.98828125 6.3671875 0.98828125 6.3671875 -0.6875 8.875 C-3.0434665 12.51946992 -5.144009 16.08179677 -7 20 C-7.33 20 -7.66 20 -8 20 C-8 17.69 -8 15.38 -8 13 C-7.01 12.67 -6.02 12.34 -5 12 C-5.0825 11.113125 -5.165 10.22625 -5.25 9.3125 C-4.91843852 4.91931034 -3.02874449 3.02874449 0 0 Z " fill="#BA7CF1" transform="translate(410,189)"/>
<path d="M0 0 C0.391875 0.556875 0.78375 1.11375 1.1875 1.6875 C2.95817158 4.13536679 2.95817158 4.13536679 5.625 6.0625 C9.09845198 10.35861166 8.89629268 14.61664711 9 20 C4.28633921 17.64316961 2.00016109 10.28064725 0.125 5.5625 C-1 2 -1 2 0 0 Z " fill="#C56DF0" transform="translate(319,300)"/>
<path d="M0 0 C2.475 0.99 2.475 0.99 5 2 C5 3.66666667 5 5.33333333 5 7 C6.9600281 8.63676257 6.9600281 8.63676257 9 10 C6 12 6 12 4 12 C0.83629322 10.41814661 0.18375165 8.23974136 -1 5 C-0.6875 2.125 -0.6875 2.125 0 0 Z " fill="#A65EF2" transform="translate(299,264)"/>
<path d="M0 0 C1.58927373 5.09239119 -0.36380125 9.09140374 -2 14 C-1.34 14.33 -0.68 14.66 0 15 C-0.8971875 15.061875 -0.8971875 15.061875 -1.8125 15.125 C-4.35100832 15.87739901 -4.35100832 15.87739901 -5.75 19.0625 C-6.36875 20.5165625 -6.36875 20.5165625 -7 22 C-7.66 22 -8.32 22 -9 22 C-7.87981126 17.42589597 -6.48700793 13.91000371 -4.01953125 9.84375 C-2.28394586 6.70506683 -1.18567892 3.37918492 0 0 Z " fill="#B856C7" transform="translate(358,232)"/>
<path d="M0 0 C1.98 0 3.96 0 6 0 C6.33 0.66 6.66 1.32 7 2 C6.34 2 5.68 2 5 2 C5 2.99 5 3.98 5 5 C4.01 5 3.02 5 2 5 C2.309375 6.11375 2.309375 6.11375 2.625 7.25 C3.04408751 10.32330841 2.61949011 11.42786866 1 14 C0.01 13.67 -0.98 13.34 -2 13 C-2.16682272 8.07872966 -2.24828052 4.49656104 0 0 Z " fill="#FCB60E" transform="translate(370,192)"/>
<path d="M0 0 C0.66 0.66 1.32 1.32 2 2 C1.52949219 2.78503906 1.05898438 3.57007813 0.57421875 4.37890625 C-2.64634922 9.81319797 -5.72142875 15.10252148 -8 21 C-8.33 21 -8.66 21 -9 21 C-9.63265306 12.7755102 -9.63265306 12.7755102 -7.0625 9.625 C-6.381875 9.08875 -5.70125 8.5525 -5 8 C-4.67 7.01 -4.34 6.02 -4 5 C-3.34 5 -2.68 5 -2 5 C-2 4.01 -2 3.02 -2 2 C-1.34 2 -0.68 2 0 2 C0 1.34 0 0.68 0 0 Z " fill="#B188EC" transform="translate(437,142)"/>
<path d="M0 0 C0.66 0.99 1.32 1.98 2 3 C1.34 4.32 0.68 5.64 0 7 C1.9254644 9.2236068 1.9254644 9.2236068 5 10 C5 10.66 5 11.32 5 12 C4.34 12 3.68 12 3 12 C3 12.66 3 13.32 3 14 C2.01 14 1.02 14 0 14 C-0.86646667 12.56988027 -1.71781829 11.13059381 -2.5625 9.6875 C-3.03816406 8.88699219 -3.51382812 8.08648437 -4.00390625 7.26171875 C-5 5 -5 5 -4 2 C-2.68 2 -1.36 2 0 2 C0 1.34 0 0.68 0 0 Z " fill="#BB71F2" transform="translate(310,276)"/>
<path d="M0 0 C1.32 0.99 2.64 1.98 4 3 C4.66 2.67 5.32 2.34 6 2 C6.144375 2.886875 6.28875 3.77375 6.4375 4.6875 C6.91019978 7.47117646 7.43070185 10.23483757 8 13 C5.39611102 12.62642278 4.25705243 12.28877098 2.48046875 10.29296875 C2.05378906 9.59816406 1.62710937 8.90335938 1.1875 8.1875 C0.74792969 7.50042969 0.30835938 6.81335938 -0.14453125 6.10546875 C-1.15965671 3.60705494 -0.91191297 2.48957835 0 0 Z " fill="#A875F2" transform="translate(288,246)"/>
<path d="M0 0 C1 3 1 3 -0.36328125 5.99609375 C-1.32814453 7.69958984 -1.32814453 7.69958984 -2.3125 9.4375 C-2.94800781 10.57058594 -3.58351563 11.70367187 -4.23828125 12.87109375 C-4.81964844 13.90363281 -5.40101563 14.93617188 -6 16 C-6.66 17.32 -7.32 18.64 -8 20 C-7.505 15.545 -7.505 15.545 -7 11 C-8.32 10.67 -9.64 10.34 -11 10 C-10.67 8.68 -10.34 7.36 -10 6 C-7.03 6.495 -7.03 6.495 -4 7 C-2.68 4.69 -1.36 2.38 0 0 Z " fill="#F7BB40" transform="translate(395,156)"/>
<path d="M0 0 C0.66 0.99 1.32 1.98 2 3 C1.01 3 0.02 3 -1 3 C-1.86625 3.185625 -2.7325 3.37125 -3.625 3.5625 C-7.89231666 4.11567068 -11.76303121 3.6120066 -16 3 C-15 1 -15 1 -13.14453125 0.33203125 C-8.50620989 -0.70129662 -4.65636484 -1.47640836 0 0 Z " fill="#8F79EF" transform="translate(465,82)"/>
<path d="M0 0 C1.32 0 2.64 0 4 0 C4 0.66 4 1.32 4 2 C4.99 2.33 5.98 2.66 7 3 C7.84454356 6.37817425 8.10844919 8.67465243 7 12 C7.66 12.33 8.32 12.66 9 13 C8.01 13 7.02 13 6 13 C4.99491199 11.21118264 3.99607264 9.41885304 3 7.625 C2.1646875 6.12839844 2.1646875 6.12839844 1.3125 4.6015625 C0 2 0 2 0 0 Z " fill="#8DB0F6" transform="translate(232,151)"/>
<path d="M0 0 C1 1 1 1 1.25 4.1875 C1.20319586 10.58796573 -0.53786168 16.80331853 -2 23 C-2.33 23 -2.66 23 -3 23 C-3.35031373 12.97713496 -3.35031373 12.97713496 -1 8 C-0.62406934 6.0075675 -0.28020455 4.0081326 0 2 C-3.63 2 -7.26 2 -11 2 C-11 1.67 -11 1.34 -11 1 C-7.26835686 0.12196632 -3.83319229 -0.17423601 0 0 Z " fill="#A681A4" transform="translate(324,169)"/>
<path d="M0 0 C0.226875 0.61875 0.45375 1.2375 0.6875 1.875 C1.83011529 4.23269507 1.83011529 4.23269507 4.4375 4.8125 C7 6 7 6 8.8125 9.3125 C9.84889766 12.53078747 10.3020043 14.67795274 10 18 C7.51475189 15.73936615 6.01071542 13.45902587 4.4375 10.5 C3.04288632 7.89324546 1.64408005 5.46612008 0 3 C0 2.01 0 1.02 0 0 Z " fill="#A9ADF0" transform="translate(248,179)"/>
<path d="M0 0 C1.04296875 1.87890625 1.04296875 1.87890625 2 4 C1.3125 5.9375 1.3125 5.9375 0 8 C-0.495 8.9075 -0.99 9.815 -1.5 10.75 C-2.2425 11.86375 -2.2425 11.86375 -3 13 C-3.66 13 -4.32 13 -5 13 C-5 14.32 -5 15.64 -5 17 C-5.99 17 -6.98 17 -8 17 C-6.51095825 13.10391502 -4.75621287 9.40902982 -2.875 5.6875 C-2.06675781 4.08455078 -2.06675781 4.08455078 -1.2421875 2.44921875 C-0.62730469 1.23685547 -0.62730469 1.23685547 0 0 Z " fill="#A365D5" transform="translate(392,165)"/>
<path d="M0 0 C0 3.65867041 -0.85543509 4.14058012 -3 7 C-4.00484883 9.33124929 -5.00522247 11.66443537 -6 14 C-6.66 14.66 -7.32 15.32 -8 16 C-8.23004667 11.28404328 -7.7765701 7.39912596 -6 3 C-3.4375 1.625 -3.4375 1.625 -1 1 C-0.67 0.67 -0.34 0.34 0 0 Z " fill="#C172EA" transform="translate(370,265)"/>
<path d="M0 0 C0.20086443 3.71599191 0.1519437 4.77208445 -2 8 C-2.66 8 -3.32 8 -4 8 C-4.33 8.99 -4.66 9.98 -5 11 C-7.125 4.375 -7.125 4.375 -6 1 C-1.125 0 -1.125 0 0 0 Z " fill="#9C5DFC" transform="translate(439,136)"/>
<path d="M0 0 C0.66 0.33 1.32 0.66 2 1 C-0.64 6.28 -3.28 11.56 -6 17 C-6.33 17 -6.66 17 -7 17 C-7.18319769 12.96965088 -6.94065076 10.51742949 -5 7 C-5 6.01 -5 5.02 -5 4 C-3.68 4 -2.36 4 -1 4 C-0.67 2.68 -0.34 1.36 0 0 Z " fill="#F3A145" transform="translate(344,258)"/>
<path d="M0 0 C0.99 0 1.98 0 3 0 C2.731875 0.515625 2.46375 1.03125 2.1875 1.5625 C1.25177444 3.48319983 0.41847947 5.45380132 -0.375 7.4375 C-1.91095435 10.80478453 -3.57014613 13.23499388 -6 16 C-6.60488416 9.95115842 -6.60488416 9.95115842 -4.921875 7.3046875 C-3.64416007 5.84339283 -2.32330956 4.42013709 -1 3 C-0.67 2.01 -0.34 1.02 0 0 Z " fill="#B692ED" transform="translate(451,116)"/>
<path d="M0 0 C0.99 0.66 1.98 1.32 3 2 C2.505 2.45375 2.01 2.9075 1.5 3.375 C-0.22609337 4.87635519 -0.22609337 4.87635519 0 7 C-1.32 7 -2.64 7 -4 7 C-4.33 10.3 -4.66 13.6 -5 17 C-5.99 16.67 -6.98 16.34 -8 16 C-7.690625 14.9275 -7.38125 13.855 -7.0625 12.75 C-6.33187904 10.17133778 -5.62517096 7.60487898 -5 5 C-4.01 5 -3.02 5 -2 5 C-2 3.68 -2 2.36 -2 1 C-1.34 0.67 -0.68 0.34 0 0 Z " fill="#A159F3" transform="translate(389,177)"/>
<path d="M0 0 C3.63 0.66 7.26 1.32 11 2 C10.67 3.98 10.34 5.96 10 8 C7.69 7.67 5.38 7.34 3 7 C3 6 3 5 3 4 C2.01 2.68 1.02 1.36 0 0 Z " fill="#58B5FC" transform="translate(239,89)"/>
<path d="M0 0 C1.32 0.66 2.64 1.32 4 2 C1.05535055 10.41328413 1.05535055 10.41328413 -2 14 C-2.66 14.99 -3.32 15.98 -4 17 C-4.6875 14.6875 -4.6875 14.6875 -5 12 C-3.625 10.4375 -3.625 10.4375 -2 9 C-1.28552357 6.89667109 -1.28552357 6.89667109 -1 5 C-0.34 5 0.32 5 1 5 C0.67 3.35 0.34 1.7 0 0 Z " fill="#BF6CEB" transform="translate(376,246)"/>
<path d="M0 0 C1.43641726 4.46885369 0.47481074 6.86949823 -1.3125 11.125 C-3.03092212 14.05268214 -3.86192049 14.91790362 -7 16 C-5.93952418 11.67652165 -5.18630127 9.05353872 -2 6 C-0.79950593 2.89992799 -0.79950593 2.89992799 0 0 Z " fill="#AF61C6" transform="translate(381,187)"/>
<path d="M0 0 C0.33 0.99 0.66 1.98 1 3 C3.64 3 6.28 3 9 3 C9 3.33 9 3.66 9 4 C5.32612505 4.85298376 1.9552607 5.10789471 -1.8125 5.0625 C-3.27623047 5.04896484 -3.27623047 5.04896484 -4.76953125 5.03515625 C-5.87361328 5.01775391 -5.87361328 5.01775391 -7 5 C-7 4.01 -7 3.02 -7 2 C-2.25 0 -2.25 0 0 0 Z " fill="#F9C132" transform="translate(300,168)"/>
<path d="M0 0 C0.33 0.99 0.66 1.98 1 3 C1.99 3.33 2.98 3.66 4 4 C5.6875 6.5625 5.6875 6.5625 7 9 C3.71303767 9.79953138 2.28976808 10.09658936 -1 9 C-0.67 6.03 -0.34 3.06 0 0 Z " fill="#FDD535" transform="translate(296,102)"/>
<path d="M0 0 C0 0.66 0 1.32 0 2 C-6.43028541 3.32388229 -12.4294834 4.24794402 -19 4 C-14.65203404 -0.34796596 -5.88436514 -0.31807379 0 0 Z " fill="#F7EB99" transform="translate(384,54)"/>
<path d="M0 0 C0.33 0 0.66 0 1 0 C0.22095672 12.66970387 0.22095672 12.66970387 -2 18 C-2.33 18 -2.66 18 -3 18 C-3 16.35 -3 14.7 -3 13 C-3.66 13 -4.32 13 -5 13 C-5 11 -5 11 -3 9 C-2.40165446 7.47943382 -1.86493344 5.93387912 -1.375 4.375 C-1.11460937 3.55773437 -0.85421875 2.74046875 -0.5859375 1.8984375 C-0.39257812 1.27195313 -0.19921875 0.64546875 0 0 Z " fill="#B354CB" transform="translate(334,248)"/>
<path d="M0 0 C3.63 0 7.26 0 11 0 C11 0.33 11 0.66 11 1 C3.04043449 3.0946225 -4.80966773 3.58994384 -13 4 C-13.33 3.34 -13.66 2.68 -14 2 C-9.38 2 -4.76 2 0 2 C0 1.34 0 0.68 0 0 Z " fill="#9B7CC3" transform="translate(395,117)"/>
<path d="M0 0 C0.33 0 0.66 0 1 0 C1.125 7.75 1.125 7.75 0 10 C-0.23692005 13.04924878 -0.3823756 16.09724003 -0.5234375 19.15234375 C-1.03577707 22.21378263 -1.58353503 23.14565389 -4 25 C-3.71505863 22.33246372 -3.42222725 19.66617278 -3.125 17 C-3.04636719 16.25621094 -2.96773438 15.51242188 -2.88671875 14.74609375 C-2.31465792 9.68555567 -1.32985265 4.91710223 0 0 Z " fill="#E89962" transform="translate(340,222)"/>
<path d="M0 0 C0 3.53060249 -1.2632025 5.25275928 -3.04296875 8.21484375 C-4.22785306 10.42501571 -4.69941412 12.52016648 -5 15 C-5.66 15 -6.32 15 -7 15 C-7.33 15.99 -7.66 16.98 -8 18 C-8 16.68 -8 15.36 -8 14 C-7.34 14 -6.68 14 -6 14 C-6.33 11.36 -6.66 8.72 -7 6 C-6.34 6 -5.68 6 -5 6 C-4.67 5.34 -4.34 4.68 -4 4 C-3.34 4 -2.68 4 -2 4 C-2 3.01 -2 2.02 -2 1 C-1.34 0.67 -0.68 0.34 0 0 Z " fill="#F0A642" transform="translate(367,214)"/>
<path d="M0 0 C0.99 0 1.98 0 3 0 C3 1.65 3 3.3 3 5 C2.34 5 1.68 5 1 5 C1 5.99 1 6.98 1 8 C0.34 8 -0.32 8 -1 8 C-1.33 8.99 -1.66 9.98 -2 11 C-2.66 11 -3.32 11 -4 11 C-3.21681311 7.08406554 -1.60820142 3.63593365 0 0 Z " fill="#9961F4" transform="translate(397,157)"/>
<path d="M0 0 C0.66 0 1.32 0 2 0 C1.814375 1.2375 1.62875 2.475 1.4375 3.75 C1.05288777 6.76279577 0.9125406 9.10010827 2 12 C0.02 12.66 -1.96 13.32 -4 14 C-3.69255859 13.11248047 -3.69255859 13.11248047 -3.37890625 12.20703125 C-2.0002429 8.16339184 -0.68249153 4.23144751 0 0 Z " fill="#9C73CE" transform="translate(414,118)"/>
<path d="M0 0 C-0.66 1.32 -1.32 2.64 -2 4 C-2.66 4 -3.32 4 -4 4 C-4 5.98 -4 7.96 -4 10 C-5.95216435 8.04783565 -6.84826645 6.46800047 -8 4 C-4.5 0 -4.5 0 0 0 Z " fill="#AD4BF9" transform="translate(400,208)"/>
<path d="M0 0 C0.99 0 1.98 0 3 0 C3.144375 0.61875 3.28875 1.2375 3.4375 1.875 C3.93152225 4.03258322 3.93152225 4.03258322 5 6 C4.01 6.99 3.02 7.98 2 9 C1.01 8.67 0.02 8.34 -1 8 C-1.04241723 5.66705225 -1.04092937 3.33297433 -1 1 C-0.67 0.67 -0.34 0.34 0 0 Z " fill="#A54FFC" transform="translate(401,193)"/>
<path d="M0 0 C-1 1 -1 1 -4.0625 1.375 C-7.1999897 1.87301424 -9.27430849 2.434958 -12.125 3.625 C-15.44158657 4.96066813 -17.51953355 5.19641034 -21 4 C-17.61847808 2.10203794 -14.26563452 1.19776958 -10.5 0.3125 C-9.3759375 0.04050781 -8.251875 -0.23148438 -7.09375 -0.51171875 C-4.2315358 -0.9634571 -2.67758663 -0.97784414 0 0 Z " fill="#9E83B5" transform="translate(313,172)"/>
<path d="M0 0 C2.375 0.25 2.375 0.25 5 1 C6.3125 3.0625 6.3125 3.0625 7 5 C6.01 6.32 5.02 7.64 4 9 C0 2.25 0 2.25 0 0 Z " fill="#9BAEF7" transform="translate(241,167)"/>
<path d="M0 0 C1.27603607 3.82810821 0.86283987 7.23475107 0.5625 11.1875 C0.51029297 11.93708984 0.45808594 12.68667969 0.40429688 13.45898438 C0.27486216 15.30637082 0.13813482 17.15324371 0 19 C-0.33 18.34 -0.66 17.68 -1 17 C-1.66 16.67 -2.32 16.34 -3 16 C-2.79375 15.38125 -2.5875 14.7625 -2.375 14.125 C-2.25125 13.42375 -2.1275 12.7225 -2 12 C-2.66 11.34 -3.32 10.68 -4 10 C-3.34 9.34 -2.68 8.68 -2 8 C-1.83322718 4.41656024 -1.83322718 4.41656024 -2 1 C-1.34 0.67 -0.68 0.34 0 0 Z " fill="#7795EE" transform="translate(292,119)"/>
<path d="M0 0 C0.66 0.33 1.32 0.66 2 1 C1.67 3.31 1.34 5.62 1 8 C-1 5 -1 5 -1 2 C-4.3 2 -7.6 2 -11 2 C-6.75824072 -0.12087964 -4.6377859 -0.25765477 0 0 Z " fill="#F6E170" transform="translate(395,53)"/>
<path d="M0 0 C0.66 0.99 1.32 1.98 2 3 C-0.31 7.29 -2.62 11.58 -5 16 C-6 14 -6 14 -5.25 10.6875 C-4.13491709 7.39800541 -2.8946449 4.88315528 -1 2 C-0.67 1.34 -0.34 0.68 0 0 Z " fill="#C77DEB" transform="translate(349,299)"/>
<path d="M0 0 C-0.98828125 1.45703125 -0.98828125 1.45703125 -3 3 C-5.79251583 3.37674518 -8.38779201 3.60191941 -11.1875 3.6875 C-11.93708984 3.72166016 -12.68667969 3.75582031 -13.45898438 3.79101562 C-15.30546838 3.87334294 -17.15270994 3.93835281 -19 4 C-19 3.67 -19 3.34 -19 3 C-16.77228658 2.49356447 -14.54275924 1.9951038 -12.3125 1.5 C-10.45044922 1.08234375 -10.45044922 1.08234375 -8.55078125 0.65625 C-5.57601782 0.10645874 -3.00631398 -0.13795705 0 0 Z " fill="#F8E995" transform="translate(352,60)"/>
<path d="M0 0 C0.66 0 1.32 0 2 0 C2.99 2.31 3.98 4.62 5 7 C4.01 7.66 3.02 8.32 2 9 C2 8.01 2 7.02 2 6 C-0.475 7.485 -0.475 7.485 -3 9 C-2.01 6.03 -1.02 3.06 0 0 Z " fill="#B345F0" transform="translate(348,254)"/>
<path d="M0 0 C-0.33 1.32 -0.66 2.64 -1 4 C-3.60582371 4.93065133 -4.64198224 5.14917407 -7.25 4.0625 C-7.8275 3.711875 -8.405 3.36125 -9 3 C-9.33 3.66 -9.66 4.32 -10 5 C-9.6875 3.0625 -9.6875 3.0625 -9 1 C-5.8035914 -0.06546953 -3.34252724 -0.07427838 0 0 Z " fill="#FBC016" transform="translate(393,159)"/>
<path d="M0 0 C2.475 0.495 2.475 0.495 5 1 C5 2.65 5 4.3 5 6 C3.02 6.99 3.02 6.99 1 8 C0 2.25 0 2.25 0 0 Z " fill="#FED22B" transform="translate(312,109)"/>
<path d="M0 0 C2.23960447 2.87949147 4.29864224 5.76742026 6 9 C5.67 9.66 5.34 10.32 5 11 C3.125 10.4375 3.125 10.4375 1 9 C-0.3125 5.5 -0.3125 5.5 -1 2 C-0.67 1.34 -0.34 0.68 0 0 Z " fill="#C276E8" transform="translate(319,300)"/>
<path d="M0 0 C0.66 0 1.32 0 2 0 C2 0.66 2 1.32 2 2 C2.66 2 3.32 2 4 2 C5.4783226 4.95664519 5.06032783 7.74229737 5 11 C1.19015156 8.22920113 0.93159248 4.37131855 0 0 Z " fill="#7DC7F1" transform="translate(206,103)"/>
<path d="M0 0 C0.66 0 1.32 0 2 0 C2 0.66 2 1.32 2 2 C3.32 2.33 4.64 2.66 6 3 C5.01 3 4.02 3 3 3 C2.67 5.31 2.34 7.62 2 10 C1.34 10 0.68 10 0 10 C-0.95024979 6.30458414 -0.95024979 3.69541586 0 0 Z " fill="#B839FA" transform="translate(353,281)"/>
<path d="M0 0 C0 0.99 0 1.98 0 3 C0.31088368 4.67099977 0.64080332 6.33871537 1 8 C0.01 8.66 -0.98 9.32 -2 10 C-3.5625 8.1875 -3.5625 8.1875 -5 6 C-4 3 -4 3 -3 1 C-2.01 0.67 -1.02 0.34 0 0 Z " fill="#B187F6" transform="translate(287,236)"/>
<path d="M0 0 C0.66 0 1.32 0 2 0 C2.185625 0.9590625 2.185625 0.9590625 2.375 1.9375 C2.684375 2.9584375 2.684375 2.9584375 3 4 C3.66 4.33 4.32 4.66 5 5 C7 7 7 7 7.125 9.625 C7.08375 10.40875 7.0425 11.1925 7 12 C7.66 12.33 8.32 12.66 9 13 C8.01 13 7.02 13 6 13 C4.02 8.71 2.04 4.42 0 0 Z " fill="#B6B3F0" transform="translate(258,197)"/>
<path d="M0 0 C0.66 0.33 1.32 0.66 2 1 C2.99716532 4.98866127 3.0502717 8.0323069 2 12 C0.10786631 9.61426621 -1.02391783 7.92824652 -2 5 C-1.34 5 -0.68 5 0 5 C-0.2784375 4.0409375 -0.2784375 4.0409375 -0.5625 3.0625 C-0.7790625 2.0415625 -0.7790625 2.0415625 -1 1 C-0.67 0.67 -0.34 0.34 0 0 Z " fill="#7BADF6" transform="translate(228,136)"/>
<path d="M0 0 C0.66 0 1.32 0 2 0 C1.67 0.721875 1.34 1.44375 1 2.1875 C-0.17976479 4.90730837 -0.17976479 4.90730837 0.1875 7.5625 C0 10 0 10 -2.5 12.3125 C-3.7375 13.1478125 -3.7375 13.1478125 -5 14 C-4.54636829 12.41531323 -4.08688548 10.83230076 -3.625 9.25 C-3.36976563 8.36828125 -3.11453125 7.4865625 -2.8515625 6.578125 C-2.0790066 4.23919428 -1.16374324 2.16557438 0 0 Z " fill="#BA54C1" transform="translate(346,256)"/>
<path d="M0 0 C3 1 3 1 5 4 C5 5.32 5 6.64 5 8 C5.99 8.33 6.98 8.66 8 9 C7.01 10.485 7.01 10.485 6 12 C5.18071114 10.75443908 4.36984814 9.50333365 3.5625 8.25 C2.88380859 7.20585937 2.88380859 7.20585937 2.19140625 6.140625 C1.0391991 4.07042986 0.45323018 2.31303676 0 0 Z " fill="#B9ABEF" transform="translate(266,211)"/>
<path d="M0 0 C0.66 0 1.32 0 2 0 C2 0.66 2 1.32 2 2 C2.66 2.33 3.32 2.66 4 3 C3.67 5.31 3.34 7.62 3 10 C0.9375 7.8125 0.9375 7.8125 -1 5 C-0.75 2.1875 -0.75 2.1875 0 0 Z " fill="#B73BFC" transform="translate(316,290)"/>
<path d="M0 0 C1.60495567 0.11442461 3.20898119 0.24194694 4.8125 0.375 C5.70582031 0.44460937 6.59914062 0.51421875 7.51953125 0.5859375 C10 1 10 1 13 3 C9.04 3 5.08 3 1 3 C0.67 2.01 0.34 1.02 0 0 Z " fill="#A7DCF5" transform="translate(232,86)"/>
<path d="M0 0 C-0.33 0.99 -0.66 1.98 -1 3 C-3.64 3.33 -6.28 3.66 -9 4 C-8 1 -8 1 -6.1875 -0.25 C-3.66056586 -1.11637742 -2.47778006 -0.88492145 0 0 Z " fill="#FCDB3D" transform="translate(358,66)"/>
<path d="M0 0 C0.99 0.33 1.98 0.66 3 1 C2.67 2.32 2.34 3.64 2 5 C1.01 5 0.02 5 -1 5 C-1.33 5.66 -1.66 6.32 -2 7 C-1.125 1.125 -1.125 1.125 0 0 Z M-4 7 C-3.01 7.495 -3.01 7.495 -2 8 C-2.99 8.495 -2.99 8.495 -4 9 C-4 8.34 -4 7.68 -4 7 Z " fill="#9368FA" transform="translate(411,131)"/>
<path d="M0 0 C1.21816406 0.03480469 1.21816406 0.03480469 2.4609375 0.0703125 C3.68683594 0.09738281 3.68683594 0.09738281 4.9375 0.125 C5.87722656 0.15980469 5.87722656 0.15980469 6.8359375 0.1953125 C3.82705969 1.77690212 1.19921713 2.63476589 -2.1640625 3.1953125 C-2.1640625 4.1853125 -2.1640625 5.1753125 -2.1640625 6.1953125 C-3.1540625 5.8653125 -4.1440625 5.5353125 -5.1640625 5.1953125 C-4.5040625 5.1953125 -3.8440625 5.1953125 -3.1640625 5.1953125 C-3.4940625 4.2053125 -3.8240625 3.2153125 -4.1640625 2.1953125 C-2.1640625 0.1953125 -2.1640625 0.1953125 0 0 Z " fill="#FDD42D" transform="translate(351.1640625,103.8046875)"/>
<path d="M0 0 C0.33 0.99 0.66 1.98 1 3 C0.34 3 -0.32 3 -1 3 C-1 2.34 -1 1.68 -1 1 C-2.3921875 1.5259375 -2.3921875 1.5259375 -3.8125 2.0625 C-7 3 -7 3 -10 2 C-10 1.34 -10 0.68 -10 0 C-6.30581799 -1.231394 -3.7943739 -0.64432764 0 0 Z " fill="#5BB5FD" transform="translate(261,93)"/>
<path d="M0 0 C1.32 0.66 2.64 1.32 4 2 C3.67 3.65 3.34 5.3 3 7 C1.68 6.34 0.36 5.68 -1 5 C-0.67 3.35 -0.34 1.7 0 0 Z " fill="#B341F2" transform="translate(337,313)"/>
<path d="M0 0 C0.66 0.66 1.32 1.32 2 2 C1.01 3.485 1.01 3.485 0 5 C0 5.99 0 6.98 0 8 C-0.99 8 -1.98 8 -3 8 C-3.1875 5.125 -3.1875 5.125 -3 2 C-2.01 1.34 -1.02 0.68 0 0 Z " fill="#B842E3" transform="translate(342,269)"/>
<path d="M0 0 C2.64 0.66 5.28 1.32 8 2 C6.75 3.5625 6.75 3.5625 5 5 C2.8125 4.6875 2.8125 4.6875 1 4 C0.67 2.68 0.34 1.36 0 0 Z " fill="#BC7AF5" transform="translate(300,271)"/>
<path d="M0 0 C0.99 0.33 1.98 0.66 3 1 C1.35 4.3 -0.3 7.6 -2 11 C-3.26426661 7.20720018 -2.40145184 5.65934648 -1 2 C-0.67 1.34 -0.34 0.68 0 0 Z " fill="#C298EF" transform="translate(423,166)"/>
<path d="M0 0 C0.66 0.33 1.32 0.66 2 1 C0.35 4.63 -1.3 8.26 -3 12 C-3.33 12 -3.66 12 -4 12 C-4 10.35 -4 8.7 -4 7 C-3.34 7 -2.68 7 -2 7 C-2 5.02 -2 3.04 -2 1 C-1.34 0.67 -0.68 0.34 0 0 Z " fill="#EDB85C" transform="translate(403,140)"/>
<path d="M0 0 C0.66 0.99 1.32 1.98 2 3 C1.01 3 0.02 3 -1 3 C-1.33 2.67 -1.66 2.34 -2 2 C-3.68183948 1.76712992 -5.3712416 1.58735834 -7.0625 1.4375 C-8.44115234 1.31181641 -8.44115234 1.31181641 -9.84765625 1.18359375 C-10.91306641 1.09271484 -10.91306641 1.09271484 -12 1 C-12 0.67 -12 0.34 -12 0 C-7.69512128 -0.92247401 -4.27664906 -1.16635883 0 0 Z " fill="#BBACEE" transform="translate(465,82)"/>
<path d="M0 0 C0.33 0 0.66 0 1 0 C0.03644647 10.55808656 0.03644647 10.55808656 -1 15 C-1.33 15 -1.66 15 -2 15 C-2.3690205 4.44191344 -2.3690205 4.44191344 0 0 Z " fill="#9F76BF" transform="translate(323,177)"/>
<path d="M0 0 C0.66 0 1.32 0 2 0 C1.40138258 2.35171131 0.73075648 4.6859378 0 7 C-0.99 7.495 -0.99 7.495 -2 8 C-2.33 6.02 -2.66 4.04 -3 2 C-2.01 2 -1.02 2 0 2 C0 1.34 0 0.68 0 0 Z " fill="#53BBF9" transform="translate(214,106)"/>
<path d="M0 0 C1.65 0 3.3 0 5 0 C5.33 1.32 5.66 2.64 6 4 C4.35 4.33 2.7 4.66 1 5 C0.67 3.35 0.34 1.7 0 0 Z " fill="#61A6FC" transform="translate(287,99)"/>
<path d="M0 0 C0.33 0.66 0.66 1.32 1 2 C1.99 2 2.98 2 4 2 C3.67 2.99 3.34 3.98 3 5 C1.35 5 -0.3 5 -2 5 C-2 3.68 -2 2.36 -2 1 C-1.34 0.67 -0.68 0.34 0 0 Z " fill="#FBA730" transform="translate(333,273)"/>
<path d="M0 0 C0.66 0.33 1.32 0.66 2 1 C0.50902342 4.7952131 -1.75700849 6.61042731 -5 9 C-4.6875 7.0625 -4.6875 7.0625 -4 5 C-3.01 4.67 -2.02 4.34 -1 4 C-0.26676204 1.98491642 -0.26676204 1.98491642 0 0 Z " fill="#AB4DF2" transform="translate(364,226)"/>
<path d="M0 0 C1.34780093 2.69560185 0.67336458 3.742617 -0.25 6.5625 C-0.50265625 7.36816406 -0.7553125 8.17382812 -1.015625 9.00390625 C-1.34046875 9.66261719 -1.6653125 10.32132813 -2 11 C-2.99 11.33 -3.98 11.66 -5 12 C-5 11.34 -5 10.68 -5 10 C-4.34 10 -3.68 10 -3 10 C-3.061875 9.278125 -3.12375 8.55625 -3.1875 7.8125 C-2.96476068 4.47141026 -1.8717754 2.72967245 0 0 Z " fill="#BE68A9" transform="translate(365,219)"/>
<path d="M0 0 C1.32 0.66 2.64 1.32 4 2 C2.35 4.64 0.7 7.28 -1 10 C-1.66 8.68 -2.32 7.36 -3 6 C-2.01 6 -1.02 6 0 6 C0 4.02 0 2.04 0 0 Z " fill="#F8B836" transform="translate(383,175)"/>
<path d="M0 0 C0.66 0 1.32 0 2 0 C1.6875 2.875 1.6875 2.875 1 6 C0.01 6.66 -0.98 7.32 -2 8 C-2.33 6.02 -2.66 4.04 -3 2 C-2.01 2 -1.02 2 0 2 C0 1.34 0 0.68 0 0 Z " fill="#F8CE47" transform="translate(383,97)"/>
<path d="M0 0 C0.99 0 1.98 0 3 0 C2.40072174 3.35595828 1.15377564 5.37801226 -1 8 C-1.625 5.125 -1.625 5.125 -2 2 C-1.34 1.34 -0.68 0.68 0 0 Z " fill="#A98DED" transform="translate(465,90)"/>
<path d="M0 0 C-1.485 1.485 -1.485 1.485 -3 3 C-5.31 2.34 -7.62 1.68 -10 1 C-10 0.67 -10 0.34 -10 0 C-6.33694766 -0.74926071 -3.57644848 -1.2380014 0 0 Z " fill="#FAE255" transform="translate(324,68)"/>
<path d="M0 0 C1.98 0.495 1.98 0.495 4 1 C3.67 2.98 3.34 4.96 3 7 C2.34 7 1.68 7 1 7 C1 6.34 1 5.68 1 5 C0.34 5 -0.32 5 -1 5 C-0.67 4.34 -0.34 3.68 0 3 C0 2.01 0 1.02 0 0 Z " fill="#BB39FC" transform="translate(345,297)"/>
<path d="M0 0 C0.99 0.33 1.98 0.66 3 1 C3 3.64 3 6.28 3 9 C0.11749016 6.61879622 -0.61038985 4.70129644 -1 1 C-0.67 0.67 -0.34 0.34 0 0 Z " fill="#B19CEE" transform="translate(274,222)"/>
<path d="M0 0 C0.66 0 1.32 0 2 0 C2.33 2.31 2.66 4.62 3 7 C2.34 7 1.68 7 1 7 C0.67 8.32 0.34 9.64 0 11 C0 7.37 0 3.74 0 0 Z " fill="#F7B635" transform="translate(323,183)"/>
<path d="M0 0 C0.33 1.32 0.66 2.64 1 4 C0.01 4.33 -0.98 4.66 -2 5 C-3.22969878 8.51190809 -3.22969878 8.51190809 -4 12 C-4.33 11.34 -4.66 10.68 -5 10 C-3.61457684 6.37151078 -2.15648338 3.23472506 0 0 Z " fill="#D48E84" transform="translate(383,182)"/>
<path d="M0 0 C1.33332095 2.6666419 0.67102033 4.16680303 0 7 C-0.66 7 -1.32 7 -2 7 C-2 8.32 -2 9.64 -2 11 C-2.99 11 -3.98 11 -5 11 C-3.55049545 7.2089881 -1.84827434 3.6125362 0 0 Z " fill="#B872AB" transform="translate(389,171)"/>
<path d="M0 0 C0.66 0 1.32 0 2 0 C2 2.31 2 4.62 2 7 C1.01 7 0.02 7 -1 7 C-1.04254356 5.00045254 -1.04080783 2.99958364 -1 1 C-0.67 0.67 -0.34 0.34 0 0 Z " fill="#A464F3" transform="translate(426,157)"/>
<path d="M0 0 C1.21065165 3.63195496 0.62784815 5.06531629 -0.4375 8.6875 C-0.86869141 10.17830078 -0.86869141 10.17830078 -1.30859375 11.69921875 C-1.53675781 12.45847656 -1.76492188 13.21773437 -2 14 C-3.00685307 10.9794408 -3.02876261 9.52923734 -2.6875 6.4375 C-2.60886719 5.65246094 -2.53023438 4.86742188 -2.44921875 4.05859375 C-2 2 -2 2 0 0 Z " fill="#F9ED9C" transform="translate(393,69)"/>
<path d="M0 0 C3.96 0.33 7.92 0.66 12 1 C11.67 1.66 11.34 2.32 11 3 C8.03 2.67 5.06 2.34 2 2 C1.67 2.66 1.34 3.32 1 4 C0.34 3.67 -0.32 3.34 -1 3 C-0.67 2.01 -0.34 1.02 0 0 Z " fill="#FDDA37" transform="translate(325,71)"/>
<path d="M0 0 C1.98 0.495 1.98 0.495 4 1 C2.515 4.465 2.515 4.465 1 8 C0.34 7.67 -0.32 7.34 -1 7 C-0.67 4.69 -0.34 2.38 0 0 Z " fill="#C982ED" transform="translate(383,236)"/>
<path d="M0 0 C0.226875 0.61875 0.45375 1.2375 0.6875 1.875 C2.37929835 4.61410209 3.99244161 5.05024472 7 6 C6.67 6.99 6.34 7.98 6 9 C5.34 9 4.68 9 4 9 C0 3.70588235 0 3.70588235 0 0 Z " fill="#B4BDF2" transform="translate(248,179)"/>
<path d="M0 0 C0 1.65 0 3.3 0 5 C-0.99 5.33 -1.98 5.66 -3 6 C-3.66 4.35 -4.32 2.7 -5 1 C-1.125 0 -1.125 0 0 0 Z " fill="#53BCFB" transform="translate(208,96)"/>
<path d="M0 0 C0.99 0.495 0.99 0.495 2 1 C2.99 1.33 3.98 1.66 5 2 C5 2.66 5 3.32 5 4 C4.34 4 3.68 4 3 4 C3 4.66 3 5.32 3 6 C2.01 6 1.02 6 0 6 C0 4.02 0 2.04 0 0 Z " fill="#B055F2" transform="translate(310,284)"/>
<path d="M0 0 C0 2.31 0 4.62 0 7 C-1.32 6.34 -2.64 5.68 -4 5 C-4 3.68 -4 2.36 -4 1 C-1 0 -1 0 0 0 Z " fill="#AE45F8" transform="translate(380,241)"/>
<path d="M0 0 C0.99 0 1.98 0 3 0 C2.45773019 3.79588866 0.79872437 5.47211993 -2 8 C-1.125 2.25 -1.125 2.25 0 0 Z " fill="#CD94EE" transform="translate(389,227)"/>
<path d="M0 0 C2.475 0.99 2.475 0.99 5 2 C4.67 3.98 4.34 5.96 4 8 C2.35 6.35 0.7 4.7 -1 3 C-0.67 2.01 -0.34 1.02 0 0 Z " fill="#8798ED" transform="translate(247,175)"/>
<path d="M0 0 C0.99 0 1.98 0 3 0 C2.40072174 3.35595828 1.15377564 5.37801226 -1 8 C-1.125 2.25 -1.125 2.25 0 0 Z " fill="#CF86F1" transform="translate(363,273)"/>
<path d="M0 0 C2.475 0.495 2.475 0.495 5 1 C4.67 2.65 4.34 4.3 4 6 C1.7522025 3.94766315 0.9977758 2.99332739 0 0 Z " fill="#A057F1" transform="translate(408,185)"/>
<path d="M0 0 C0 3.90838866 -1.50567876 5.11594107 -4 8 C-4.25 5.6875 -4.25 5.6875 -4 3 C-2 1.1875 -2 1.1875 0 0 Z " fill="#C9A0EE" transform="translate(417,181)"/>
<path d="M0 0 C0.99 0.33 1.98 0.66 3 1 C2.67 2.32 2.34 3.64 2 5 C0.68 5 -0.64 5 -2 5 C-1.125 1.125 -1.125 1.125 0 0 Z " fill="#7689FB" transform="translate(253,178)"/>
<path d="M0 0 C-0.33 2.64 -0.66 5.28 -1 8 C-1.99 7.67 -2.98 7.34 -4 7 C-4 6.34 -4 5.68 -4 5 C-3.34 5 -2.68 5 -2 5 C-2.66 3.68 -3.32 2.36 -4 1 C-2 0 -2 0 0 0 Z " fill="#A353FC" transform="translate(420,169)"/>
<path d="M0 0 C2.31 0.66 4.62 1.32 7 2 C7 2.99 7 3.98 7 5 C4.0625 4.1875 4.0625 4.1875 1 3 C0.67 2.01 0.34 1.02 0 0 Z " fill="#7BBEF9" transform="translate(215,122)"/>
<path d="M0 0 C1.32 0 2.64 0 4 0 C4.33 1.98 4.66 3.96 5 6 C4.34 6 3.68 6 3 6 C0 2.53846154 0 2.53846154 0 0 Z " fill="#89CBF6" transform="translate(211,115)"/>
<path d="M0 0 C0 3.10551666 -0.5393715 4.35261084 -2 7 C-2.66 6.34 -3.32 5.68 -4 5 C-3.8125 2.9375 -3.8125 2.9375 -3 1 C-2.01 0.67 -1.02 0.34 0 0 Z " fill="#FCD735" transform="translate(388,81)"/>
</svg>
