<?xml version="1.0" encoding="UTF-8"?>
<svg version="1.1" xmlns="http://www.w3.org/2000/svg" width="500" height="500">
<path d="M0 0 C0.89828522 -0.00960754 1.79657043 -0.01921509 2.72207642 -0.02911377 C4.19068619 -0.03548859 4.19068619 -0.03548859 5.68896484 -0.04199219 C7.19346695 -0.0505423 7.19346695 -0.0505423 8.72836304 -0.05926514 C10.85861145 -0.06873484 12.98887464 -0.0752569 15.11914062 -0.07910156 C18.36533644 -0.0887643 21.61088773 -0.11975146 24.85693359 -0.15136719 C26.92594025 -0.15790129 28.99495144 -0.16315016 31.06396484 -0.16699219 C32.51435654 -0.18551239 32.51435654 -0.18551239 33.99404907 -0.20440674 C39.67662047 -0.1858132 43.82340156 0.26451296 48.77490234 3.16113281 C50.28125 5.12109375 50.28125 5.12109375 51.18896484 7.39550781 C51.73085449 8.69657471 51.73085449 8.69657471 52.28369141 10.02392578 C52.65204102 10.9767041 53.02039063 11.92948242 53.39990234 12.91113281 C53.8146582 13.92191895 54.22941406 14.93270508 54.65673828 15.97412109 C55.56464656 18.18852339 56.46265422 20.40700419 57.35205078 22.62890625 C59.57446465 28.14604488 61.89823002 33.62033707 64.20999146 39.10043335 C65.31210182 41.7183324 66.40694111 44.33924545 67.50178528 46.96018982 C71.28719426 56.02118705 75.12034936 65.06153807 78.96240234 74.09863281 C83.13633479 83.92031637 87.2939604 93.74826404 91.39990234 103.59863281 C91.78944092 104.53247803 92.17897949 105.46632324 92.58032227 106.4284668 C93.65108894 109.00363589 94.71492775 111.58150457 95.77490234 114.16113281 C96.15090576 115.07161377 96.52690918 115.98209473 96.91430664 116.92016602 C97.27693604 117.80921631 97.63956543 118.6982666 98.01318359 119.61425781 C98.33843018 120.40864258 98.66367676 121.20302734 98.9987793 122.02148438 C100.07282702 124.982464 100.42348635 127.06234258 99.77490234 130.16113281 C96.50388149 133.76101752 92.94030823 136.66690681 89.02490234 139.53613281 C85.2307413 142.32348945 81.53318619 145.16829222 77.89990234 148.16113281 C74.5775274 150.76125233 72.12853365 152.16113281 67.77490234 152.16113281 C63.68831877 150.79893829 62.87292232 148.1969192 61.02490234 144.56347656 C60.67564697 143.89195053 60.3263916 143.2204245 59.96655273 142.52854919 C56.62338873 136.02316417 53.59639131 129.38389583 50.64477539 122.6937561 C49.14945682 119.30709875 47.63466295 115.92919302 46.11865234 112.55175781 C45.82591431 111.89927567 45.53317627 111.24679352 45.23156738 110.57453918 C41.96425171 103.31901597 38.42424988 96.2306828 34.77490234 89.16113281 C33.6468683 86.91265239 32.52168077 84.66274072 31.39990234 82.41113281 C30.93841797 81.48816406 30.47693359 80.56519531 30.00146484 79.61425781 C29.22144737 78.05422286 28.46005823 76.48462763 27.72412109 74.90332031 C26.45197639 72.56843745 25.21958788 72.13900703 22.77490234 71.16113281 C21.63021484 70.60425781 21.63021484 70.60425781 20.46240234 70.03613281 C14.27934244 68.02304354 9.55956518 69.21476349 3.90771484 71.97363281 C-2.80733854 75.71241711 -6.24602429 80.84020898 -10.22509766 87.16113281 C-11.22267296 88.62112583 -12.22266393 90.07947131 -13.22509766 91.53613281 C-23.69323684 107.33301467 -38.36324356 131.32934476 -35.22509766 151.16113281 C-32.83649925 161.06886938 -28.04633148 169.04022106 -19.35009766 174.53613281 C-14.80751108 177.03213548 -10.22526878 178.82108695 -5.22509766 180.16113281 C-3.95666016 180.50144531 -3.95666016 180.50144531 -2.66259766 180.84863281 C6.38296178 182.00831992 14.97431088 180.05312349 23.77490234 178.16113281 C24.93892578 177.9175 26.10294922 177.67386719 27.30224609 177.42285156 C62.09219551 169.16561947 90.33655425 148.3184021 116.10302734 124.48925781 C117.77490234 123.16113281 117.77490234 123.16113281 119.77490234 123.16113281 C119.77490234 122.50113281 119.77490234 121.84113281 119.77490234 121.16113281 C121.46764518 119.59680495 123.23060087 118.10784709 125.02490234 116.66113281 C125.99943359 115.86707031 126.97396484 115.07300781 127.97802734 114.25488281 C130.22384996 112.57365247 132.22148264 111.27977383 134.77490234 110.16113281 C134.77490234 109.50113281 134.77490234 108.84113281 134.77490234 108.16113281 C137.05215648 106.3249279 139.332161 104.60462524 141.71240234 102.91113281 C142.75291748 102.16524902 142.75291748 102.16524902 143.81445312 101.40429688 C145.19116541 100.42042537 146.57002658 99.43955281 147.95117188 98.46191406 C149.37563538 97.44591117 150.78051069 96.40242993 152.17724609 95.34863281 C156.89706137 91.90924267 161.98144886 89.6106746 167.33740234 87.34863281 C168.04622559 87.04602539 168.75504883 86.74341797 169.48535156 86.43164062 C181.77139546 81.45797203 199.17801999 81.14796675 211.77490234 85.16113281 C215.88669021 86.97147501 219.84751773 88.98153716 223.77490234 91.16113281 C223.77490234 91.82113281 223.77490234 92.48113281 223.77490234 93.16113281 C224.38076172 93.41765625 224.98662109 93.67417969 225.61083984 93.93847656 C229.85548033 96.33662182 231.91196288 100.84304053 233.57177734 105.30175781 C236.53823419 116.4460146 233.4124206 126.53565312 228.02490234 136.34863281 C218.11129522 148.74064171 202.96840336 155.39581928 188.65332031 161.36132812 C185.80450742 162.5743137 183.01169044 163.90108054 180.21240234 165.22363281 C168.83732603 170.48652002 157.2774558 174.78215036 145.35888672 178.62573242 C141.19302947 179.9773946 137.10109724 181.40100959 133.04833984 183.06347656 C126.54178722 185.71365846 119.87970237 187.89305864 113.21240234 190.09863281 C112.21554413 190.43019882 112.21554413 190.43019882 111.19854736 190.76846313 C103.7186977 193.25541366 96.23338808 195.69332634 88.64990234 197.84863281 C76.35352743 201.34835835 63.95581278 205.29502895 52.45458984 210.92285156 C50.04808308 212.03489623 47.63954004 212.98612554 45.16552734 213.93457031 C39.40789134 216.21791773 34.05841397 219.09432088 28.64990234 222.09863281 C27.71275391 222.61103516 26.77560547 223.1234375 25.81005859 223.65136719 C20.87193004 226.36906451 16.04520596 229.17832961 11.33789062 232.28051758 C9.77490234 233.16113281 9.77490234 233.16113281 7.77490234 233.16113281 C7.77490234 233.82113281 7.77490234 234.48113281 7.77490234 235.16113281 C6.19773995 236.41146878 4.55988913 237.58555323 2.89990234 238.72363281 C-10.28358254 248.09930755 -25.85697399 261.33913413 -30.13525391 277.62597656 C-30.46941321 279.70766529 -30.75433884 281.79835132 -30.97119141 283.89550781 C-31.22509766 286.16113281 -31.22509766 286.16113281 -32.22509766 287.16113281 C-44.97898542 288.80638047 -58.05262892 288.31394364 -70.87866211 288.29150391 C-74.54691654 288.28611913 -78.21504994 288.29148944 -81.88330078 288.29785156 C-84.24332709 288.29719112 -86.60335332 288.29591065 -88.96337891 288.29394531 C-90.58715202 288.29698166 -90.58715202 288.29698166 -92.24372864 288.30007935 C-97.12210466 288.28517802 -101.99661037 288.2017854 -106.86645508 287.90283203 C-107.6607341 287.85762421 -108.45501312 287.81241638 -109.27336121 287.76583862 C-111.22509766 287.16113281 -111.22509766 287.16113281 -112.50532532 285.31790161 C-114.00090179 280.836467 -112.56618874 276.52909194 -110.72509766 272.34863281 C-100.72900785 253.69167097 -80.05453832 242.34735468 -61.40966797 234.12744141 C-59.32593913 233.20573837 -57.25621752 232.25730448 -55.18603516 231.30566406 C-38.73056131 223.9154927 -21.37591301 218.67265272 -4.22509766 213.16113281 C-3.57277161 212.95127747 -2.92044556 212.74142212 -2.24835205 212.52520752 C9.81500373 208.65153038 21.88890337 204.97200456 34.21536255 202.02787781 C40.0170632 200.6303844 45.74906395 199.06026761 51.47802734 197.39160156 C58.89073293 195.2522356 66.31859883 193.185055 73.77099609 191.18847656 C133.90342056 176.50305832 133.90342056 176.50305832 187.89233398 147.51000977 C189.77490234 146.16113281 189.77490234 146.16113281 191.77490234 146.16113281 C191.77490234 145.50113281 191.77490234 144.84113281 191.77490234 144.16113281 C193.31396484 142.68066406 193.31396484 142.68066406 195.39990234 140.97363281 C203.87802928 133.87477537 203.87802928 133.87477537 208.07568359 124.20019531 C208.07955078 123.07355469 208.08341797 121.94691406 208.08740234 120.78613281 C208.10416016 119.66464844 208.12091797 118.54316406 208.13818359 117.38769531 C207.74034039 113.85416321 206.88867109 111.98977712 204.77490234 109.16113281 C204.11490234 108.83113281 203.45490234 108.50113281 202.77490234 108.16113281 C202.77490234 107.50113281 202.77490234 106.84113281 202.77490234 106.16113281 C191.10977262 100.97663071 177.4262851 101.78893013 165.58349609 106.03222656 C164.65666016 106.40476562 163.72982422 106.77730469 162.77490234 107.16113281 C162.00275391 107.46148437 161.23060547 107.76183594 160.43505859 108.07128906 C152.92738012 111.20740792 144.99818891 114.95902089 138.51318359 119.87597656 C136.77490234 121.16113281 136.77490234 121.16113281 134.77490234 121.16113281 C134.77490234 121.82113281 134.77490234 122.48113281 134.77490234 123.16113281 C133.07587211 124.67854257 131.31417512 126.12626081 129.52490234 127.53613281 C126.72176922 129.75342594 124.03789037 131.89170801 121.54052734 134.45019531 C119.77490234 136.16113281 119.77490234 136.16113281 117.77490234 136.16113281 C117.77490234 136.82113281 117.77490234 137.48113281 117.77490234 138.16113281 C115.86083984 139.71972656 115.86083984 139.71972656 113.14990234 141.59863281 C109.40214193 144.24717652 105.77191519 146.93976076 102.21313477 149.84155273 C91.64063738 158.42307374 80.20366438 165.78284064 68.77490234 173.16113281 C68.03530273 173.6388916 67.29570312 174.11665039 66.53369141 174.60888672 C49.12052671 185.74139831 30.54226657 193.25965732 10.77490234 199.16113281 C10.08557617 199.3702832 9.39625 199.57943359 8.68603516 199.79492188 C-8.14813564 204.72797894 -26.44924771 203.75257375 -42.10009766 195.84863281 C-50.0056153 191.0705727 -54.98522836 184.82309743 -58.22509766 176.16113281 C-59.20500147 171.65233488 -59.41980367 167.26896465 -59.47509766 162.66113281 C-59.50087891 161.39269531 -59.52666016 160.12425781 -59.55322266 158.81738281 C-59.09979664 147.40270683 -55.27507853 136.87233786 -50.85009766 126.47363281 C-50.38087891 125.34119141 -49.91166016 124.20875 -49.42822266 123.04199219 C-46.86989868 116.9041348 -44.18532288 110.83518133 -41.41357422 104.79125977 C-39.44410934 100.43278706 -37.61526303 96.01803514 -35.78759766 91.59863281 C-35.36857178 90.58905518 -34.9495459 89.57947754 -34.51782227 88.53930664 C-33.08406495 85.08108708 -31.65410443 81.62131804 -30.22509766 78.16113281 C-29.95745605 77.51329834 -29.68981445 76.86546387 -29.4140625 76.19799805 C-21.1578651 56.21539113 -21.1578651 56.21539113 -12.99072266 36.19628906 C-12.73757797 35.57227707 -12.48443329 34.94826508 -12.22361755 34.30534363 C-11.04185408 31.39164678 -9.8627463 28.47693073 -8.68823242 25.56030273 C-7.04728358 21.50752587 -5.4109514 17.53120642 -3.44775391 13.62207031 C-1.92130547 10.54966611 -1.78301247 8.55045255 -2.22509766 5.16113281 C-3.60436538 2.81851673 -3.60436538 2.81851673 -5.22509766 1.16113281 C-3.66839046 -0.39557438 -2.16514868 0.01862269 0 0 Z " fill="#632827" transform="translate(189.22509765625,105.8388671875)"/>
<path d="M0 0 C0.680625 0.2475 1.36125 0.495 2.0625 0.75 C3.10091138 8.58710905 3.11317469 16.23432102 2.8125 24.125 C2.76585205 25.35581299 2.7192041 26.58662598 2.67114258 27.85473633 C2.20503676 38.3084352 1.08698809 48.48647245 -0.9375 58.75 C-1.08058594 59.47687012 -1.22367188 60.20374023 -1.37109375 60.95263672 C-6.29237548 85.1289776 -14.48454425 110.00357483 -35.171875 125.2265625 C-48.63900389 134.08651572 -64.63183837 136.0051311 -80.44824219 133.32446289 C-96.42549615 129.85206868 -109.26511914 121.3987143 -118.28491211 107.63574219 C-121.8088122 101.48232233 -124.36384456 94.85800557 -127.0625 88.3125 C-127.67493255 86.8479521 -128.28820894 85.38375677 -128.90234375 83.91992188 C-130.07486023 81.12035013 -131.23638032 78.31665527 -132.38769531 75.50830078 C-133.33280757 73.20305879 -134.30004505 70.91447351 -135.29199219 68.62841797 C-135.66743164 67.74943848 -136.04287109 66.87045898 -136.4296875 65.96484375 C-136.75050293 65.23257568 -137.07131836 64.50030762 -137.40185547 63.74584961 C-138.07439752 61.23991012 -138.04783291 60.10609415 -136.9375 57.75 C-131.56306107 53.78491455 -124.88860427 52.15481746 -118.625 50.0625 C-117.42681641 49.64677734 -116.22863281 49.23105469 -114.99414062 48.80273438 C-108.75323135 46.70867721 -103.53002617 45.18492633 -96.9375 45.75 C-93.25511715 52.77310132 -90.01238142 59.7962062 -87.30859375 67.25390625 C-85.78323919 71.1433431 -84.05617402 74.91003524 -82.31323242 78.70581055 C-79.89740392 84.05150099 -77.64495608 89.46614489 -75.375 94.875 C-73.570131 99.16994274 -71.75775018 103.4615548 -69.9375 107.75 C-69.55480957 108.66491211 -69.17211914 109.57982422 -68.77783203 110.52246094 C-68.42962402 111.3374707 -68.08141602 112.15248047 -67.72265625 112.9921875 C-67.42367432 113.69972168 -67.12469238 114.40725586 -66.81665039 115.13623047 C-66.03316115 116.94029063 -66.03316115 116.94029063 -63.9375 117.75 C-63.65390625 117.01007813 -63.3703125 116.27015625 -63.078125 115.5078125 C-62.07800489 113.08971388 -60.95209074 110.90969393 -59.6875 108.625 C-50.93558401 91.09527477 -48.01567805 72.05434035 -47.71484375 52.6640625 C-47.69969223 51.76731308 -47.68454071 50.87056366 -47.66893005 49.94664001 C-47.59786948 45.38315004 -47.56243543 40.8230531 -47.57885742 36.2590332 C-47.56610239 34.55679949 -47.55285827 32.85456935 -47.5390625 31.15234375 C-47.55255234 30.36465607 -47.56604218 29.57696838 -47.5799408 28.76541138 C-47.52663064 24.89621533 -47.32320994 23.1520529 -44.59814453 20.31152344 C-41.53774762 18.51538665 -38.5236442 17.27531225 -35.1875 16.0625 C-25.70514222 12.47336107 -16.67644781 7.79690973 -7.98608398 2.578125 C-3.22418902 -0.27439907 -3.22418902 -0.27439907 0 0 Z " fill="#632827" transform="translate(417.9375,259.25)"/>
<path d="M0 0 C0 0.66 0 1.32 0 2 C0.90878906 2.38478516 0.90878906 2.38478516 1.8359375 2.77734375 C6.08057798 5.175489 8.13706054 9.68190772 9.796875 14.140625 C12.76333184 25.28488179 9.63751826 35.37452031 4.25 45.1875 C-5.66360712 57.5795089 -20.80649898 64.23468647 -35.12158203 70.20019531 C-37.97039492 71.41318089 -40.7632119 72.73994773 -43.5625 74.0625 C-54.93757631 79.32538721 -66.49744654 83.62101755 -78.41601562 87.46459961 C-82.58187288 88.81626179 -86.6738051 90.23987678 -90.7265625 91.90234375 C-97.23311512 94.55252565 -103.89519997 96.73192583 -110.5625 98.9375 C-111.22707214 99.15854401 -111.89164429 99.37958801 -112.57635498 99.60733032 C-120.05620464 102.09428085 -127.54151426 104.53219353 -135.125 106.6875 C-147.60724812 110.24012773 -160.10639213 114.30835732 -171.80859375 119.95703125 C-178.20224719 123 -178.20224719 123 -182 123 C-182 121.68 -182 120.36 -182 119 C-181.34 119 -180.68 119 -180 119 C-180.33 118.01 -180.66 117.02 -181 116 C-180.67 115.01 -180.34 114.02 -180 113 C-182.31 112.34 -184.62 111.68 -187 111 C-187 110.67 -187 110.34 -187 110 C-185.78828125 109.70867187 -184.5765625 109.41734375 -183.328125 109.1171875 C-173.75786799 106.78688687 -164.29599162 104.25730002 -154.8828125 101.35717773 C-149.40846819 99.68451937 -143.91169575 98.17575744 -138.36914062 96.74633789 C-84.15068212 82.91010518 -84.15068212 82.91010518 -35.609375 56.18359375 C-34 55 -34 55 -32 55 C-32 54.34 -32 53.68 -32 53 C-30.4609375 51.51953125 -30.4609375 51.51953125 -28.375 49.8125 C-19.89687306 42.71364256 -19.89687306 42.71364256 -15.69921875 33.0390625 C-15.69535156 31.91242188 -15.69148437 30.78578125 -15.6875 29.625 C-15.66236328 27.94277344 -15.66236328 27.94277344 -15.63671875 26.2265625 C-16.03456195 22.6930304 -16.88623125 20.82864431 -19 18 C-19.66 17.67 -20.32 17.34 -21 17 C-21 16.34 -21 15.68 -21 15 C-32.66512973 9.8154979 -46.34861725 10.62779732 -58.19140625 14.87109375 C-59.11824219 15.24363281 -60.04507813 15.61617187 -61 16 C-61.77214844 16.30035156 -62.54429687 16.60070312 -63.33984375 16.91015625 C-70.84752222 20.0462751 -78.77671343 23.79788808 -85.26171875 28.71484375 C-87 30 -87 30 -89 30 C-89 30.66 -89 31.32 -89 32 C-90.69903023 33.51740976 -92.46072723 34.965128 -94.25 36.375 C-97.05313312 38.59229313 -99.73701197 40.7305752 -102.234375 43.2890625 C-104 45 -104 45 -106 45 C-106 45.66 -106 46.32 -106 47 C-107.9140625 48.55859375 -107.9140625 48.55859375 -110.625 50.4375 C-114.37276041 53.0860437 -118.00298715 55.77862795 -121.56176758 58.68041992 C-132.13426496 67.26194092 -143.57123797 74.62170783 -155 82 C-155.73959961 82.47775879 -156.47919922 82.95551758 -157.24121094 83.44775391 C-169.16735986 91.07232953 -182.2141958 98.49855239 -196 102 C-195.67 100.68 -195.34 99.36 -195 98 C-193.68 98.33 -192.36 98.66 -191 99 C-190.67 98.01 -190.34 97.02 -190 96 C-189.01 96 -188.02 96 -187 96 C-187.33 95.01 -187.66 94.02 -188 93 C-187.67 92.01 -187.34 91.02 -187 90 C-187.99 89.67 -188.98 89.34 -190 89 C-190 88.34 -190 87.68 -190 87 C-191.65 87 -193.3 87 -195 87 C-191.94500889 85.40977362 -188.84261385 84.10951407 -185.6328125 82.86328125 C-155.44330394 71.03956185 -131.39983046 55.27202365 -107.671875 33.328125 C-106 32 -106 32 -104 32 C-104 31.34 -104 30.68 -104 30 C-102.30725716 28.43567213 -100.54430148 26.94671428 -98.75 25.5 C-97.77546875 24.7059375 -96.8009375 23.911875 -95.796875 23.09375 C-93.55105238 21.41251966 -91.5534197 20.11864101 -89 19 C-89 18.34 -89 17.68 -89 17 C-86.72274586 15.16379508 -84.44274135 13.44349242 -82.0625 11.75 C-81.02198486 11.00411621 -81.02198486 11.00411621 -79.96044922 10.24316406 C-78.58373693 9.25929256 -77.20487577 8.27841999 -75.82373047 7.30078125 C-74.39926696 6.28477836 -72.99439166 5.24129712 -71.59765625 4.1875 C-66.87784097 0.74810986 -61.79345348 -1.55045821 -56.4375 -3.8125 C-55.72867676 -4.11510742 -55.01985352 -4.41771484 -54.28955078 -4.72949219 C-36.83678004 -11.79476873 -16.00881758 -8.88447468 0 0 Z " fill="#642927" transform="translate(413,197)"/>
<path d="M0 0 C1.03555527 0.0136409 2.07111053 0.0272818 3.13804626 0.04133606 C4.8052346 0.07247749 4.8052346 0.07247749 6.50610352 0.10424805 C7.66441177 0.12311569 8.82272003 0.14198334 10.01612854 0.16142273 C12.46978622 0.20327847 14.92339623 0.24801318 17.37695312 0.29541016 C21.08983269 0.36511861 24.8027264 0.41980405 28.51586914 0.47338867 C43.88600814 0.73070488 58.3740315 1.40018266 73.19750977 5.8034668 C74.54449951 6.19924927 74.54449951 6.19924927 75.91870117 6.60302734 C91.84875963 11.40717206 106.48663598 18.91331974 119.69750977 29.0534668 C119.69750977 29.7134668 119.69750977 30.3734668 119.69750977 31.0534668 C120.50961914 31.37831055 120.50961914 31.37831055 121.33813477 31.7097168 C124.5139632 33.51846677 126.90479058 35.97070479 129.44750977 38.5534668 C129.95411133 39.05233398 130.46071289 39.55120117 130.98266602 40.06518555 C134.69750977 43.80005541 134.69750977 43.80005541 134.69750977 46.0534668 C135.35750977 46.0534668 136.01750977 46.0534668 136.69750977 46.0534668 C138.38584948 48.24891574 139.93066346 50.43024914 141.44750977 52.7409668 C141.89199463 53.41562988 142.33647949 54.09029297 142.79443359 54.78540039 C153.10457091 70.77013844 153.10457091 70.77013844 152.34204102 76.9206543 C152.1293457 77.62448242 151.91665039 78.32831055 151.69750977 79.0534668 C151.12009033 79.03775635 150.5426709 79.0220459 149.94775391 79.00585938 C129.86868665 78.03304777 129.86868665 78.03304777 110.69750977 83.0534668 C108.69790965 83.0934588 106.69703734 83.09693479 104.69750977 83.0534668 C104.35719727 81.9397168 104.01688477 80.8259668 103.66625977 79.6784668 C99.21230665 65.49997116 93.41249227 52.67311502 85.14282227 40.2878418 C83.8305976 38.2592134 82.72854017 36.23564765 81.69750977 34.0534668 C81.03750977 34.0534668 80.37750977 34.0534668 79.69750977 34.0534668 C79.05813477 33.3728418 78.41875977 32.6922168 77.76000977 31.9909668 C68.06710129 21.95595567 53.27631269 16.18415 39.45654297 15.78222656 C37.55386797 15.76118063 35.6510777 15.74910246 33.74829102 15.74487305 C31.6630015 15.71973439 29.57771511 15.69433608 27.49243164 15.66870117 C24.24040398 15.63989602 20.98842998 15.61584288 17.73632812 15.59716797 C14.57338608 15.57550561 11.41102981 15.53609453 8.24829102 15.49487305 C6.79499138 15.49469933 6.79499138 15.49469933 5.31233215 15.49452209 C0.05091145 15.41752484 -3.79357654 15.07953235 -8.30249023 12.0534668 C-10.48435226 8.81586508 -11.41477184 7.0864576 -10.98999023 3.1784668 C-10.76311523 2.4772168 -10.53624023 1.7759668 -10.30249023 1.0534668 C-6.79122826 0.2493065 -3.5984469 -0.05542041 0 0 Z " fill="#642A28" transform="translate(255.302490234375,105.946533203125)"/>
<path d="M0 0 C0 3.1474213 -0.600266 4.28801537 -2 7 C-2 7.66 -2 8.32 -2 9 C-3.98 9.33 -5.96 9.66 -8 10 C-8 10.66 -8 11.32 -8 12 C-9.5 13.625 -9.5 13.625 -11 15 C-8.36095629 16.41377341 -5.92879371 17.37240135 -3 18 C-2.67 16.68 -2.34 15.36 -2 14 C-1.05125 14.061875 -0.1025 14.12375 0.875 14.1875 C2.421875 14.0946875 2.421875 14.0946875 4 14 C4.66 13.01 5.32 12.02 6 11 C9.125 10.8125 9.125 10.8125 12 11 C-5.85272887 25.33430785 -33.84698852 33.7730272 -55.51953125 40.53515625 C-58.63334191 41.51705562 -61.64361867 42.63572466 -64.6640625 43.875 C-71.1913274 46.53575167 -77.87321934 48.72465453 -84.5625 50.9375 C-85.22707214 51.15854401 -85.89164429 51.37958801 -86.57635498 51.60733032 C-94.05620464 54.09428085 -101.54151426 56.53219353 -109.125 58.6875 C-121.60724812 62.24012773 -134.10639213 66.30835732 -145.80859375 71.95703125 C-152.20224719 75 -152.20224719 75 -156 75 C-156 73.68 -156 72.36 -156 71 C-155.34 71 -154.68 71 -154 71 C-154.33 70.01 -154.66 69.02 -155 68 C-154.67 67.01 -154.34 66.02 -154 65 C-156.31 64.34 -158.62 63.68 -161 63 C-161 62.67 -161 62.34 -161 62 C-159.18242187 61.56300781 -159.18242187 61.56300781 -157.328125 61.1171875 C-147.75786799 58.78688687 -138.29599162 56.25730002 -128.8828125 53.35717773 C-123.40846819 51.68451937 -117.91169575 50.17575744 -112.36914062 48.74633789 C-58.15068212 34.91010518 -58.15068212 34.91010518 -9.609375 8.18359375 C-8 7 -8 7 -6 7 C-6 6.34 -6 5.68 -6 5 C-4.04072937 3.2856382 -2.04119788 1.61594832 0 0 Z " fill="#76443A" transform="translate(387,245)"/>
<path d="M0 0 C0 1.65 0 3.3 0 5 C0.99 5 1.98 5 3 5 C2.6875 6.9375 2.6875 6.9375 2 9 C1.01 9.33 0.02 9.66 -1 10 C0.65 10.33 2.3 10.66 4 11 C1.17753826 13.1458442 -1.689324 15.19929134 -4.625 17.1875 C-5.40101563 17.71730469 -6.17703125 18.24710938 -6.9765625 18.79296875 C-9 20 -9 20 -11 20 C-11 20.66 -11 21.32 -11 22 C-12.69903023 23.51740976 -14.46072723 24.965128 -16.25 26.375 C-19.05313312 28.59229313 -21.73701197 30.7305752 -24.234375 33.2890625 C-26 35 -26 35 -28 35 C-28 35.66 -28 36.32 -28 37 C-29.9140625 38.55859375 -29.9140625 38.55859375 -32.625 40.4375 C-36.37276041 43.0860437 -40.00298715 45.77862795 -43.56176758 48.68041992 C-54.13426496 57.26194092 -65.57123797 64.62170783 -77 72 C-77.73959961 72.47775879 -78.47919922 72.95551758 -79.24121094 73.44775391 C-91.16735986 81.07232953 -104.2141958 88.49855239 -118 92 C-117.67 90.68 -117.34 89.36 -117 88 C-115.68 88.33 -114.36 88.66 -113 89 C-112.67 88.01 -112.34 87.02 -112 86 C-111.01 86 -110.02 86 -109 86 C-109.33 85.01 -109.66 84.02 -110 83 C-109.67 82.01 -109.34 81.02 -109 80 C-109.99 79.67 -110.98 79.34 -112 79 C-112 78.34 -112 77.68 -112 77 C-113.65 77 -115.3 77 -117 77 C-113.94500889 75.40977362 -110.84261385 74.10951407 -107.6328125 72.86328125 C-77.44330394 61.03956185 -53.39983046 45.27202365 -29.671875 23.328125 C-28 22 -28 22 -26 22 C-26 21.34 -26 20.68 -26 20 C-24.30725716 18.43567213 -22.54430148 16.94671428 -20.75 15.5 C-19.77546875 14.7059375 -18.8009375 13.911875 -17.796875 13.09375 C-15.55105238 11.41251966 -13.5534197 10.11864101 -11 9 C-11 8.34 -11 7.68 -11 7 C-9.1015625 5.2734375 -9.1015625 5.2734375 -6.625 3.375 C-5.81289063 2.74335938 -5.00078125 2.11171875 -4.1640625 1.4609375 C-2 0 -2 0 0 0 Z " fill="#652D27" transform="translate(335,207)"/>
<path d="M0 0 C0 0.66 0 1.32 0 2 C1.98 2 3.96 2 6 2 C6 2.99 6 3.98 6 5 C4.68 4.34 3.36 3.68 2 3 C2.495 4.485 2.495 4.485 3 6 C-0.98415342 8.67145548 -4.97841084 10.01446559 -9.5625 11.25 C-22.57360791 14.92574534 -35.61269292 19.07004782 -47.80859375 24.95703125 C-54.20224719 28 -54.20224719 28 -58 28 C-58 26.68 -58 25.36 -58 24 C-57.34 24 -56.68 24 -56 24 C-56.33 23.01 -56.66 22.02 -57 21 C-56.67 20.01 -56.34 19.02 -56 18 C-58.31 17.34 -60.62 16.68 -63 16 C-63 15.67 -63 15.34 -63 15 C-61.18242187 14.56300781 -61.18242187 14.56300781 -59.328125 14.1171875 C-50.37777797 11.93754128 -41.49931437 9.62695345 -32.6875 6.9375 C-7.78637518 -0.63562246 -7.78637518 -0.63562246 0 0 Z " fill="#6B342E" transform="translate(289,292)"/>
<path d="M0 0 C0 3 0 6 0 9 C0.99 9.33 1.98 9.66 3 10 C-16.45847652 20.73759068 -16.45847652 20.73759068 -26 24 C-26.66 23.67 -27.32 23.34 -28 23 C-27.505 21.515 -27.505 21.515 -27 20 C-25.68 20.33 -24.36 20.66 -23 21 C-22.67 20.01 -22.34 19.02 -22 18 C-21.01 18 -20.02 18 -19 18 C-19.33 17.01 -19.66 16.02 -20 15 C-19.67 14.01 -19.34 13.02 -19 12 C-19.99 11.67 -20.98 11.34 -22 11 C-22 10.34 -22 9.68 -22 9 C-23.65 9 -25.3 9 -27 9 C-22.27560624 6.55467995 -17.3339094 4.72208003 -12.375 2.8125 C-11.40820312 2.43158203 -10.44140625 2.05066406 -9.4453125 1.65820312 C-8.52234375 1.30306641 -7.599375 0.94792969 -6.6484375 0.58203125 C-5.80458496 0.25436768 -4.96073242 -0.0732959 -4.09130859 -0.41088867 C-2 -1 -2 -1 0 0 Z " fill="#6B342E" transform="translate(245,275)"/>
<path d="M0 0 C0 0.66 0 1.32 0 2 C1.98 2 3.96 2 6 2 C6 2.99 6 3.98 6 5 C4.68 4.34 3.36 3.68 2 3 C2.495 4.485 2.495 4.485 3 6 C-5.06723252 11.22876182 -14.49984874 13.35592195 -24 14 C-24.33 12.68 -24.66 11.36 -25 10 C-27.97 9.505 -27.97 9.505 -31 9 C-28.4345406 6.4345406 -26.52313332 6.45953913 -23 6 C-23 5.34 -23 4.68 -23 4 C-7.25512528 -0.59225513 -7.25512528 -0.59225513 0 0 Z " fill="#6E372D" transform="translate(289,292)"/>
<path d="M0 0 C0 3.1474213 -0.600266 4.28801537 -2 7 C-2 7.66 -2 8.32 -2 9 C-3.98 9.33 -5.96 9.66 -8 10 C-8 10.66 -8 11.32 -8 12 C-9.5 13.625 -9.5 13.625 -11 15 C-8.36095629 16.41377341 -5.92879371 17.37240135 -3 18 C-2.67 16.68 -2.34 15.36 -2 14 C-0.576875 14.0928125 -0.576875 14.0928125 0.875 14.1875 C2.421875 14.0946875 2.421875 14.0946875 4 14 C4.66 13.01 5.32 12.02 6 11 C9.125 10.8125 9.125 10.8125 12 11 C8.40959589 13.96277563 4.46517835 15.90022784 0.3125 17.9375 C-0.39922363 18.28941406 -1.11094727 18.64132812 -1.84423828 19.00390625 C-16.06638997 26 -16.06638997 26 -19 26 C-19.33 24.02 -19.66 22.04 -20 20 C-19.34 19.67 -18.68 19.34 -18 19 C-19.98 18.67 -21.96 18.34 -24 18 C-20.56662594 15.17325123 -17.06054842 12.6430241 -13.3125 10.25 C-12.35988281 9.63640625 -11.40726562 9.0228125 -10.42578125 8.390625 C-8 7 -8 7 -6 7 C-6 6.34 -6 5.68 -6 5 C-4.04072937 3.2856382 -2.04119788 1.61594832 0 0 Z " fill="#69352A" transform="translate(387,245)"/>
<path d="M0 0 C0 0.99 0 1.98 0 3 C0.99 3.33 1.98 3.66 3 4 C1.576875 4.2165625 1.576875 4.2165625 0.125 4.4375 C-2.8934494 4.82935399 -2.8934494 4.82935399 -5 6 C-5 6.66 -5 7.32 -5 8 C-7.26708325 8.8655047 -9.53775079 9.71759315 -11.8125 10.5625 C-12.45509766 10.80935547 -13.09769531 11.05621094 -13.75976562 11.31054688 C-18.66015625 13.11328125 -18.66015625 13.11328125 -22 12 C-22 11.01 -22 10.02 -22 9 C-19 10 -19 10 -18 11 C-18 10.01 -18 9.02 -18 8 C-19.98 8 -21.96 8 -24 8 C-24 7.34 -24 6.68 -24 6 C-25.32 5.67 -26.64 5.34 -28 5 C-24.79586926 3.98618248 -21.5861097 2.9914692 -18.375 2 C-17.47136719 1.71382813 -16.56773437 1.42765625 -15.63671875 1.1328125 C-4.53888575 -2.26944287 -4.53888575 -2.26944287 0 0 Z " fill="#744034" transform="translate(313,286)"/>
<path d="M0 0 C-0.99 1.32 -1.98 2.64 -3 4 C-2.34 4.66 -1.68 5.32 -1 6 C-1.66 6 -2.32 6 -3 6 C-3.05671875 6.58265625 -3.1134375 7.1653125 -3.171875 7.765625 C-4.37488736 11.01148854 -6.35076391 11.93603945 -9.25 13.75 C-10.20390625 14.36359375 -11.1578125 14.9771875 -12.140625 15.609375 C-15.08605913 17.04185389 -16.77985723 17.30556099 -20 17 C-20.185625 15.576875 -20.185625 15.576875 -20.375 14.125 C-20.71687177 10.91332809 -20.71687177 10.91332809 -23 9 C-18.84794202 4.98187937 -14.64944013 3.59529225 -9 3 C-8.67 3.33 -8.34 3.66 -8 4 C-7.67 3.01 -7.34 2.02 -7 1 C-2.55696203 -1.27848101 -2.55696203 -1.27848101 0 0 Z " fill="#652E27" transform="translate(265,267)"/>
<path d="M0 0 C-1.98 0.66 -3.96 1.32 -6 2 C-5.401875 2.0825 -4.80375 2.165 -4.1875 2.25 C-1.38926857 3.20939363 -0.69589407 4.64049521 1 7 C1.99 7.33 2.98 7.66 4 8 C0.751032 9.14877422 -2.49934712 10.29350301 -5.75 11.4375 C-6.67039062 11.76298828 -7.59078125 12.08847656 -8.5390625 12.42382812 C-9.42851562 12.73642578 -10.31796875 13.04902344 -11.234375 13.37109375 C-12.05131836 13.65911865 -12.86826172 13.94714355 -13.70996094 14.24389648 C-15.79331473 14.9317586 -17.86466653 15.50046918 -20 16 C-19.505 14.515 -19.505 14.515 -19 13 C-18.34 13 -17.68 13 -17 13 C-16.34 10.36 -15.68 7.72 -15 5 C-16.65 5 -18.3 5 -20 5 C-17.27202337 2.27202337 -14.19101443 1.7580301 -10.5625 0.8125 C-9.5405957 0.52729492 -9.5405957 0.52729492 -8.49804688 0.23632812 C-5.13849227 -0.65538519 -3.36476388 -1.12158796 0 0 Z " fill="#733D36" transform="translate(266,298)"/>
<path d="M0 0 C0 1.65 0 3.3 0 5 C0.99 5 1.98 5 3 5 C2.6875 6.9375 2.6875 6.9375 2 9 C1.01 9.33 0.02 9.66 -1 10 C0.65 10.33 2.3 10.66 4 11 C1.17753826 13.1458442 -1.689324 15.19929134 -4.625 17.1875 C-5.78902344 17.98220703 -5.78902344 17.98220703 -6.9765625 18.79296875 C-9 20 -9 20 -11 20 C-10.34 18.68 -9.68 17.36 -9 16 C-8.34 16 -7.68 16 -7 16 C-7 15.34 -7 14.68 -7 14 C-6.67 13.67 -6.34 13.34 -6 13 C-6.825 12.38125 -7.65 11.7625 -8.5 11.125 C-9.325 10.42375 -10.15 9.7225 -11 9 C-11 8.34 -11 7.68 -11 7 C-9.1015625 5.2734375 -9.1015625 5.2734375 -6.625 3.375 C-5.40683594 2.42753906 -5.40683594 2.42753906 -4.1640625 1.4609375 C-2 0 -2 0 0 0 Z " fill="#652B2A" transform="translate(335,207)"/>
<path d="M0 0 C1.62111443 0.03014442 1.62111443 0.03014442 3.27497864 0.06089783 C4.43035629 0.08793289 5.58573395 0.11496796 6.77612305 0.14282227 C7.96763474 0.16643326 9.15914642 0.19004425 10.38676453 0.21437073 C14.18724928 0.2908592 17.98752264 0.37494773 21.7878418 0.45922852 C24.36660754 0.512464 26.94538356 0.5652043 29.52416992 0.61743164 C35.84135761 0.74645436 42.15838866 0.88171508 48.4753418 1.02172852 C48.4753418 1.35172852 48.4753418 1.68172852 48.4753418 2.02172852 C35.77325456 2.94530843 23.14504467 3.14546881 10.4128418 3.08422852 C8.56323365 3.07919579 6.71362416 3.07463606 4.86401367 3.07055664 C0.40108874 3.05970912 -4.0617691 3.04254572 -8.5246582 3.02172852 C-8.8546582 4.67172852 -9.1846582 6.32172852 -9.5246582 8.02172852 C-8.8646582 8.35172852 -8.2046582 8.68172852 -7.5246582 9.02172852 C-7.8546582 10.01172852 -8.1846582 11.00172852 -8.5246582 12.02172852 C-11.60158128 6.72942082 -11.60158128 6.72942082 -11.2121582 3.14672852 C-10.9852832 2.44547852 -10.7584082 1.74422852 -10.5246582 1.02172852 C-6.93201966 0.19032137 -3.68301685 -0.07762799 0 0 Z " fill="#663327" transform="translate(255.524658203125,105.978271484375)"/>
<path d="M0 0 C0.90796829 -0.00637985 1.81593658 -0.0127597 2.75141907 -0.01933289 C3.73990341 -0.02044571 4.72838776 -0.02155853 5.74682617 -0.02270508 C6.7569426 -0.02603348 7.76705902 -0.02936188 8.80778503 -0.03279114 C10.95062808 -0.03786576 13.09347907 -0.0401993 15.23632812 -0.04003906 C18.51535113 -0.04222007 21.79403489 -0.06035509 25.07299805 -0.0793457 C27.15177293 -0.08228059 29.23054943 -0.08426475 31.30932617 -0.08520508 C32.29173782 -0.09239059 33.27414948 -0.09957611 34.28633118 -0.10697937 C35.20375595 -0.10390274 36.12118073 -0.10082611 37.06640625 -0.09765625 C38.27433586 -0.09979378 38.27433586 -0.09979378 39.50666809 -0.10197449 C41.72729492 0.14526367 41.72729492 0.14526367 45.72729492 2.14526367 C30.21729492 2.47526367 14.70729492 2.80526367 -1.27270508 3.14526367 C-0.61270508 3.80526367 0.04729492 4.46526367 0.72729492 5.14526367 C0.85229492 8.77026367 0.85229492 8.77026367 0.72729492 12.14526367 C-0.26270508 12.47526367 -1.25270508 12.80526367 -2.27270508 13.14526367 C-2.21083008 11.90776367 -2.14895508 10.67026367 -2.08520508 9.39526367 C-2.06907682 6.36315065 -2.16619485 5.32278072 -3.77270508 2.64526367 C-4.26770508 2.15026367 -4.76270508 1.65526367 -5.27270508 1.14526367 C-3.70781197 -0.41962943 -2.17441416 0.01032312 0 0 Z " fill="#936F4F" transform="translate(189.272705078125,105.854736328125)"/>
<path d="M0 0 C0.99 0.33 1.98 0.66 3 1 C3 3.64 3 6.28 3 9 C3.99580078 8.98259766 3.99580078 8.98259766 5.01171875 8.96484375 C6.33623047 8.95130859 6.33623047 8.95130859 7.6875 8.9375 C8.55761719 8.92589844 9.42773438 8.91429687 10.32421875 8.90234375 C13 9 13 9 15.36210632 9.49327087 C17.92584831 9.98575575 20.27553054 10.15614209 22.88208008 10.20532227 C24.29297661 10.2352401 24.29297661 10.2352401 25.7323761 10.26576233 C26.7346373 10.28247482 27.7368985 10.29918732 28.76953125 10.31640625 C30.32374031 10.3475779 30.32374031 10.3475779 31.90934753 10.37937927 C35.21033265 10.4446213 38.51139549 10.50364179 41.8125 10.5625 C44.05404441 10.60570932 46.29558103 10.64932438 48.53710938 10.69335938 C54.02465807 10.80027667 59.51228361 10.90208962 65 11 C65 11.33 65 11.66 65 12 C57.4926832 12.0254785 49.98537767 12.04292065 42.47802734 12.05493164 C39.92724185 12.05994205 37.37645921 12.0667522 34.82568359 12.07543945 C31.14680272 12.08764972 27.46796003 12.09326138 23.7890625 12.09765625 C22.09470566 12.10539818 22.09470566 12.10539818 20.36611938 12.11329651 C15.34821271 12.11364732 10.33498565 12.05151865 5.32568359 11.74389648 C4.53616302 11.69837143 3.74664246 11.65284637 2.93319702 11.60594177 C1 11 1 11 -0.29379272 9.18788147 C-1.33394411 5.96541687 -0.62937255 3.27273724 0 0 Z " fill="#876F4A" transform="translate(77,382)"/>
<path d="M0 0 C-1.98 0.99 -1.98 0.99 -4 2 C-2.02 1.67 -0.04 1.34 2 1 C2.99 2.65 3.98 4.3 5 6 C1.66666667 7.33333333 -1.66666667 8.66666667 -5 10 C-5.886875 10.3815625 -6.77375 10.763125 -7.6875 11.15625 C-10.29218604 12.10660842 -11.44077343 11.94786169 -14 11 C-13.67 10.34 -13.34 9.68 -13 9 C-10.9375 8.375 -10.9375 8.375 -9 8 C-9 7.01 -9 6.02 -9 5 C-10.65 4.67 -12.3 4.34 -14 4 C-11.37350692 2.24900461 -9.38191413 1.30690675 -6.4375 0.3125 C-5.65246094 0.04050781 -4.86742187 -0.23148437 -4.05859375 -0.51171875 C-2 -1 -2 -1 0 0 Z " fill="#753E35" transform="translate(322,281)"/>
<path d="M0 0 C4.28277293 3.65719936 5.13125802 8.6165359 6 14 C5.95866016 17.72517936 5.59016591 21.32390632 5 25 C4.34 25 3.68 25 3 25 C2.67 25.99 2.34 26.98 2 28 C2 26.35 2 24.7 2 23 C1.01 22.67 0.02 22.34 -1 22 C-1.6875 19.9375 -1.6875 19.9375 -2 18 C-1.01 17.67 -0.02 17.34 1 17 C1.33 14.69 1.66 12.38 2 10 C1.34 10 0.68 10 0 10 C-1.10807948 6.67576157 -0.76802174 5.32809422 0 2 C0 1.34 0 0.68 0 0 Z " fill="#713C30" transform="translate(418,204)"/>
<path d="M0 0 C0 0.99 0 1.98 0 3 C0.99 3.33 1.98 3.66 3 4 C1.576875 4.2165625 1.576875 4.2165625 0.125 4.4375 C-2.8934494 4.82935399 -2.8934494 4.82935399 -5 6 C-5 6.66 -5 7.32 -5 8 C-6.43503555 8.36402369 -7.87316506 8.71586591 -9.3125 9.0625 C-10.11300781 9.25972656 -10.91351563 9.45695312 -11.73828125 9.66015625 C-14 10 -14 10 -17 9 C-16.01 8.38125 -16.01 8.38125 -15 7.75 C-14.34 7.1725 -13.68 6.595 -13 6 C-13 4.68 -13 3.36 -13 2 C-10 1 -10 1 -7 2 C-7 1.34 -7 0.68 -7 0 C-4.3333581 -1.33332095 -2.83319697 -0.67102033 0 0 Z " fill="#662E28" transform="translate(313,286)"/>
<path d="M0 0 C-0.99 2.64 -1.98 5.28 -3 8 C-3.66 8 -4.32 8 -5 8 C-5.33 8.99 -5.66 9.98 -6 11 C-8.31 11 -10.62 11 -13 11 C-12.835 10.236875 -12.67 9.47375 -12.5 8.6875 C-11.90854604 5.96403764 -11.90854604 5.96403764 -12 3 C-7.92325558 0.05568459 -4.85823945 -1.61941315 0 0 Z " fill="#602424" transform="translate(252,303)"/>
<path d="M0 0 C-0.33 0.66 -0.66 1.32 -1 2 C0.32 2 1.64 2 3 2 C3 2.66 3 3.32 3 4 C0.91798472 4.50546036 -1.16567067 5.00416835 -3.25 5.5 C-4.41015625 5.7784375 -5.5703125 6.056875 -6.765625 6.34375 C-10 7 -10 7 -14 7 C-14 6.34 -14 5.68 -14 5 C-14.99 4.67 -15.98 4.34 -17 4 C-12.86112967 -0.79792612 -5.94241689 -1.91690867 0 0 Z " fill="#5F2923" transform="translate(353,272)"/>
<path d="M0 0 C0 0.66 0 1.32 0 2 C1.65 2 3.3 2 5 2 C4.67 2.78375 4.34 3.5675 4 4.375 C2.88133489 6.84332497 2.88133489 6.84332497 3 9 C2.01 9.33 1.02 9.66 0 10 C-0.33 10.66 -0.66 11.32 -1 12 C-2.32 11.67 -3.64 11.34 -5 11 C-5 11.99 -5 12.98 -5 14 C-5.66 13.67 -6.32 13.34 -7 13 C-4.25 6.125 -4.25 6.125 -2 5 C-2 4.34 -2 3.68 -2 3 C-3.98 3.33 -5.96 3.66 -8 4 C-8 3.01 -8 2.02 -8 1 C-5.29120665 -0.35439668 -2.99066732 -0.06501451 0 0 Z " fill="#5E2523" transform="translate(223,284)"/>
<path d="M0 0 C1.02273062 3.16173429 0.95654688 5.0974755 0.03125 8.2734375 C-0.20706543 9.09231445 -0.44538086 9.91119141 -0.69091797 10.75488281 C-0.95791504 11.61952148 -1.22491211 12.48416016 -1.5 13.375 C-1.9024292 14.70289551 -1.9024292 14.70289551 -2.31298828 16.05761719 C-4.7638125 23.83332456 -8.02154626 30.89057379 -12 38 C-13.26426661 34.20720018 -12.40145184 32.65934648 -11 29 C-10.67 28.34 -10.34 27.68 -10 27 C-9.34 27 -8.68 27 -8 27 C-8 26.030625 -8 25.06125 -8 24.0625 C-8 22.70833333 -8 21.35416667 -8 20 C-7.01 19.67 -6.02 19.34 -5 19 C-4.81824219 17.51886719 -4.81824219 17.51886719 -4.6328125 16.0078125 C-4.46523438 14.72648437 -4.29765625 13.44515625 -4.125 12.125 C-3.96257812 10.84882813 -3.80015625 9.57265625 -3.6328125 8.2578125 C-3 5 -3 5 -1 3 C-0.67 2.01 -0.34 1.02 0 0 Z " fill="#8A614E" transform="translate(414,324)"/>
<path d="M0 0 C0.56203125 0.23589844 1.1240625 0.47179687 1.703125 0.71484375 C1.373125 1.33359375 1.043125 1.95234375 0.703125 2.58984375 C-0.43880735 4.62502719 -0.43880735 4.62502719 -0.296875 6.71484375 C0.693125 7.37484375 1.683125 8.03484375 2.703125 8.71484375 C1.60866662 9.58141491 0.50214719 10.43277099 -0.609375 11.27734375 C-1.22425781 11.75300781 -1.83914063 12.22867187 -2.47265625 12.71875 C-3.07464844 13.04746094 -3.67664063 13.37617188 -4.296875 13.71484375 C-5.286875 13.38484375 -6.276875 13.05484375 -7.296875 12.71484375 C-5.976875 11.06484375 -4.656875 9.41484375 -3.296875 7.71484375 C-3.874375 7.92109375 -4.451875 8.12734375 -5.046875 8.33984375 C-7.83418528 8.80439546 -8.87718499 8.04668993 -11.296875 6.71484375 C-9.89314698 5.5120768 -8.47335403 4.32803856 -7.046875 3.15234375 C-6.25796875 2.49105469 -5.4690625 1.82976562 -4.65625 1.1484375 C-2.296875 -0.28515625 -2.296875 -0.28515625 0 0 Z " fill="#79453B" transform="translate(282.296875,252.28515625)"/>
<path d="M0 0 C2.96175123 0.61277612 4.38058783 1.25372522 7 3 C7.99 3.33 8.98 3.66 10 4 C8.68 4.33 7.36 4.66 6 5 C6 5.66 6 6.32 6 7 C4.70766393 8.37310707 3.37562854 9.71034824 2 11 C-2.66990291 9.5631068 -2.66990291 9.5631068 -4.0625 7.1875 C-3.96825972 3.88909037 -2.16400579 2.36073359 0 0 Z M-2 5 C-2.33 5.66 -2.66 6.32 -3 7 C-2.34 7 -1.68 7 -1 7 C-1.33 6.34 -1.66 5.68 -2 5 Z " fill="#652C27" transform="translate(322,216)"/>
<path d="M0 0 C0.33 1.32 0.66 2.64 1 4 C-4.2734375 7.22265625 -4.2734375 7.22265625 -6 8 C-8 7 -8 7 -9 4 C-11.97 3.505 -11.97 3.505 -15 3 C-10.55325099 -1.44674901 -5.86487253 -1.17297451 0 0 Z " fill="#5C231E" transform="translate(273,298)"/>
<path d="M0 0 C0.66 0.33 1.32 0.66 2 1 C2.12375 1.639375 2.2475 2.27875 2.375 2.9375 C2.80939427 5.19851273 2.80939427 5.19851273 5.0625 6.25 C5.701875 6.4975 6.34125 6.745 7 7 C7 7.66 7 8.32 7 9 C5.02 9.99 5.02 9.99 3 11 C2.67 9.35 2.34 7.7 2 6 C0.35 6 -1.3 6 -3 6 C-3.2784375 6.86625 -3.2784375 6.86625 -3.5625 7.75 C-5.74569692 11.16717779 -8.36059284 12.24528583 -12 14 C-12.66 13.67 -13.32 13.34 -14 13 C-12.71034824 11.62437146 -11.37310707 10.29233607 -10 9 C-9.34 9 -8.68 9 -8 9 C-8 8.34 -8 7.68 -8 7 C-6.25 5.2734375 -6.25 5.2734375 -4 3.375 C-3.2575 2.74335938 -2.515 2.11171875 -1.75 1.4609375 C-1.1725 0.97882813 -0.595 0.49671875 0 0 Z M3 1 C3.33 1.66 3.66 2.32 4 3 C3.34 2.67 2.68 2.34 2 2 C2.33 1.67 2.66 1.34 3 1 Z " fill="#714935" transform="translate(317,220)"/>
<path d="M0 0 C0 0.66 0 1.32 0 2 C-4.455 3.485 -4.455 3.485 -9 5 C-9 6.32 -9 7.64 -9 9 C-9.30404678 10.67225729 -9.63128912 12.34080104 -10 14 C-10.33 12.68 -10.66 11.36 -11 10 C-11.66 10 -12.32 10 -13 10 C-13 9.34 -13 8.68 -13 8 C-13.66 8 -14.32 8 -15 8 C-14.8125 6.1875 -14.8125 6.1875 -14 4 C-9.81526682 0.89134107 -5.11306848 -1.70435616 0 0 Z " fill="#734233" transform="translate(295,313)"/>
<path d="M0 0 C3.63 0 7.26 0 11 0 C10.67 0.99 10.34 1.98 10 3 C9.34 3 8.68 3 8 3 C7.773125 3.639375 7.54625 4.27875 7.3125 4.9375 C6 7 6 7 3.375 7.75 C2.199375 7.87375 2.199375 7.87375 1 8 C0.34 7.01 -0.32 6.02 -1 5 C-0.67 3.35 -0.34 1.7 0 0 Z " fill="#5F2422" transform="translate(247,109)"/>
<path d="M0 0 C0.33 3.3 0.66 6.6 1 10 C0.34 10 -0.32 10 -1 10 C-1 7.03 -1 4.06 -1 1 C-2.29633621 2.06645115 -2.29633621 2.06645115 -2.0625 4.5625 C-2.041875 5.366875 -2.02125 6.17125 -2 7 C-2.99 7.495 -2.99 7.495 -4 8 C-4 7.34 -4 6.68 -4 6 C-5.32 6 -6.64 6 -8 6 C-8 5.01 -8 4.02 -8 3 C-9.32 3.33 -10.64 3.66 -12 4 C-8.20200235 -0.17779742 -5.57396889 -1.54832469 0 0 Z " fill="#723636" transform="translate(420,260)"/>
<path d="M0 0 C0.73154297 0.05671875 1.46308594 0.1134375 2.21679688 0.171875 C3.99961286 0.3117037 5.78122382 0.46675938 7.5625 0.625 C7.5625 0.955 7.5625 1.285 7.5625 1.625 C6.27279297 1.66367188 6.27279297 1.66367188 4.95703125 1.703125 C-3.76047471 2.12141318 -11.20889898 3.81180307 -19.4375 6.625 C-20.76633234 6.97584682 -22.09800408 7.31736457 -23.4375 7.625 C-23.1075 5.975 -22.7775 4.325 -22.4375 2.625 C-21.426875 2.50125 -20.41625 2.3775 -19.375 2.25 C-15.51053243 1.74472112 -15.51053243 1.74472112 -12.21875 0.5625 C-7.8899842 -0.51074772 -4.39353357 -0.40197013 0 0 Z " fill="#8D5E50" transform="translate(371.4375,206.375)"/>
<path d="M0 0 C-2.83099717 1.13118904 -5.66456009 2.25504568 -8.5 3.375 C-9.29148437 3.69210937 -10.08296875 4.00921875 -10.8984375 4.3359375 C-15.88384206 6.29740815 -20.77457354 7.81349262 -26 9 C-26 7.68 -26 6.36 -26 5 C-24.989375 4.7525 -23.97875 4.505 -22.9375 4.25 C-20.01933917 3.53095677 -17.12826743 2.75493825 -14.234375 1.94140625 C-13.56929932 1.75610352 -12.90422363 1.57080078 -12.21899414 1.37988281 C-10.87511003 1.00454491 -9.53308483 0.62248007 -8.19311523 0.23339844 C-4.9010377 -0.67855314 -3.31680815 -1.10560272 0 0 Z " fill="#805546" transform="translate(355,277)"/>
<path d="M0 0 C1.65 0.33 3.3 0.66 5 1 C5.33 2.65 5.66 4.3 6 6 C5.05125 6.0825 4.1025 6.165 3.125 6.25 C-1.88977467 6.93991766 -6.38454926 9.00337644 -11 11 C-11 10.34 -11 9.68 -11 9 C-10.37351562 8.68546875 -9.74703125 8.3709375 -9.1015625 8.046875 C-8.28429687 7.61890625 -7.46703125 7.1909375 -6.625 6.75 C-5.81289063 6.33234375 -5.00078125 5.9146875 -4.1640625 5.484375 C-1.79198795 3.85732025 -1.02905196 2.64613361 0 0 Z " fill="#5E2322" transform="translate(314,225)"/>
<path d="M0 0 C2 2 2 2 3 4 C3.66 3.34 4.32 2.68 5 2 C5 5.3 5 8.6 5 12 C5.66 12 6.32 12 7 12 C7.103125 12.763125 7.20625 13.52625 7.3125 14.3125 C8.04364039 17.17059424 8.76951913 18.15742885 11 20 C10.34 21.32 9.68 22.64 9 24 C7.29646645 20.57021912 5.61499954 17.13007937 3.9375 13.6875 C3.20950195 12.22280273 3.20950195 12.22280273 2.46679688 10.72851562 C2.01240234 9.79072266 1.55800781 8.85292969 1.08984375 7.88671875 C0.66566162 7.02264404 0.24147949 6.15856934 -0.19555664 5.26831055 C-1 3 -1 3 0 0 Z " fill="#865F4F" transform="translate(240,224)"/>
<path d="M0 0 C2.83355004 1.88903336 4.20521303 3.17962047 6 6 C6 6.99 6 7.98 6 9 C6.99 9 7.98 9 9 9 C10.10844919 12.32534757 9.84454356 14.62182575 9 18 C9.66 18.33 10.32 18.66 11 19 C10.34 19.66 9.68 20.32 9 21 C7.49373883 17.87797994 5.99606757 14.75191601 4.5 11.625 C4.07074219 10.73554688 3.64148438 9.84609375 3.19921875 8.9296875 C2.59013672 7.65351563 2.59013672 7.65351563 1.96875 6.3515625 C1.59169922 5.56604004 1.21464844 4.78051758 0.82617188 3.97119141 C0 2 0 2 0 0 Z " fill="#794A3D" transform="translate(228,201)"/>
<path d="M0 0 C2.53188326 2.53188326 3.24553109 4.89965012 4.5 8.25 C4.9228125 9.36890625 5.345625 10.4878125 5.78125 11.640625 C6.90748115 14.74498008 7.97289681 17.86162915 9 21 C7 20 7 20 6 17 C5.01 16.67 4.02 16.34 3 16 C3 14.35 3 12.7 3 11 C2.34 11 1.68 11 1 11 C1 9.68 1 8.36 1 7 C0.34 7 -0.32 7 -1 7 C-1.625 5.1875 -1.625 5.1875 -2 3 C-1.34 2.01 -0.68 1.02 0 0 Z " fill="#7F5242" transform="translate(325,315)"/>
<path d="M0 0 C3.14340842 3.41674829 3.65504062 6.42928825 4 11 C3 12 3 12 0.95874023 12.02172852 C-0.35308228 11.95103149 -0.35308228 11.95103149 -1.69140625 11.87890625 C-3.10776367 11.80639648 -3.10776367 11.80639648 -4.55273438 11.73242188 C-5.54595703 11.67634766 -6.53917969 11.62027344 -7.5625 11.5625 C-8.55958984 11.51029297 -9.55667969 11.45808594 -10.58398438 11.40429688 C-13.05627522 11.2741763 -15.5282063 11.13919819 -18 11 C-18 10.67 -18 10.34 -18 10 C-12.06 10 -6.12 10 0 10 C0.372678 5.372678 0.372678 5.372678 -1 3 C-0.67 2.01 -0.34 1.02 0 0 Z " fill="#906A50" transform="translate(404,173)"/>
<path d="M0 0 C4.0967884 3.57155912 5.45129539 5.62269484 6 11 C6.350625 12.010625 6.70125 13.02125 7.0625 14.0625 C7.97248633 16.9137905 8.17440775 19.03506817 8 22 C2.81995609 15.5471453 0.60432706 8.15841526 0 0 Z " fill="#623123" transform="translate(289,337)"/>
<path d="M0 0 C3.29292575 2.68790023 4.64891915 6.24244544 6.25 10.0625 C6.53101563 10.69994141 6.81203125 11.33738281 7.1015625 11.99414062 C7.80057532 13.63612867 8.40758203 15.31661513 9 17 C8.67 17.66 8.34 18.32 8 19 C5 17 5 17 4 13.4375 C3.67 12.303125 3.34 11.16875 3 10 C2.01 9.67 1.02 9.34 0 9 C0.33 7.68 0.66 6.36 1 5 C0.34 4.67 -0.32 4.34 -1 4 C-0.34 4 0.32 4 1 4 C0.67 2.68 0.34 1.36 0 0 Z " fill="#7A463A" transform="translate(236,108)"/>
<path d="M0 0 C0 0.66 0 1.32 0 2 C0.99 1.67 1.98 1.34 3 1 C3.99 1.66 4.98 2.32 6 3 C4.35 3.33 2.7 3.66 1 4 C0.67 4.99 0.34 5.98 0 7 C-1.9375 6.625 -1.9375 6.625 -4 6 C-4.33 5.34 -4.66 4.68 -5 4 C-7.31 4.33 -9.62 4.66 -12 5 C-11 3 -11 3 -9.00390625 2.1484375 C-8.19824219 1.89320313 -7.39257812 1.63796875 -6.5625 1.375 C-5.75941406 1.11460937 -4.95632813 0.85421875 -4.12890625 0.5859375 C-2 0 -2 0 0 0 Z " fill="#592019" transform="translate(329,279)"/>
<path d="M0 0 C0.66 0.66 1.32 1.32 2 2 C2 1.34 2 0.68 2 0 C2.99 0.33 3.98 0.66 5 1 C5 1.99 5 2.98 5 4 C6.65 4 8.3 4 10 4 C7.6870518 6.3129482 6.52095125 6.49580975 3.375 7.125 C2.55773437 7.29257812 1.74046875 7.46015625 0.8984375 7.6328125 C-0.04128906 7.81457031 -0.04128906 7.81457031 -1 8 C-1 6.68 -1 5.36 -1 4 C2 5 2 5 3 6 C3 5.01 3 4.02 3 3 C1.02 3 -0.96 3 -3 3 C-3 2.34 -3 1.68 -3 1 C-4.32 0.67 -5.64 0.34 -7 0 C-3.85179059 -1.04940314 -3.00659136 -1.066855 0 0 Z " fill="#834D44" transform="translate(292,291)"/>
<path d="M0 0 C-2.97 0.99 -5.94 1.98 -9 3 C-9 3.66 -9 4.32 -9 5 C-10.41601714 5.48108275 -11.83284437 5.95978141 -13.25 6.4375 C-14.03890625 6.70433594 -14.8278125 6.97117187 -15.640625 7.24609375 C-21.66060606 9.16969697 -21.66060606 9.16969697 -24 8 C-3.54150198 -1.77075099 -3.54150198 -1.77075099 0 0 Z " fill="#916252" transform="translate(157,330)"/>
<path d="M0 0 C0.99 0.33 1.98 0.66 3 1 C-0.38678243 3.82515519 -4.09913106 5.5400433 -8.125 7.25 C-9.07439453 7.67152344 -9.07439453 7.67152344 -10.04296875 8.1015625 C-11.6691033 8.79897052 -13.33304382 9.40674742 -15 10 C-15.66 9.67 -16.32 9.34 -17 9 C-16.67 8.01 -16.34 7.02 -16 6 C-14.02 6.495 -14.02 6.495 -12 7 C-11.67 6.01 -11.34 5.02 -11 4 C-7.92382812 3.70703125 -7.92382812 3.70703125 -4.84765625 3.4140625 C-3.93306641 3.20910156 -3.93306641 3.20910156 -3 3 C-2.67 2.34 -2.34 1.68 -2 1 C-1.34 1.33 -0.68 1.66 0 2 C0 1.34 0 0.68 0 0 Z " fill="#896150" transform="translate(234,289)"/>
<path d="M0 0 C1.65 0 3.3 0 5 0 C2.63202009 2.61724095 0.10399646 4.32861729 -3 6 C-3.66 6 -4.32 6 -5 6 C-5 6.66 -5 7.32 -5 8 C-6.75 9.2890625 -6.75 9.2890625 -9 10.625 C-9.7425 11.07101562 -10.485 11.51703125 -11.25 11.9765625 C-11.8275 12.31429688 -12.405 12.65203125 -13 13 C-11.51461988 8.2962963 -11.51461988 8.2962963 -8.9375 6.8125 C-8.298125 6.544375 -7.65875 6.27625 -7 6 C-6.67 5.34 -6.34 4.68 -6 4 C-4.02477154 2.95191959 -2.02518491 1.9479589 0 1 C0 0.67 0 0.34 0 0 Z " fill="#835949" transform="translate(202,333)"/>
<path d="M0 0 C0 0.66 0 1.32 0 2 C2.31 2.33 4.62 2.66 7 3 C7 3.66 7 4.32 7 5 C5.06257659 5.02703381 3.12504521 5.04641125 1.1875 5.0625 C0.10855469 5.07410156 -0.97039062 5.08570313 -2.08203125 5.09765625 C-5 5 -5 5 -8 4 C-8 3.34 -8 2.68 -8 2 C-3.61016949 -1.20338983 -3.61016949 -1.20338983 0 0 Z " fill="#5C231E" transform="translate(372,202)"/>
<path d="M0 0 C1.98 0 3.96 0 6 0 C6 1.65 6 3.3 6 5 C6.804375 5.226875 7.60875 5.45375 8.4375 5.6875 C9.283125 6.120625 10.12875 6.55375 11 7 C11.8125 9.625 11.8125 9.625 12 12 C8.87142986 10.6118265 6.71810826 8.98898122 4.3125 6.5625 C3.71050781 5.96566406 3.10851562 5.36882812 2.48828125 4.75390625 C1 3 1 3 0 0 Z " fill="#6F3D2F" transform="translate(303,370)"/>
<path d="M0 0 C0.763125 0.20625 1.52625 0.4125 2.3125 0.625 C2.3125 2.605 2.3125 4.585 2.3125 6.625 C0.0025 6.625 -2.3075 6.625 -4.6875 6.625 C-5.0175 5.965 -5.3475 5.305 -5.6875 4.625 C-6.6775 5.12 -6.6775 5.12 -7.6875 5.625 C-6.02612914 1.79106724 -4.59035464 -0.6405146 0 0 Z " fill="#5F2426" transform="translate(381.6875,256.375)"/>
<path d="M0 0 C1.8871875 0.0309375 1.8871875 0.0309375 3.8125 0.0625 C1.10918983 2.76581017 -1.90292796 3.26165686 -5.5 4.1875 C-6.16451172 4.36925781 -6.82902344 4.55101562 -7.51367188 4.73828125 C-11.1481914 5.69454455 -14.42865057 6.28061505 -18.1875 6.0625 C-6.32930929 -0.10375917 -6.32930929 -0.10375917 0 0 Z " fill="#7E5240" transform="translate(205.1875,300.9375)"/>
<path d="M0 0 C0.99 0.99 1.98 1.98 3 3 C-2.01685588 5.60512471 -7.33047091 8.27240093 -13.0625 7.6875 C-13.701875 7.460625 -14.34125 7.23375 -15 7 C-10.84541088 4.76291355 -6.76123067 3 -2 3 C-2 2.34 -2 1.68 -2 1 C-1.34 0.67 -0.68 0.34 0 0 Z " fill="#724135" transform="translate(284,297)"/>
<path d="M0 0 C0.66 0.99 1.32 1.98 2 3 C1.34 3.639375 0.68 4.27875 0 4.9375 C-2.11602431 6.64082319 -2.11602431 6.64082319 -2 8 C-3.98 8 -5.96 8 -8 8 C-8 6.35 -8 4.7 -8 3 C-3.25 2 -3.25 2 -1 2 C-0.67 1.34 -0.34 0.68 0 0 Z " fill="#602422" transform="translate(278,258)"/>
<path d="M0 0 C-1.32 0.33 -2.64 0.66 -4 1 C-4 1.66 -4 2.32 -4 3 C-11.41226226 4.18982084 -17.69860023 3.67959957 -25 2 C-21.60446202 1.03415808 -18.54261244 0.97903715 -15.01171875 1.03125 C-9.95492576 0.95269788 -5.1253658 -0.10250732 0 0 Z " fill="#7D4E3A" transform="translate(210,286)"/>
<path d="M0 0 C0.99 0.33 1.98 0.66 3 1 C4.421875 3.87109375 4.421875 3.87109375 5.75 7.4375 C6.19859375 8.61183594 6.6471875 9.78617188 7.109375 10.99609375 C8 14 8 14 7 16 C6.34 15.67 5.68 15.34 5 15 C5 14.01 5 13.02 5 12 C4.34 12 3.68 12 3 12 C2.49440092 10.56445975 1.9957251 9.1264798 1.5 7.6875 C1.2215625 6.88699219 0.943125 6.08648437 0.65625 5.26171875 C0 3 0 3 0 0 Z " fill="#724131" transform="translate(275,202)"/>
<path d="M0 0 C5.81261371 1.73982995 10.83169994 3.8110489 16 7 C12.4342011 8.96733733 10.06058324 9 6 9 C6.66 7.68 7.32 6.36 8 5 C7.01 5 6.02 5 5 5 C5 4.34 5 3.68 5 3 C2.03 2.505 2.03 2.505 -1 2 C-0.67 1.34 -0.34 0.68 0 0 Z " fill="#7C4E41" transform="translate(342,117)"/>
<path d="M0 0 C1.03930664 0.07831055 1.03930664 0.07831055 2.09960938 0.15820312 C3.79604437 0.28689819 5.49184863 0.42386184 7.1875 0.5625 C7.1875 0.8925 7.1875 1.2225 7.1875 1.5625 C1.2475 1.8925 -4.6925 2.2225 -10.8125 2.5625 C-11.1425 4.2125 -11.4725 5.8625 -11.8125 7.5625 C-11.1525 7.8925 -10.4925 8.2225 -9.8125 8.5625 C-10.1425 9.5525 -10.4725 10.5425 -10.8125 11.5625 C-13.88942308 6.27019231 -13.88942308 6.27019231 -13.5 2.6875 C-13.273125 1.98625 -13.04625 1.285 -12.8125 0.5625 C-8.46757229 -0.57646163 -4.42629215 -0.36850471 0 0 Z " fill="#936E3C" transform="translate(257.8125,106.4375)"/>
<path d="M0 0 C2.1875 0.3125 2.1875 0.3125 4 1 C1 7 1 7 -0.75 7.625 C-3.20450557 8.03408426 -5.5159411 8.06900164 -8 8 C-6.33333333 6.33333333 -4.66666667 4.66666667 -3 3 C-2.484375 2.38125 -1.96875 1.7625 -1.4375 1.125 C-0.963125 0.75375 -0.48875 0.3825 0 0 Z " fill="#74413A" transform="translate(292,242)"/>
<path d="M0 0 C6.54849313 1.16204993 12.74538144 2.73383385 19 5 C19 5.33 19 5.66 19 6 C12.88272706 6.26030949 6.5599814 5.7799907 1 3 C1.33 2.34 1.66 1.68 2 1 C1.34 0.67 0.68 0.34 0 0 Z " fill="#7A4B39" transform="translate(323,111)"/>
<path d="M0 0 C2.97 0 5.94 0 9 0 C8.67 0.66 8.34 1.32 8 2 C6.68 2 5.36 2 4 2 C4.33 3.98 4.66 5.96 5 8 C3.68 7.67 2.36 7.34 1 7 C1.33 6.34 1.66 5.68 2 5 C1.01 4.67 0.02 4.34 -1 4 C-0.67 2.68 -0.34 1.36 0 0 Z " fill="#5E2522" transform="translate(363,263)"/>
<path d="M0 0 C0.66 0.33 1.32 0.66 2 1 C2 1.99 2 2.98 2 4 C0.03125 5.82421875 0.03125 5.82421875 -2.5 7.6875 C-3.75296875 8.62142578 -3.75296875 8.62142578 -5.03125 9.57421875 C-5.6809375 10.04472656 -6.330625 10.51523437 -7 11 C-7.33 10.01 -7.66 9.02 -8 8 C-5.63707344 5.47411298 -4.33537489 4.11179163 -1 3 C-0.67 2.01 -0.34 1.02 0 0 Z " fill="#79493A" transform="translate(387,375)"/>
<path d="M0 0 C3.56494752 2.67371064 6.5378376 5.2611608 9 9 C9.25 11.8125 9.25 11.8125 9 14 C6.07130346 11.17589976 3.41572077 8.27847819 1 5 C1 4.34 1 3.68 1 3 C0.34 3 -0.32 3 -1 3 C-0.67 2.01 -0.34 1.02 0 0 Z " fill="#78513D" transform="translate(336,137)"/>
<path d="M0 0 C0.99 0.66 1.98 1.32 3 2 C-2.5808739 5.6111537 -7.31141408 7.31850409 -14 7 C-14 6.34 -14 5.68 -14 5 C-12.5437328 4.63743142 -11.08488815 4.28520207 -9.625 3.9375 C-8.40683594 3.64166016 -8.40683594 3.64166016 -7.1640625 3.33984375 C-5 3 -5 3 -3 4 C-2.67 3.01 -2.34 2.02 -2 1 C-1.34 0.67 -0.68 0.34 0 0 Z " fill="#784D36" transform="translate(375,385)"/>
<path d="M0 0 C-0.66 1.32 -1.32 2.64 -2 4 C-3.1446875 3.938125 -3.1446875 3.938125 -4.3125 3.875 C-7.22718416 3.77919176 -7.22718416 3.77919176 -10 6 C-10.99 6 -11.98 6 -13 6 C-12.875 4.125 -12.875 4.125 -12 2 C-7.94298942 0.11301833 -4.43457902 -0.21117043 0 0 Z " fill="#693728" transform="translate(169,326)"/>
<path d="M0 0 C2.31 0 4.62 0 7 0 C4.10181338 2.29158942 1.16859456 4.07862366 -2.125 5.75 C-2.99382812 6.19859375 -3.86265625 6.6471875 -4.7578125 7.109375 C-5.49773437 7.40328125 -6.23765625 7.6971875 -7 8 C-7.66 7.67 -8.32 7.34 -9 7 C-8.34 5.68 -7.68 4.36 -7 3 C-5.02 3 -3.04 3 -1 3 C-0.67 2.01 -0.34 1.02 0 0 Z " fill="#825545" transform="translate(392,256)"/>
<path d="M0 0 C-2.82246174 2.1458442 -5.689324 4.19929134 -8.625 6.1875 C-9.40101563 6.71730469 -10.17703125 7.24710938 -10.9765625 7.79296875 C-13 9 -13 9 -15 9 C-14.34 7.68 -13.68 6.36 -13 5 C-12.34 5 -11.68 5 -11 5 C-11 4.34 -11 3.68 -11 3 C-7.28026121 0.15549386 -4.62609198 -0.3227506 0 0 Z " fill="#7B4E3E" transform="translate(339,218)"/>
<path d="M0 0 C0 0.66 0 1.32 0 2 C1.98 2 3.96 2 6 2 C6 2.99 6 3.98 6 5 C4.68 4.34 3.36 3.68 2 3 C2 3.66 2 4.32 2 5 C-0.3125 5.25 -0.3125 5.25 -3 5 C-4.8125 3 -4.8125 3 -6 1 C-4 0 -4 0 0 0 Z " fill="#5D2221" transform="translate(289,292)"/>
<path d="M0 0 C2.77194429 1.02707831 3.82810489 1.6944087 5.30078125 4.3125 C5.63464844 5.199375 5.96851563 6.08625 6.3125 7 C6.65925781 7.886875 7.00601563 8.77375 7.36328125 9.6875 C8 12 8 12 7 14 C6.34 14 5.68 14 5 14 C4.16235732 12.04350603 3.33000941 10.08474444 2.5 8.125 C2.0359375 7.03445312 1.571875 5.94390625 1.09375 4.8203125 C0 2 0 2 0 0 Z " fill="#6D3D2D" transform="translate(244,130)"/>
<path d="M0 0 C0.66 0.33 1.32 0.66 2 1 C1.67 1.99 1.34 2.98 1 4 C0.195625 4.12375 -0.60875 4.2475 -1.4375 4.375 C-2.7059375 4.684375 -2.7059375 4.684375 -4 5 C-4.33 5.66 -4.66 6.32 -5 7 C-5.99 7.495 -5.99 7.495 -7 8 C-8.0194119 8.98020375 -9.02246356 9.97803008 -10 11 C-10.33 10.34 -10.66 9.68 -11 9 C-11.66 8.67 -12.32 8.34 -13 8 C-10.880788 6.63594382 -8.75551882 5.28368225 -6.625 3.9375 C-6.02171875 3.54755859 -5.4184375 3.15761719 -4.796875 2.75585938 C-3.23507443 1.77539568 -1.62007786 0.88083925 0 0 Z " fill="#7E5445" transform="translate(265,262)"/>
<path d="M0 0 C0.99 0 1.98 0 3 0 C3.66 0.66 4.32 1.32 5 2 C4.401875 2.268125 3.80375 2.53625 3.1875 2.8125 C1.02775192 3.98493467 -0.35790256 5.19369282 -2 7 C-2.66 6.67 -3.32 6.34 -4 6 C-4 5.34 -4 4.68 -4 4 C-4.99 3.67 -5.98 3.34 -7 3 C-6 2 -6 2 -2.9375 1.9375 C-1.4834375 1.9684375 -1.4834375 1.9684375 0 2 C0 1.34 0 0.68 0 0 Z " fill="#642927" transform="translate(289,248)"/>
<path d="M0 0 C0.556875 0.309375 1.11375 0.61875 1.6875 0.9375 C4.12540433 2.05761821 6.36224186 2.56037364 9 3 C8.67 3.66 8.34 4.32 8 5 C5.35139573 5.59355614 2.70802678 5.74209269 0 6 C-0.66 5.01 -1.32 4.02 -2 3 C-1.34 2.01 -0.68 1.02 0 0 Z " fill="#5E241F" transform="translate(323,216)"/>
<path d="M0 0 C0.66 0.33 1.32 0.66 2 1 C1.01 2.32 0.02 3.64 -1 5 C-0.34 5.66 0.32 6.32 1 7 C0.34 7 -0.32 7 -1 7 C-1 7.99 -1 8.98 -1 10 C-2.32 10 -3.64 10 -5 10 C-4.34 8.02 -3.68 6.04 -3 4 C-3.99 3.67 -4.98 3.34 -6 3 C-4.03533587 1.93224776 -2.03144641 0.93446535 0 0 Z " fill="#5C241D" transform="translate(263,266)"/>
<path d="M0 0 C0.66 0.33 1.32 0.66 2 1 C1.67 2.65 1.34 4.3 1 6 C2.98 6 4.96 6 7 6 C4.51047079 8.66735273 2.36591866 10.55746343 -1 12 C-0.814375 11.21625 -0.62875 10.4325 -0.4375 9.625 C0.25962266 7.02910225 0.25962266 7.02910225 -1 5 C-0.67 4.01 -0.34 3.02 0 2 C-0.66 1.67 -1.32 1.34 -2 1 C-1.34 0.67 -0.68 0.34 0 0 Z " fill="#7A483A" transform="translate(269,260)"/>
<path d="M0 0 C0.33 0 0.66 0 1 0 C1.19493195 2.27020744 1.38070418 4.54120289 1.5625 6.8125 C1.66691406 8.07707031 1.77132813 9.34164062 1.87890625 10.64453125 C2 14 2 14 1 17 C-0.65 17.33 -2.3 17.66 -4 18 C-2.125 13.125 -2.125 13.125 -1 12 C-0.76572222 9.98405418 -0.58663876 7.961526 -0.4375 5.9375 C-0.31181641 4.28041016 -0.31181641 4.28041016 -0.18359375 2.58984375 C-0.12300781 1.73519531 -0.06242187 0.88054687 0 0 Z " fill="#956C60" transform="translate(398,221)"/>
<path d="M0 0 C0.66 0.33 1.32 0.66 2 1 C2.484375 2.99609375 2.484375 2.99609375 2.75 5.4375 C2.84796875 6.24058594 2.9459375 7.04367188 3.046875 7.87109375 C3 10 3 10 1 12 C-0.61064629 8.34920174 -1.44894091 4.9492568 -2 1 C-1.34 0.67 -0.68 0.34 0 0 Z " fill="#815448" transform="translate(286,226)"/>
<path d="M0 0 C6.30693069 -0.48514851 6.30693069 -0.48514851 9.5 1.75 C11 4 11 4 10.75 6.25 C10.5025 6.8275 10.255 7.405 10 8 C9.67 7.01 9.34 6.02 9 5 C6.1798062 3.28773948 3.07044129 2.1940605 0 1 C0 0.67 0 0.34 0 0 Z " fill="#895B46" transform="translate(207,174)"/>
<path d="M0 0 C0 0.66 0 1.32 0 2 C-3.78187881 3.83691257 -5.94568308 4.15837626 -10 3 C-10.33 3.66 -10.66 4.32 -11 5 C-11.99 4.34 -12.98 3.68 -14 3 C-9.07015675 0.96006486 -5.42039575 -0.40652968 0 0 Z " fill="#734737" transform="translate(313,307)"/>
<path d="M0 0 C0 0.99 0 1.98 0 3 C0.99 3.33 1.98 3.66 3 4 C-1.455 4.495 -1.455 4.495 -6 5 C-6 4.34 -6 3.68 -6 3 C-5.34 3 -4.68 3 -4 3 C-4 2.34 -4 1.68 -4 1 C-4.99 0.67 -5.98 0.34 -7 0 C-4.3333581 -1.33332095 -2.83319697 -0.67102033 0 0 Z " fill="#5B221D" transform="translate(313,286)"/>
<path d="M0 0 C0.66 0.33 1.32 0.66 2 1 C-0.46941056 3.59937954 -3.18060883 5.79020692 -6 8 C-6 7.34 -6 6.68 -6 6 C-6.66 5.67 -7.32 5.34 -8 5 C-3.375 0 -3.375 0 0 0 Z " fill="#7B3F35" transform="translate(396,239)"/>
<path d="M0 0 C0.99 0.33 1.98 0.66 3 1 C2.49339844 1.79664063 2.49339844 1.79664063 1.9765625 2.609375 C1.30753906 3.66898437 1.30753906 3.66898437 0.625 4.75 C0.18414062 5.44609375 -0.25671875 6.1421875 -0.7109375 6.859375 C-1.91880906 8.86517383 -2.98387737 10.89178296 -4 13 C-4 10.36 -4 7.72 -4 5 C-3.34 5 -2.68 5 -2 5 C-1.34 3.35 -0.68 1.7 0 0 Z " fill="#7C5141" transform="translate(162,371)"/>
<path d="M0 0 C2.64 0 5.28 0 8 0 C5.60939149 1.59373901 3.69171821 2.65297076 1.0625 3.6875 C0.39347656 3.95949219 -0.27554687 4.23148437 -0.96484375 4.51171875 C-3.32830338 5.0787676 -4.7192799 4.76024003 -7 4 C-6.67 3.34 -6.34 2.68 -6 2 C-2.9375 1.375 -2.9375 1.375 0 1 C0 0.67 0 0.34 0 0 Z " fill="#8C6750" transform="translate(315,288)"/>
<path d="M0 0 C0 3.1474213 -0.600266 4.28801537 -2 7 C-2 7.66 -2 8.32 -2 9 C-5 10 -5 10 -7.1875 9.0625 C-7.785625 8.711875 -8.38375 8.36125 -9 8 C-8.01 7.67 -7.02 7.34 -6 7 C-6 6.34 -6 5.68 -6 5 C-4.04072937 3.2856382 -2.04119788 1.61594832 0 0 Z " fill="#845445" transform="translate(387,245)"/>
<path d="M0 0 C0.4125 0.45375 0.825 0.9075 1.25 1.375 C3.06408095 3.05950374 4.75285627 3.99265971 7 5 C5.73160474 5.50615298 4.46016898 6.00469099 3.1875 6.5 C2.12595703 6.91765625 2.12595703 6.91765625 1.04296875 7.34375 C-1 8 -1 8 -4 8 C-4 7.34 -4 6.68 -4 6 C-2.68 5.67 -1.36 5.34 0 5 C-0.33 4.01 -0.66 3.02 -1 2 C-0.67 1.34 -0.34 0.68 0 0 Z " fill="#864E42" transform="translate(263,301)"/>
<path d="M0 0 C-3.3 2.31 -6.6 4.62 -10 7 C-10.66 6.34 -11.32 5.68 -12 5 C-11.01 5 -10.02 5 -9 5 C-8.9175 4.38125 -8.835 3.7625 -8.75 3.125 C-8 1 -8 1 -6.1875 -0.3125 C-4 -1 -4 -1 0 0 Z " fill="#754836" transform="translate(307,244)"/>
<path d="M0 0 C0 4.05164344 -1.61357669 5.79537442 -4 9 C-4.99 9.66 -5.98 10.32 -7 11 C-6.75 8.625 -6.75 8.625 -6 6 C-3.9375 4.6875 -3.9375 4.6875 -2 4 C-2 3.01 -2 2.02 -2 1 C-1.34 0.67 -0.68 0.34 0 0 Z " fill="#845546" transform="translate(419,236)"/>
<path d="M0 0 C0.99 0.33 1.98 0.66 3 1 C3.94921875 3.06640625 3.94921875 3.06640625 4.6875 5.5625 C4.93886719 6.38878906 5.19023437 7.21507812 5.44921875 8.06640625 C5.63097656 8.70449219 5.81273437 9.34257812 6 10 C3 9 3 9 1.3125 6.6875 C0 4 0 4 0 0 Z " fill="#7C5443" transform="translate(258,162)"/>
<path d="M0 0 C0.33 0 0.66 0 1 0 C1.0809723 2.43816585 1.14046972 4.87364384 1.1875 7.3125 C1.22520508 8.34793945 1.22520508 8.34793945 1.26367188 9.40429688 C1.29296875 11.42578125 1.29296875 11.42578125 1 15 C0.01 15.99 -0.98 16.98 -2 18 C-1.34 12.06 -0.68 6.12 0 0 Z " fill="#A67660" transform="translate(370,322)"/>
<path d="M0 0 C-0.66 0.66 -1.32 1.32 -2 2 C-2.99 2 -3.98 2 -5 2 C-5 2.66 -5 3.32 -5 4 C-7.97 3.67 -10.94 3.34 -14 3 C-11.87033995 0.87033995 -10.95931796 0.52375338 -8.125 -0.1875 C-7.44695312 -0.36667969 -6.76890625 -0.54585938 -6.0703125 -0.73046875 C-3.77181444 -1.02970718 -2.19449036 -0.69377386 0 0 Z " fill="#815447" transform="translate(245,304)"/>
<path d="M0 0 C3.99500618 1.3697164 6.80009492 3.25722422 10 6 C9.01 6 8.02 6 7 6 C7.33 6.99 7.66 7.98 8 9 C7.01 8.67 6.02 8.34 5 8 C3.8125 5.4375 3.8125 5.4375 3 3 C2.34 3 1.68 3 1 3 C0.67 2.01 0.34 1.02 0 0 Z " fill="#82583F" transform="translate(358,125)"/>
<path d="M0 0 C2 2 2 2 3 4 C3.66 3.34 4.32 2.68 5 2 C5 3.98 5 5.96 5 8 C4.01 8.33 3.02 8.66 2 9 C0.4375 6.1875 0.4375 6.1875 -1 3 C-0.67 2.01 -0.34 1.02 0 0 Z " fill="#854F42" transform="translate(240,224)"/>
<path d="M0 0 C2.52259061 1.97420135 2.9929808 2.96745642 3.6875 6.1875 C3.790625 7.115625 3.89375 8.04375 4 9 C2.68 9.33 1.36 9.66 0 10 C-1.10807948 6.67576157 -0.76802174 5.32809422 0 2 C0 1.34 0 0.68 0 0 Z " fill="#805139" transform="translate(418,204)"/>
<path d="M0 0 C4.875 4.625 4.875 4.625 6 8 C5.34 8 4.68 8 4 8 C4 7.34 4 6.68 4 6 C3.01 6 2.02 6 1 6 C0.34 5.34 -0.32 4.68 -1 4 C-1.66 3.67 -2.32 3.34 -3 3 C-3 2.34 -3 1.68 -3 1 C-2.01 0.67 -1.02 0.34 0 0 Z " fill="#815448" transform="translate(394,157)"/>
<path d="M0 0 C3.465 1.98 3.465 1.98 7 4 C7 4.66 7 5.32 7 6 C7.99 6.33 8.98 6.66 10 7 C8 8 8 8 5.4375 7.3125 C3 6 3 6 2.1875 3.875 C2.125625 3.25625 2.06375 2.6375 2 2 C1.34 2 0.68 2 0 2 C0 1.34 0 0.68 0 0 Z " fill="#8A5D4B" transform="translate(368,131)"/>
<path d="M0 0 C0.66 0 1.32 0 2 0 C1.48964169 4.3890815 0.47785723 7.33708062 -2 11 C-3.26426661 7.20720018 -2.40145184 5.65934648 -1 2 C-0.67 1.34 -0.34 0.68 0 0 Z " fill="#784E3F" transform="translate(404,351)"/>
<path d="M0 0 C2.9375 0.8125 2.9375 0.8125 6 2 C6.33 2.99 6.66 3.98 7 5 C6.34 5 5.68 5 5 5 C4.67 5.66 4.34 6.32 4 7 C0 2.25 0 2.25 0 0 Z " fill="#774737" transform="translate(134,287)"/>
<path d="M0 0 C0.33 0.99 0.66 1.98 1 3 C1.66 3 2.32 3 3 3 C3 3.66 3 4.32 3 5 C1.68 4.67 0.36 4.34 -1 4 C-1 4.66 -1 5.32 -1 6 C-2.32 5.34 -3.64 4.68 -5 4 C-3.36587557 2.29159719 -2.13093906 1.06546953 0 0 Z " fill="#5D2725" transform="translate(360,268)"/>
<path d="M0 0 C0.33 3.3 0.66 6.6 1 10 C0.34 10 -0.32 10 -1 10 C-1 7.03 -1 4.06 -1 1 C-2.32 1.33 -3.64 1.66 -5 2 C-5.66 1.34 -6.32 0.68 -7 0 C-4.3333581 -1.33332095 -2.83319697 -0.67102033 0 0 Z " fill="#886A38" transform="translate(420,260)"/>
<path d="M0 0 C0.33 0.66 0.66 1.32 1 2 C0.34 1.67 -0.32 1.34 -1 1 C-0.67 0.67 -0.34 0.34 0 0 Z M-2 2 C0.03833424 3.2739589 2.03852126 4.61061923 4 6 C4 6.66 4 7.32 4 8 C2.02 8.99 2.02 8.99 0 10 C-0.33 8.35 -0.66 6.7 -1 5 C-1.66 5 -2.32 5 -3 5 C-2.67 4.01 -2.34 3.02 -2 2 Z " fill="#703E34" transform="translate(320,221)"/>
<path d="M0 0 C0.99 0.33 1.98 0.66 3 1 C3 1.99 3 2.98 3 4 C2.01 4.495 2.01 4.495 1 5 C1.33 5.66 1.66 6.32 2 7 C-1.65316671 5.75023244 -2.78065836 5.32901247 -5 2 C-4.01 2 -3.02 2 -2 2 C-1.34 1.34 -0.68 0.68 0 0 Z " fill="#59211C" transform="translate(332,128)"/>
<path d="M0 0 C0.99 0.33 1.98 0.66 3 1 C3 2.32 3 3.64 3 5 C3.99 5 4.98 5 6 5 C6 6.98 6 8.96 6 11 C3.02753198 8.45217026 1.58464712 5.54659117 0 2 C0 1.34 0 0.68 0 0 Z " fill="#825C3A" transform="translate(297,359)"/>
<path d="M0 0 C1.32 0.33 2.64 0.66 4 1 C4.33 4.3 4.66 7.6 5 11 C2.09591658 7.12788877 1.14920536 4.59682146 0 0 Z " fill="#895D47" transform="translate(292,348)"/>
<path d="M0 0 C0.33 0 0.66 0 1 0 C1.3690205 9.41002278 1.3690205 9.41002278 -1 14 C-1.33 14 -1.66 14 -2 14 C-2.21192221 8.80790596 -1.5912689 4.873261 0 0 Z " fill="#926653" transform="translate(133,246)"/>
<path d="M0 0 C2.4375 0.6875 2.4375 0.6875 5 2 C5.8125 4.625 5.8125 4.625 6 7 C3.53199953 5.84826645 1.95216435 4.95216435 0 3 C0 2.01 0 1.02 0 0 Z " fill="#78493A" transform="translate(309,375)"/>
<path d="M0 0 C0.66 0.33 1.32 0.66 2 1 C0.68 2.65 -0.64 4.3 -2 6 C-3.65 5.67 -5.3 5.34 -7 5 C-2.25 1.125 -2.25 1.125 0 0 Z " fill="#88584B" transform="translate(370,258)"/>
<path d="M0 0 C1.32 0 2.64 0 4 0 C4.33 0.99 4.66 1.98 5 3 C4.67 3.66 4.34 4.32 4 5 C1.4375 5.625 1.4375 5.625 -1 6 C-0.67 4.02 -0.34 2.04 0 0 Z " fill="#5D2421" transform="translate(335,207)"/>
<path d="M0 0 C0.99 0.33 1.98 0.66 3 1 C2.67 1.66 2.34 2.32 2 3 C1.34 3 0.68 3 0 3 C-0.103125 3.78375 -0.20625 4.5675 -0.3125 5.375 C-1 8 -1 8 -4 10 C-3.67 8.68 -3.34 7.36 -3 6 C-2.34 6 -1.68 6 -1 6 C-1.020625 5.195625 -1.04125 4.39125 -1.0625 3.5625 C-1 1 -1 1 0 0 Z " fill="#572218" transform="translate(362,363)"/>
<path d="M0 0 C0.99 0.33 1.98 0.66 3 1 C3.33 2.65 3.66 4.3 4 6 C3.01 6.33 2.02 6.66 1 7 C-0.32 5.68 -1.64 4.36 -3 3 C-2.01 3 -1.02 3 0 3 C0 2.01 0 1.02 0 0 Z " fill="#6C352B" transform="translate(332,335)"/>
<path d="M0 0 C2 2 2 2 2.1953125 4.1640625 C2.17210937 4.97617187 2.14890625 5.78828125 2.125 6.625 C2.10695313 7.44226563 2.08890625 8.25953125 2.0703125 9.1015625 C2.03550781 10.04128906 2.03550781 10.04128906 2 11 C1.67 9.68 1.34 8.36 1 7 C0.34 7 -0.32 7 -1 7 C-1.625 5.1875 -1.625 5.1875 -2 3 C-1.34 2.01 -0.68 1.02 0 0 Z " fill="#754338" transform="translate(325,315)"/>
<path d="M0 0 C0 0.66 0 1.32 0 2 C-0.99 2.33 -1.98 2.66 -3 3 C-3 3.99 -3 4.98 -3 6 C-3.66 6 -4.32 6 -5 6 C-5.33 4.02 -5.66 2.04 -6 0 C-2.25 -1.125 -2.25 -1.125 0 0 Z " fill="#713837" transform="translate(373,265)"/>
<path d="M0 0 C0.66 0.33 1.32 0.66 2 1 C1.67 2.98 1.34 4.96 1 7 C0.67 6.34 0.34 5.68 0 5 C-2.01669827 3.86649466 -2.01669827 3.86649466 -4 3 C-2.68 2.01 -1.36 1.02 0 0 Z " fill="#7D4943" transform="translate(345,199)"/>
<path d="M0 0 C0.66 0 1.32 0 2 0 C1.65120368 3.25543229 0.97866739 4.01873107 -1.5625 6.25 C-2.366875 6.8275 -3.17125 7.405 -4 8 C-3.49396008 5.83125748 -3.00016187 4.00032373 -2 2 C-1.34 2 -0.68 2 0 2 C0 1.34 0 0.68 0 0 Z " fill="#724631" transform="translate(174,355)"/>
<path d="M0 0 C0.66 0.33 1.32 0.66 2 1 C1.67 1.99 1.34 2.98 1 4 C-2.47823115 5.15941038 -4.45895578 4.70820884 -8 4 C-5.31143836 2.20762558 -3.0466145 1.01553817 0 0 Z " fill="#83533E" transform="translate(243,274)"/>
<path d="M0 0 C0 1.65 0 3.3 0 5 C-2.76264289 5.59732819 -5.16032769 6 -8 6 C-6.85675161 4.9970458 -5.71032809 3.99770973 -4.5625 3 C-3.92441406 2.443125 -3.28632813 1.88625 -2.62890625 1.3125 C-1 0 -1 0 0 0 Z " fill="#86624F" transform="translate(303,234)"/>
<path d="M0 0 C2.64 0 5.28 0 8 0 C8.33 1.32 8.66 2.64 9 4 C6.03 3.01 3.06 2.02 0 1 C0 0.67 0 0.34 0 0 Z " fill="#845645" transform="translate(383,208)"/>
<path d="M0 0 C0.66 0 1.32 0 2 0 C2.33 1.32 2.66 2.64 3 4 C1.68 4.99 0.36 5.98 -1 7 C-1.33 5.35 -1.66 3.7 -2 2 C-1.34 2 -0.68 2 0 2 C0 1.34 0 0.68 0 0 Z " fill="#724639" transform="translate(181,182)"/>
<path d="M0 0 C1.0625 1.875 1.0625 1.875 2 4 C1.67 4.66 1.34 5.32 1 6 C0.34 6 -0.32 6 -1 6 C-1.12375 6.639375 -1.2475 7.27875 -1.375 7.9375 C-1.58125 8.618125 -1.7875 9.29875 -2 10 C-2.99 10.495 -2.99 10.495 -4 11 C-2.7874262 7.27566618 -1.49140021 3.62197194 0 0 Z " fill="#8D5F4C" transform="translate(161,179)"/>
<path d="M0 0 C2.15377564 2.62198774 3.40072174 4.64404172 4 8 C3.01 8.33 2.02 8.66 1 9 C0 8 0 8 -0.09765625 6.15234375 C-0.06510417 4.1015625 -0.03255208 2.05078125 0 0 Z " fill="#835A4C" transform="translate(400,165)"/>
<path d="M0 0 C2 4 2 4 1.3125 6.6875 C0 9 0 9 -3 10 C-2.01 6.7 -1.02 3.4 0 0 Z " fill="#845242" transform="translate(167,164)"/>
<path d="M0 0 C4 1 4 1 5.25 3.0625 C5.4975 3.701875 5.745 4.34125 6 5 C5.01 6.485 5.01 6.485 4 8 C2.68 5.36 1.36 2.72 0 0 Z " fill="#835D4A" transform="translate(345,152)"/>
<path d="M0 0 C0 0.33 0 0.66 0 1 C-1.65 1.33 -3.3 1.66 -5 2 C-5.33 2.99 -5.66 3.98 -6 5 C-7.32 3.35 -8.64 1.7 -10 0 C-6.30581799 -1.231394 -3.7943739 -0.64432764 0 0 Z " fill="#632924" transform="translate(335,281)"/>
<path d="M0 0 C0.66 0.33 1.32 0.66 2 1 C1.375 2.875 1.375 2.875 0 5 C-3.125 6.25 -3.125 6.25 -6 7 C-4.02 4.69 -2.04 2.38 0 0 Z " fill="#814E3D" transform="translate(317,220)"/>
<path d="M0 0 C2.50298434 2.93828597 3.46930939 5.17902761 4 9 C2.68 8.34 1.36 7.68 0 7 C0 4.69 0 2.38 0 0 Z " fill="#8E6254" transform="translate(252,144)"/>
<path d="M0 0 C1.98 1.65 3.96 3.3 6 5 C5.01 5.33 4.02 5.66 3 6 C2.34 5.67 1.68 5.34 1 5 C1 4.34 1 3.68 1 3 C0.01 3 -0.98 3 -2 3 C-1 1 -1 1 0 0 Z " fill="#784B39" transform="translate(378,139)"/>
<path d="M0 0 C0.99 0.33 1.98 0.66 3 1 C2.67 2.65 2.34 4.3 2 6 C2.66 6.33 3.32 6.66 4 7 C3.67 7.99 3.34 8.98 3 10 C0.96564469 6.27034861 0 4.33094958 0 0 Z " fill="#8D6848" transform="translate(244,108)"/>
<path d="M0 0 C0 3.59857954 -0.95830515 5.09451118 -3 8 C-3.66 8 -4.32 8 -5 8 C-4.45773019 4.20411134 -2.79872437 2.52788007 0 0 Z " fill="#835F4A" transform="translate(96,358)"/>
<path d="M0 0 C0.94875 0.04125 1.8975 0.0825 2.875 0.125 C2.215 1.445 1.555 2.765 0.875 4.125 C-1.105 3.465 -3.085 2.805 -5.125 2.125 C-3.125 0.125 -3.125 0.125 0 0 Z " fill="#6E3F30" transform="translate(166.125,325.875)"/>
<path d="M0 0 C2 1 2 1 2.8515625 3.06640625 C3.10679687 3.89011719 3.36203125 4.71382813 3.625 5.5625 C3.88539063 6.38878906 4.14578125 7.21507812 4.4140625 8.06640625 C4.60742188 8.70449219 4.80078125 9.34257812 5 10 C3.0625 8.9375 3.0625 8.9375 1 7 C0.25 3.3125 0.25 3.3125 0 0 Z " fill="#906556" transform="translate(320,305)"/>
<path d="M0 0 C-0.99 1.485 -0.99 1.485 -2 3 C-2.99 2.67 -3.98 2.34 -5 2 C-6.66621616 1.96125079 -8.33394172 1.9549714 -10 2 C-6.16991045 -0.55339303 -4.41711378 -1.47237126 0 0 Z " fill="#562218" transform="translate(252,303)"/>
<path d="M0 0 C0 0.66 0 1.32 0 2 C-0.99 2.495 -0.99 2.495 -2 3 C-2.65213292 5.02463255 -2.65213292 5.02463255 -3 7 C-3.66 6.67 -4.32 6.34 -5 6 C-5.625 3.9375 -5.625 3.9375 -6 2 C-2.25 0 -2.25 0 0 0 Z " fill="#7D5037" transform="translate(251,271)"/>
<path d="M0 0 C1.32 0.33 2.64 0.66 4 1 C4 1.66 4 2.32 4 3 C4.66 3.66 5.32 4.32 6 5 C4.68 5.33 3.36 5.66 2 6 C2 5.34 2 4.68 2 4 C1.34 4 0.68 4 0 4 C0 2.68 0 1.36 0 0 Z " fill="#763C35" transform="translate(361,267)"/>
<path d="M0 0 C0.33 0.66 0.66 1.32 1 2 C1.66 2.33 2.32 2.66 3 3 C1.35 4.32 -0.3 5.64 -2 7 C-2 6.34 -2 5.68 -2 5 C-2.66 4.67 -3.32 4.34 -4 4 C-2.68 3.67 -1.36 3.34 0 3 C0 2.01 0 1.02 0 0 Z " fill="#7A4C3C" transform="translate(317,229)"/>
<path d="M0 0 C0.66 0 1.32 0 2 0 C1.67 1.32 1.34 2.64 1 4 C-1.31 4.66 -3.62 5.32 -6 6 C-4 4 -2 2 0 0 Z " fill="#8E5F4F" transform="translate(333,207)"/>
<path d="M0 0 C0.33 0 0.66 0 1 0 C1 2.31 1 4.62 1 7 C-0.98 7.99 -0.98 7.99 -3 9 C-2.01 6.03 -1.02 3.06 0 0 Z " fill="#805A40" transform="translate(151,203)"/>
<path d="M0 0 C2.71435596 0.93305986 3.78043163 1.62673377 5.25 4.125 C5.4975 4.74375 5.745 5.3625 6 6 C2.62496331 4.8141763 0.35277269 3.72426311 -2 1 C-1.34 0.67 -0.68 0.34 0 0 Z " fill="#876553" transform="translate(323,127)"/>
<path d="M0 0 C0.66 0.99 1.32 1.98 2 3 C2.99387334 4.33790641 3.9926892 5.67218122 5 7 C3.35 7 1.7 7 0 7 C-1.125 2.25 -1.125 2.25 0 0 Z " fill="#7C4E3D" transform="translate(349,371)"/>
<path d="M0 0 C0.33 1.32 0.66 2.64 1 4 C0.01 4.66 -0.98 5.32 -2 6 C-2.99 5.67 -3.98 5.34 -5 5 C-3.35 3.35 -1.7 1.7 0 0 Z " fill="#744734" transform="translate(90,364)"/>
<path d="M0 0 C1.32 0 2.64 0 4 0 C2.84826645 2.46800047 1.95216435 4.04783565 0 6 C-0.38218767 4.34385343 -0.71395102 2.67542976 -1 1 C-0.67 0.67 -0.34 0.34 0 0 Z " fill="#7E4436" transform="translate(166,363)"/>
<path d="M0 0 C-0.66 0 -1.32 0 -2 0 C-2.33 0.99 -2.66 1.98 -3 3 C-5.97 2.505 -5.97 2.505 -9 2 C-5.96271914 -1.03728086 -4.06215635 -1.35405212 0 0 Z " fill="#815046" transform="translate(188,320)"/>
<path d="M0 0 C1.65 0.33 3.3 0.66 5 1 C3.71034824 2.37562854 2.37310707 3.70766393 1 5 C0.34 5 -0.32 5 -1 5 C-0.67 3.35 -0.34 1.7 0 0 Z " fill="#784F41" transform="translate(400,251)"/>
<path d="M0 0 C0.66 0.33 1.32 0.66 2 1 C1.8125 2.875 1.8125 2.875 1 5 C-1.5625 6.25 -1.5625 6.25 -4 7 C-4 6.01 -4 5.02 -4 4 C-2.68 4 -1.36 4 0 4 C0 2.68 0 1.36 0 0 Z " fill="#795040" transform="translate(409,245)"/>
<path d="M0 0 C1.32 0.66 2.64 1.32 4 2 C4 2.99 4 3.98 4 5 C2.35 4.67 0.7 4.34 -1 4 C-0.67 2.68 -0.34 1.36 0 0 Z " fill="#59241D" transform="translate(283,233)"/>
<path d="M0 0 C2.62386487 3.06117568 3 3.73173127 3 8 C2.01 7.67 1.02 7.34 0 7 C0 4.69 0 2.38 0 0 Z " fill="#865945" transform="translate(283,218)"/>
<path d="M0 0 C-0.33 1.32 -0.66 2.64 -1 4 C-3.31 4 -5.62 4 -8 4 C-6.27302455 0.54604909 -3.70696841 0 0 0 Z " fill="#895447" transform="translate(355,195)"/>
<path d="M0 0 C0.66 0.33 1.32 0.66 2 1 C0.8141763 4.37503669 -0.27573689 6.64722731 -3 9 C-3 7.68 -3 6.36 -3 5 C-2.34 5 -1.68 5 -1 5 C-0.67 3.35 -0.34 1.7 0 0 Z " fill="#8F5B4F" transform="translate(176,192)"/>
<path d="M0 0 C0.33 0 0.66 0 1 0 C1.66 2.64 2.32 5.28 3 8 C2.01 8 1.02 8 0 8 C-0.38063221 5.6739143 -0.71269945 3.33944736 -1 1 C-0.67 0.67 -0.34 0.34 0 0 Z " fill="#562318" transform="translate(360,178)"/>
<path d="M0 0 C1.65 0 3.3 0 5 0 C2.14693203 2.32472205 -0.54074837 3.7508258 -4 5 C-4 4.01 -4 3.02 -4 2 C-2.68 2 -1.36 2 0 2 C0 1.34 0 0.68 0 0 Z " fill="#895742" transform="translate(192,175)"/>
<path d="M0 0 C2.50298434 2.93828597 3.46930939 5.17902761 4 9 C2.68 8.34 1.36 7.68 0 7 C0 4.69 0 2.38 0 0 Z " fill="#8E5D4A" transform="translate(241,118)"/>
</svg>
